<?xml version="1.0" encoding="UTF-8" standalone="no"?><!DOCTYPE svg PUBLIC "-//W3C//DTD SVG 1.1//EN" "http://www.w3.org/Graphics/SVG/1.1/DTD/svg11.dtd"><!-- Generated by graphviz version 2.40.1 (20161225.0304)
 --><!-- Title: G Pages: 1 --><svg xmlns="http://www.w3.org/2000/svg" xmlns:xlink="http://www.w3.org/1999/xlink" width="1326pt" height="447pt" viewBox="0.00 0.00 1326.20 447.20">
<g id="graph0" class="graph" transform="scale(1 1) rotate(0) translate(4 443.2)">
<title>G</title>
<polygon fill="#ffffff" stroke="transparent" points="-4,4 -4,-443.2 1322.2048,-443.2 1322.2048,4 -4,4"/>
<!-- 40625481 -->
<g id="node1" class="node">
<title>40625481</title>
<text text-anchor="middle" x="478.2188" y="-426.6" font-family="Times,serif" font-size="14.00" fill="#000000">parse</text>
</g>
<!-- 44491525 -->
<g id="node2" class="node">
<title>44491525</title>
<text text-anchor="middle" x="433.2188" y="-373.8" font-family="Times,serif" font-size="14.00" fill="#000000">sql_stmt_list</text>
</g>
<!-- 40625481&#45;&gt;44491525 -->
<g id="edge1" class="edge">
<title>40625481-&gt;44491525</title>
<path fill="none" stroke="#000000" d="M470.788,-422.0812C464.3661,-414.5462 454.9132,-403.4548 447.0963,-394.283"/>
<polygon fill="#000000" stroke="#000000" points="449.6617,-391.8972 440.5114,-386.5566 444.3341,-396.4378 449.6617,-391.8972"/>
</g>
<!-- 688595 -->
<g id="node56" class="node">
<title>688595</title>
<text text-anchor="middle" x="523.2188" y="-373.8" font-family="Times,serif" font-size="14.00" fill="#000000">EOF:&lt;EOF&gt;</text>
</g>
<!-- 40625481&#45;&gt;688595 -->
<g id="edge55" class="edge">
<title>40625481-&gt;688595</title>
<path fill="none" stroke="#000000" d="M485.6496,-422.0812C492.0715,-414.5462 501.5244,-403.4548 509.3413,-394.283"/>
<polygon fill="#000000" stroke="#000000" points="512.1035,-396.4378 515.9262,-386.5566 506.7759,-391.8972 512.1035,-396.4378"/>
</g>
<!-- 32601090 -->
<g id="node3" class="node">
<title>32601090</title>
<text text-anchor="middle" x="401.2188" y="-321" font-family="Times,serif" font-size="14.00" fill="#000000">sql_stmt</text>
</g>
<!-- 44491525&#45;&gt;32601090 -->
<g id="edge2" class="edge">
<title>44491525-&gt;32601090</title>
<path fill="none" stroke="#000000" d="M427.9347,-369.2812C423.5078,-361.9769 417.0555,-351.3306 411.6009,-342.3305"/>
<polygon fill="#000000" stroke="#000000" points="414.5809,-340.4945 406.4046,-333.7566 408.5945,-344.1227 414.5809,-340.4945"/>
</g>
<!-- 30144563 -->
<g id="node55" class="node">
<title>30144563</title>
<text text-anchor="middle" x="465.2188" y="-321" font-family="Times,serif" font-size="14.00" fill="#000000">SCOL:;</text>
</g>
<!-- 44491525&#45;&gt;30144563 -->
<g id="edge54" class="edge">
<title>44491525-&gt;30144563</title>
<path fill="none" stroke="#000000" d="M438.5029,-369.2812C442.9298,-361.9769 449.3821,-351.3306 454.8367,-342.3305"/>
<polygon fill="#000000" stroke="#000000" points="457.8431,-344.1227 460.033,-333.7566 451.8567,-340.4945 457.8431,-344.1227"/>
</g>
<!-- 53949539 -->
<g id="node4" class="node">
<title>53949539</title>
<text text-anchor="middle" x="401.2188" y="-268.2" font-family="Times,serif" font-size="14.00" fill="#000000">create_table_stmt</text>
</g>
<!-- 32601090&#45;&gt;53949539 -->
<g id="edge3" class="edge">
<title>32601090-&gt;53949539</title>
<path fill="none" stroke="#000000" d="M401.2188,-316.4812C401.2188,-309.5613 401.2188,-299.642 401.2188,-290.9645"/>
<polygon fill="#000000" stroke="#000000" points="404.7189,-290.9566 401.2188,-280.9566 397.7189,-290.9566 404.7189,-290.9566"/>
</g>
<!-- 26281741 -->
<g id="node5" class="node">
<title>26281741</title>
<text text-anchor="middle" x="27.2188" y="-215.4" font-family="Times,serif" font-size="14.00" fill="#000000">CREATE</text>
</g>
<!-- 53949539&#45;&gt;26281741 -->
<g id="edge4" class="edge">
<title>53949539-&gt;26281741</title>
<path fill="none" stroke="#000000" d="M351.7224,-267.4445C287.6509,-260.6881 172.3679,-247.3725 64.7343,-228.1215"/>
<polygon fill="#000000" stroke="#000000" points="65.1415,-224.6384 54.678,-226.3012 63.8946,-231.5265 65.1415,-224.6384"/>
</g>
<!-- 12736932 -->
<g id="node6" class="node">
<title>12736932</title>
<text text-anchor="middle" x="95.2188" y="-215.4" font-family="Times,serif" font-size="14.00" fill="#000000">TABLE</text>
</g>
<!-- 53949539&#45;&gt;12736932 -->
<g id="edge5" class="edge">
<title>53949539-&gt;12736932</title>
<path fill="none" stroke="#000000" d="M351.9542,-265.8713C298.9972,-258.5292 212.1716,-245.5584 127.8786,-227.9496"/>
<polygon fill="#000000" stroke="#000000" points="128.3879,-224.48 117.8803,-225.8362 126.9402,-231.3287 128.3879,-224.48"/>
</g>
<!-- 20129932 -->
<g id="node7" class="node">
<title>20129932</title>
<text text-anchor="middle" x="142.2188" y="-215.4" font-family="Times,serif" font-size="14.00" fill="#000000">IF</text>
</g>
<!-- 53949539&#45;&gt;20129932 -->
<g id="edge6" class="edge">
<title>53949539-&gt;20129932</title>
<path fill="none" stroke="#000000" d="M351.6985,-267.789C301.7921,-262.1215 223.0874,-250.3703 158.2188,-228 158.115,-227.9642 158.011,-227.9278 157.9069,-227.8909"/>
<polygon fill="#000000" stroke="#000000" points="159.0968,-224.5828 148.5579,-223.496 156.1188,-230.9178 159.0968,-224.5828"/>
</g>
<!-- 46842601 -->
<g id="node8" class="node">
<title>46842601</title>
<text text-anchor="middle" x="181.2188" y="-215.4" font-family="Times,serif" font-size="14.00" fill="#000000">NOT</text>
</g>
<!-- 53949539&#45;&gt;46842601 -->
<g id="edge7" class="edge">
<title>53949539-&gt;46842601</title>
<path fill="none" stroke="#000000" d="M356.5954,-264.0461C318.5904,-256.5513 262.4109,-244.5786 205.59,-228.1194"/>
<polygon fill="#000000" stroke="#000000" points="206.3067,-224.682 195.7255,-225.2177 204.3314,-231.3975 206.3067,-224.682"/>
</g>
<!-- 13586078 -->
<g id="node9" class="node">
<title>13586078</title>
<text text-anchor="middle" x="237.2188" y="-215.4" font-family="Times,serif" font-size="14.00" fill="#000000">EXISTS</text>
</g>
<!-- 53949539&#45;&gt;13586078 -->
<g id="edge8" class="edge">
<title>53949539-&gt;13586078</title>
<path fill="none" stroke="#000000" d="M375.2325,-264.0337C346.9936,-254.9421 301.7777,-240.3848 270.8494,-230.4274"/>
<polygon fill="#000000" stroke="#000000" points="271.545,-226.9745 260.9535,-227.2414 269.3998,-233.6377 271.545,-226.9745"/>
</g>
<!-- 61738064 -->
<g id="node10" class="node">
<title>61738064</title>
<text text-anchor="middle" x="311.2188" y="-215.4" font-family="Times,serif" font-size="14.00" fill="#000000">table_name</text>
</g>
<!-- 53949539&#45;&gt;61738064 -->
<g id="edge9" class="edge">
<title>53949539-&gt;61738064</title>
<path fill="none" stroke="#000000" d="M386.7587,-263.9168C372.7192,-255.6802 351.1703,-243.0382 334.6757,-233.3614"/>
<polygon fill="#000000" stroke="#000000" points="336.0393,-230.1035 325.643,-228.0622 332.4972,-236.1412 336.0393,-230.1035"/>
</g>
<!-- 27860218 -->
<g id="node13" class="node">
<title>27860218</title>
<text text-anchor="middle" x="401.2188" y="-215.4" font-family="Times,serif" font-size="14.00" fill="#000000">OPEN_PAR:(</text>
</g>
<!-- 53949539&#45;&gt;27860218 -->
<g id="edge12" class="edge">
<title>53949539-&gt;27860218</title>
<path fill="none" stroke="#000000" d="M401.2188,-263.6812C401.2188,-256.7613 401.2188,-246.842 401.2188,-238.1645"/>
<polygon fill="#000000" stroke="#000000" points="404.7189,-238.1566 401.2188,-228.1566 397.7189,-238.1566 404.7189,-238.1566"/>
</g>
<!-- 22973447 -->
<g id="node14" class="node">
<title>22973447</title>
<text text-anchor="middle" x="492.2188" y="-215.4" font-family="Times,serif" font-size="14.00" fill="#000000">column_def</text>
</g>
<!-- 53949539&#45;&gt;22973447 -->
<g id="edge13" class="edge">
<title>53949539-&gt;22973447</title>
<path fill="none" stroke="#000000" d="M415.8395,-263.9168C430.1677,-255.6033 452.2313,-242.8015 468.9675,-233.0909"/>
<polygon fill="#000000" stroke="#000000" points="470.7414,-236.1082 477.6344,-228.0622 467.2283,-230.0535 470.7414,-236.1082"/>
</g>
<!-- 6538102 -->
<g id="node26" class="node">
<title>6538102</title>
<text text-anchor="middle" x="574.2188" y="-215.4" font-family="Times,serif" font-size="14.00" fill="#000000">COMMA:,</text>
</g>
<!-- 53949539&#45;&gt;6538102 -->
<g id="edge25" class="edge">
<title>53949539-&gt;6538102</title>
<path fill="none" stroke="#000000" d="M428.6312,-264.0337C457.9881,-255.0739 504.7383,-240.8056 537.3147,-230.8632"/>
<polygon fill="#000000" stroke="#000000" points="538.3919,-234.1939 546.9347,-227.9272 536.3485,-227.4988 538.3919,-234.1939"/>
</g>
<!-- 51931573 -->
<g id="node27" class="node">
<title>51931573</title>
<text text-anchor="middle" x="656.2188" y="-215.4" font-family="Times,serif" font-size="14.00" fill="#000000">column_def</text>
</g>
<!-- 53949539&#45;&gt;51931573 -->
<g id="edge26" class="edge">
<title>53949539-&gt;51931573</title>
<path fill="none" stroke="#000000" d="M441.3431,-264.0919C487.9919,-254.4329 564.7081,-238.5481 612.7431,-228.602"/>
<polygon fill="#000000" stroke="#000000" points="613.7477,-231.9683 622.8303,-226.5134 612.3284,-225.1137 613.7477,-231.9683"/>
</g>
<!-- 65049681 -->
<g id="node38" class="node">
<title>65049681</title>
<text text-anchor="middle" x="738.2188" y="-215.4" font-family="Times,serif" font-size="14.00" fill="#000000">COMMA:,</text>
</g>
<!-- 53949539&#45;&gt;65049681 -->
<g id="edge37" class="edge">
<title>53949539-&gt;65049681</title>
<path fill="none" stroke="#000000" d="M450.5,-265.9331C507.522,-258.2498 604.4579,-244.5728 697.395,-228.0556"/>
<polygon fill="#000000" stroke="#000000" points="698.0186,-231.4997 707.2449,-226.2915 696.7845,-224.6094 698.0186,-231.4997"/>
</g>
<!-- 33317777 -->
<g id="node39" class="node">
<title>33317777</title>
<text text-anchor="middle" x="945.2188" y="-215.4" font-family="Times,serif" font-size="14.00" fill="#000000">column_def</text>
</g>
<!-- 53949539&#45;&gt;33317777 -->
<g id="edge38" class="edge">
<title>53949539-&gt;33317777</title>
<path fill="none" stroke="#000000" d="M450.9373,-267.5744C556.574,-257.3214 801.8633,-233.5139 901.7352,-223.8205"/>
<polygon fill="#000000" stroke="#000000" points="902.1643,-227.2954 911.7794,-222.8456 901.488,-220.3281 902.1643,-227.2954"/>
</g>
<!-- 26636999 -->
<g id="node54" class="node">
<title>26636999</title>
<text text-anchor="middle" x="1040.2188" y="-215.4" font-family="Times,serif" font-size="14.00" fill="#000000">CLOSE_PAR:)</text>
</g>
<!-- 53949539&#45;&gt;26636999 -->
<g id="edge53" class="edge">
<title>53949539-&gt;26636999</title>
<path fill="none" stroke="#000000" d="M450.7408,-270.0142C550.1979,-264.9267 781.4931,-251.6045 986.5329,-227.9737"/>
<polygon fill="#000000" stroke="#000000" points="987.0564,-231.4365 996.585,-226.8044 986.2475,-224.4834 987.0564,-231.4365"/>
</g>
<!-- 5266275 -->
<g id="node11" class="node">
<title>5266275</title>
<text text-anchor="middle" x="208.2188" y="-162.6" font-family="Times,serif" font-size="14.00" fill="#000000">any_name</text>
</g>
<!-- 61738064&#45;&gt;5266275 -->
<g id="edge10" class="edge">
<title>61738064-&gt;5266275</title>
<path fill="none" stroke="#000000" d="M294.6701,-211.1168C278.2272,-202.6878 252.784,-189.6451 233.7504,-179.8881"/>
<polygon fill="#000000" stroke="#000000" points="235.222,-176.7094 224.7265,-175.2622 232.0287,-182.9386 235.222,-176.7094"/>
</g>
<!-- 56720890 -->
<g id="node12" class="node">
<title>56720890</title>
<text text-anchor="middle" x="199.2188" y="-109.8" font-family="Times,serif" font-size="14.00" fill="#000000">IDENTIFIER:table1</text>
</g>
<!-- 5266275&#45;&gt;56720890 -->
<g id="edge11" class="edge">
<title>5266275-&gt;56720890</title>
<path fill="none" stroke="#000000" d="M206.7326,-158.0812C205.5531,-151.1613 203.8623,-141.242 202.3832,-132.5645"/>
<polygon fill="#000000" stroke="#000000" points="205.8079,-131.8263 200.6773,-122.5566 198.9075,-133.0026 205.8079,-131.8263"/>
</g>
<!-- 51957125 -->
<g id="node15" class="node">
<title>51957125</title>
<text text-anchor="middle" x="303.2188" y="-162.6" font-family="Times,serif" font-size="14.00" fill="#000000">column_name</text>
</g>
<!-- 22973447&#45;&gt;51957125 -->
<g id="edge14" class="edge">
<title>22973447-&gt;51957125</title>
<path fill="none" stroke="#000000" d="M462.2712,-211.2337C430.0609,-202.2353 378.6846,-187.8825 343.0766,-177.9349"/>
<polygon fill="#000000" stroke="#000000" points="343.5993,-174.4469 333.0263,-175.1272 341.7158,-181.1888 343.5993,-174.4469"/>
</g>
<!-- 25897419 -->
<g id="node18" class="node">
<title>25897419</title>
<text text-anchor="middle" x="391.2188" y="-162.6" font-family="Times,serif" font-size="14.00" fill="#000000">type_name</text>
</g>
<!-- 22973447&#45;&gt;25897419 -->
<g id="edge17" class="edge">
<title>22973447-&gt;25897419</title>
<path fill="none" stroke="#000000" d="M475.9914,-211.1168C459.9414,-202.7263 435.1463,-189.7641 416.5107,-180.0219"/>
<polygon fill="#000000" stroke="#000000" points="417.8895,-176.7934 407.4059,-175.2622 414.6465,-182.9968 417.8895,-176.7934"/>
</g>
<!-- 4060827 -->
<g id="node22" class="node">
<title>4060827</title>
<text text-anchor="middle" x="492.2188" y="-162.6" font-family="Times,serif" font-size="14.00" fill="#000000">column_constraint</text>
</g>
<!-- 22973447&#45;&gt;4060827 -->
<g id="edge21" class="edge">
<title>22973447-&gt;4060827</title>
<path fill="none" stroke="#000000" d="M492.2188,-210.8812C492.2188,-203.9613 492.2188,-194.042 492.2188,-185.3645"/>
<polygon fill="#000000" stroke="#000000" points="495.7189,-185.3566 492.2188,-175.3566 488.7189,-185.3566 495.7189,-185.3566"/>
</g>
<!-- 62871192 -->
<g id="node16" class="node">
<title>62871192</title>
<text text-anchor="middle" x="303.2188" y="-109.8" font-family="Times,serif" font-size="14.00" fill="#000000">any_name</text>
</g>
<!-- 51957125&#45;&gt;62871192 -->
<g id="edge15" class="edge">
<title>51957125-&gt;62871192</title>
<path fill="none" stroke="#000000" d="M303.2188,-158.0812C303.2188,-151.1613 303.2188,-141.242 303.2188,-132.5645"/>
<polygon fill="#000000" stroke="#000000" points="306.7189,-132.5566 303.2188,-122.5566 299.7189,-132.5566 306.7189,-132.5566"/>
</g>
<!-- 60789539 -->
<g id="node17" class="node">
<title>60789539</title>
<text text-anchor="middle" x="290.2188" y="-57" font-family="Times,serif" font-size="14.00" fill="#000000">IDENTIFIER:id</text>
</g>
<!-- 62871192&#45;&gt;60789539 -->
<g id="edge16" class="edge">
<title>62871192-&gt;60789539</title>
<path fill="none" stroke="#000000" d="M301.0721,-105.2812C299.3494,-98.2844 296.8717,-88.2212 294.7185,-79.4758"/>
<polygon fill="#000000" stroke="#000000" points="298.1148,-78.6298 292.3255,-69.7566 291.3178,-80.3034 298.1148,-78.6298"/>
</g>
<!-- 61014004 -->
<g id="node19" class="node">
<title>61014004</title>
<text text-anchor="middle" x="383.2188" y="-109.8" font-family="Times,serif" font-size="14.00" fill="#000000">name</text>
</g>
<!-- 25897419&#45;&gt;61014004 -->
<g id="edge18" class="edge">
<title>25897419-&gt;61014004</title>
<path fill="none" stroke="#000000" d="M389.8978,-158.0812C388.8493,-151.1613 387.3464,-141.242 386.0316,-132.5645"/>
<polygon fill="#000000" stroke="#000000" points="389.4739,-131.9194 384.5153,-122.5566 382.5529,-132.9681 389.4739,-131.9194"/>
</g>
<!-- 36896193 -->
<g id="node20" class="node">
<title>36896193</title>
<text text-anchor="middle" x="383.2188" y="-57" font-family="Times,serif" font-size="14.00" fill="#000000">any_name</text>
</g>
<!-- 61014004&#45;&gt;36896193 -->
<g id="edge19" class="edge">
<title>61014004-&gt;36896193</title>
<path fill="none" stroke="#000000" d="M383.2188,-105.2812C383.2188,-98.3613 383.2188,-88.442 383.2188,-79.7645"/>
<polygon fill="#000000" stroke="#000000" points="386.7189,-79.7566 383.2188,-69.7566 379.7189,-79.7566 386.7189,-79.7566"/>
</g>
<!-- 63083032 -->
<g id="node21" class="node">
<title>63083032</title>
<text text-anchor="middle" x="383.2188" y="-4.2" font-family="Times,serif" font-size="14.00" fill="#000000">IDENTIFIER:int</text>
</g>
<!-- 36896193&#45;&gt;63083032 -->
<g id="edge20" class="edge">
<title>36896193-&gt;63083032</title>
<path fill="none" stroke="#000000" d="M383.2188,-52.4812C383.2188,-45.5613 383.2188,-35.642 383.2188,-26.9645"/>
<polygon fill="#000000" stroke="#000000" points="386.7189,-26.9566 383.2188,-16.9566 379.7189,-26.9566 386.7189,-26.9566"/>
</g>
<!-- 64762798 -->
<g id="node23" class="node">
<title>64762798</title>
<text text-anchor="middle" x="448.2188" y="-109.8" font-family="Times,serif" font-size="14.00" fill="#000000">DEFAULT</text>
</g>
<!-- 4060827&#45;&gt;64762798 -->
<g id="edge22" class="edge">
<title>4060827-&gt;64762798</title>
<path fill="none" stroke="#000000" d="M484.9531,-158.0812C478.674,-150.5462 469.4312,-139.4548 461.788,-130.283"/>
<polygon fill="#000000" stroke="#000000" points="464.44,-127.9982 455.3493,-122.5566 459.0624,-132.4795 464.44,-127.9982"/>
</g>
<!-- 19260535 -->
<g id="node24" class="node">
<title>19260535</title>
<text text-anchor="middle" x="541.2188" y="-109.8" font-family="Times,serif" font-size="14.00" fill="#000000">signed_number</text>
</g>
<!-- 4060827&#45;&gt;19260535 -->
<g id="edge23" class="edge">
<title>4060827-&gt;19260535</title>
<path fill="none" stroke="#000000" d="M500.3102,-158.0812C507.3742,-150.4693 517.8064,-139.2281 526.3677,-130.0028"/>
<polygon fill="#000000" stroke="#000000" points="529.0411,-132.2674 533.278,-122.5566 523.9101,-127.5057 529.0411,-132.2674"/>
</g>
<!-- 4242136 -->
<g id="node25" class="node">
<title>4242136</title>
<text text-anchor="middle" x="500.2188" y="-57" font-family="Times,serif" font-size="14.00" fill="#000000">NUMERIC_LITERAL:1</text>
</g>
<!-- 19260535&#45;&gt;4242136 -->
<g id="edge24" class="edge">
<title>19260535-&gt;4242136</title>
<path fill="none" stroke="#000000" d="M534.4485,-105.2812C528.6572,-97.8231 520.1603,-86.8808 513.0813,-77.7644"/>
<polygon fill="#000000" stroke="#000000" points="515.7608,-75.5084 506.8631,-69.7566 510.2319,-79.8016 515.7608,-75.5084"/>
</g>
<!-- 61619128 -->
<g id="node28" class="node">
<title>61619128</title>
<text text-anchor="middle" x="602.2188" y="-162.6" font-family="Times,serif" font-size="14.00" fill="#000000">column_name</text>
</g>
<!-- 51931573&#45;&gt;61619128 -->
<g id="edge27" class="edge">
<title>51931573-&gt;61619128</title>
<path fill="none" stroke="#000000" d="M647.3018,-210.8812C639.4383,-203.1924 627.7876,-191.8006 618.3001,-182.5239"/>
<polygon fill="#000000" stroke="#000000" points="620.5669,-179.8453 610.9699,-175.3566 615.673,-184.8503 620.5669,-179.8453"/>
</g>
<!-- 60973831 -->
<g id="node31" class="node">
<title>60973831</title>
<text text-anchor="middle" x="690.2188" y="-162.6" font-family="Times,serif" font-size="14.00" fill="#000000">type_name</text>
</g>
<!-- 51931573&#45;&gt;60973831 -->
<g id="edge30" class="edge">
<title>51931573-&gt;60973831</title>
<path fill="none" stroke="#000000" d="M661.8332,-210.8812C666.5367,-203.5769 673.3923,-192.9306 679.1878,-183.9305"/>
<polygon fill="#000000" stroke="#000000" points="682.2375,-185.6592 684.7089,-175.3566 676.3521,-181.8693 682.2375,-185.6592"/>
</g>
<!-- 4956326 -->
<g id="node35" class="node">
<title>4956326</title>
<text text-anchor="middle" x="791.2188" y="-162.6" font-family="Times,serif" font-size="14.00" fill="#000000">column_constraint</text>
</g>
<!-- 51931573&#45;&gt;4956326 -->
<g id="edge34" class="edge">
<title>51931573-&gt;4956326</title>
<path fill="none" stroke="#000000" d="M677.61,-211.2337C699.9261,-202.5056 735.122,-188.7401 760.4268,-178.8431"/>
<polygon fill="#000000" stroke="#000000" points="761.8896,-182.0292 769.9277,-175.1272 759.3398,-175.5101 761.8896,-182.0292"/>
</g>
<!-- 66547301 -->
<g id="node29" class="node">
<title>66547301</title>
<text text-anchor="middle" x="638.2188" y="-109.8" font-family="Times,serif" font-size="14.00" fill="#000000">any_name</text>
</g>
<!-- 61619128&#45;&gt;66547301 -->
<g id="edge28" class="edge">
<title>61619128-&gt;66547301</title>
<path fill="none" stroke="#000000" d="M608.1635,-158.0812C613.1961,-150.7 620.5556,-139.906 626.7323,-130.8469"/>
<polygon fill="#000000" stroke="#000000" points="629.6431,-132.7906 632.3847,-122.5566 623.8595,-128.8472 629.6431,-132.7906"/>
</g>
<!-- 39592286 -->
<g id="node30" class="node">
<title>39592286</title>
<text text-anchor="middle" x="644.2188" y="-57" font-family="Times,serif" font-size="14.00" fill="#000000">IDENTIFIER:name</text>
</g>
<!-- 66547301&#45;&gt;39592286 -->
<g id="edge29" class="edge">
<title>66547301-&gt;39592286</title>
<path fill="none" stroke="#000000" d="M639.2096,-105.2812C639.9959,-98.3613 641.1231,-88.442 642.1092,-79.7645"/>
<polygon fill="#000000" stroke="#000000" points="645.5949,-80.0879 643.2465,-69.7566 638.6397,-79.2974 645.5949,-80.0879"/>
</g>
<!-- 34927750 -->
<g id="node32" class="node">
<title>34927750</title>
<text text-anchor="middle" x="713.2188" y="-109.8" font-family="Times,serif" font-size="14.00" fill="#000000">name</text>
</g>
<!-- 60973831&#45;&gt;34927750 -->
<g id="edge31" class="edge">
<title>60973831-&gt;34927750</title>
<path fill="none" stroke="#000000" d="M694.0168,-158.0812C697.0981,-151.0075 701.5447,-140.7996 705.3831,-131.9879"/>
<polygon fill="#000000" stroke="#000000" points="708.7066,-133.1223 709.4915,-122.5566 702.289,-130.3268 708.7066,-133.1223"/>
</g>
<!-- 33738173 -->
<g id="node33" class="node">
<title>33738173</title>
<text text-anchor="middle" x="746.2188" y="-57" font-family="Times,serif" font-size="14.00" fill="#000000">any_name</text>
</g>
<!-- 34927750&#45;&gt;33738173 -->
<g id="edge32" class="edge">
<title>34927750-&gt;33738173</title>
<path fill="none" stroke="#000000" d="M718.6681,-105.2812C723.2333,-97.9769 729.8872,-87.3306 735.5122,-78.3305"/>
<polygon fill="#000000" stroke="#000000" points="738.5389,-80.0916 740.8709,-69.7566 732.6029,-76.3816 738.5389,-80.0916"/>
</g>
<!-- 42557777 -->
<g id="node34" class="node">
<title>42557777</title>
<text text-anchor="middle" x="746.2188" y="-4.2" font-family="Times,serif" font-size="14.00" fill="#000000">IDENTIFIER:TEXT</text>
</g>
<!-- 33738173&#45;&gt;42557777 -->
<g id="edge33" class="edge">
<title>33738173-&gt;42557777</title>
<path fill="none" stroke="#000000" d="M746.2188,-52.4812C746.2188,-45.5613 746.2188,-35.642 746.2188,-26.9645"/>
<polygon fill="#000000" stroke="#000000" points="749.7189,-26.9566 746.2188,-16.9566 742.7189,-26.9566 749.7189,-26.9566"/>
</g>
<!-- 41533408 -->
<g id="node36" class="node">
<title>41533408</title>
<text text-anchor="middle" x="773.2188" y="-109.8" font-family="Times,serif" font-size="14.00" fill="#000000">NOT</text>
</g>
<!-- 4956326&#45;&gt;41533408 -->
<g id="edge35" class="edge">
<title>4956326-&gt;41533408</title>
<path fill="none" stroke="#000000" d="M788.2465,-158.0812C785.8612,-151.0844 782.4306,-141.0212 779.4492,-132.2758"/>
<polygon fill="#000000" stroke="#000000" points="782.6754,-130.8923 776.1358,-122.5566 776.0498,-133.1511 782.6754,-130.8923"/>
</g>
<!-- 21871074 -->
<g id="node37" class="node">
<title>21871074</title>
<text text-anchor="middle" x="824.2188" y="-109.8" font-family="Times,serif" font-size="14.00" fill="#000000">NULL</text>
</g>
<!-- 4956326&#45;&gt;21871074 -->
<g id="edge36" class="edge">
<title>4956326-&gt;21871074</title>
<path fill="none" stroke="#000000" d="M796.6681,-158.0812C801.2333,-150.7769 807.8872,-140.1306 813.5122,-131.1305"/>
<polygon fill="#000000" stroke="#000000" points="816.5389,-132.8916 818.8709,-122.5566 810.6029,-129.1816 816.5389,-132.8916"/>
</g>
<!-- 21958341 -->
<g id="node40" class="node">
<title>21958341</title>
<text text-anchor="middle" x="901.2188" y="-162.6" font-family="Times,serif" font-size="14.00" fill="#000000">column_name</text>
</g>
<!-- 33317777&#45;&gt;21958341 -->
<g id="edge39" class="edge">
<title>33317777-&gt;21958341</title>
<path fill="none" stroke="#000000" d="M937.9531,-210.8812C931.674,-203.3462 922.4312,-192.2548 914.788,-183.083"/>
<polygon fill="#000000" stroke="#000000" points="917.44,-180.7982 908.3493,-175.3566 912.0624,-185.2795 917.44,-180.7982"/>
</g>
<!-- 21212359 -->
<g id="node43" class="node">
<title>21212359</title>
<text text-anchor="middle" x="989.2188" y="-162.6" font-family="Times,serif" font-size="14.00" fill="#000000">type_name</text>
</g>
<!-- 33317777&#45;&gt;21212359 -->
<g id="edge42" class="edge">
<title>33317777-&gt;21212359</title>
<path fill="none" stroke="#000000" d="M952.4845,-210.8812C958.7636,-203.3462 968.0064,-192.2548 975.6496,-183.083"/>
<polygon fill="#000000" stroke="#000000" points="978.3752,-185.2795 982.0883,-175.3566 972.9976,-180.7982 978.3752,-185.2795"/>
</g>
<!-- 65486154 -->
<g id="node47" class="node">
<title>65486154</title>
<text text-anchor="middle" x="1090.2188" y="-162.6" font-family="Times,serif" font-size="14.00" fill="#000000">column_constraint</text>
</g>
<!-- 33317777&#45;&gt;65486154 -->
<g id="edge46" class="edge">
<title>33317777-&gt;65486154</title>
<path fill="none" stroke="#000000" d="M968.1945,-211.2337C992.3758,-202.4284 1030.6369,-188.496 1057.8649,-178.5813"/>
<polygon fill="#000000" stroke="#000000" points="1059.1518,-181.8376 1067.3506,-175.1272 1056.7566,-175.2601 1059.1518,-181.8376"/>
</g>
<!-- 14535064 -->
<g id="node50" class="node">
<title>14535064</title>
<text text-anchor="middle" x="1212.2188" y="-162.6" font-family="Times,serif" font-size="14.00" fill="#000000">column_constraint</text>
</g>
<!-- 33317777&#45;&gt;14535064 -->
<g id="edge49" class="edge">
<title>33317777-&gt;14535064</title>
<path fill="none" stroke="#000000" d="M978.6879,-212.8981C981.5731,-212.3228 984.4473,-211.7506 987.2188,-211.2 1046.3987,-199.4429 1114.3565,-186.0471 1159.9632,-177.0724"/>
<polygon fill="#000000" stroke="#000000" points="1160.7777,-180.4793 1169.9139,-175.1146 1159.4263,-173.611 1160.7777,-180.4793"/>
</g>
<!-- 2216914 -->
<g id="node41" class="node">
<title>2216914</title>
<text text-anchor="middle" x="895.2188" y="-109.8" font-family="Times,serif" font-size="14.00" fill="#000000">any_name</text>
</g>
<!-- 21958341&#45;&gt;2216914 -->
<g id="edge40" class="edge">
<title>21958341-&gt;2216914</title>
<path fill="none" stroke="#000000" d="M900.228,-158.0812C899.4417,-151.1613 898.3145,-141.242 897.3284,-132.5645"/>
<polygon fill="#000000" stroke="#000000" points="900.7979,-132.0974 896.1911,-122.5566 893.8427,-132.8879 900.7979,-132.0974"/>
</g>
<!-- 41519964 -->
<g id="node42" class="node">
<title>41519964</title>
<text text-anchor="middle" x="892.2188" y="-57" font-family="Times,serif" font-size="14.00" fill="#000000">IDENTIFIER:state</text>
</g>
<!-- 2216914&#45;&gt;41519964 -->
<g id="edge41" class="edge">
<title>2216914-&gt;41519964</title>
<path fill="none" stroke="#000000" d="M894.7234,-105.2812C894.3302,-98.3613 893.7666,-88.442 893.2736,-79.7645"/>
<polygon fill="#000000" stroke="#000000" points="896.7667,-79.5419 892.705,-69.7566 889.778,-79.9391 896.7667,-79.5419"/>
</g>
<!-- 32772663 -->
<g id="node44" class="node">
<title>32772663</title>
<text text-anchor="middle" x="990.2188" y="-109.8" font-family="Times,serif" font-size="14.00" fill="#000000">name</text>
</g>
<!-- 21212359&#45;&gt;32772663 -->
<g id="edge43" class="edge">
<title>21212359-&gt;32772663</title>
<path fill="none" stroke="#000000" d="M989.3839,-158.0812C989.515,-151.1613 989.7029,-141.242 989.8672,-132.5645"/>
<polygon fill="#000000" stroke="#000000" points="993.3667,-132.6211 990.0567,-122.5566 986.3679,-132.4885 993.3667,-132.6211"/>
</g>
<!-- 62356623 -->
<g id="node45" class="node">
<title>62356623</title>
<text text-anchor="middle" x="992.2188" y="-57" font-family="Times,serif" font-size="14.00" fill="#000000">any_name</text>
</g>
<!-- 32772663&#45;&gt;62356623 -->
<g id="edge44" class="edge">
<title>32772663-&gt;62356623</title>
<path fill="none" stroke="#000000" d="M990.5491,-105.2812C990.8112,-98.3613 991.1869,-88.442 991.5156,-79.7645"/>
<polygon fill="#000000" stroke="#000000" points="995.0136,-79.882 991.8947,-69.7566 988.0186,-79.6169 995.0136,-79.882"/>
</g>
<!-- 35575668 -->
<g id="node46" class="node">
<title>35575668</title>
<text text-anchor="middle" x="992.2188" y="-4.2" font-family="Times,serif" font-size="14.00" fill="#000000">IDENTIFIER:boolean</text>
</g>
<!-- 62356623&#45;&gt;35575668 -->
<g id="edge45" class="edge">
<title>62356623-&gt;35575668</title>
<path fill="none" stroke="#000000" d="M992.2188,-52.4812C992.2188,-45.5613 992.2188,-35.642 992.2188,-26.9645"/>
<polygon fill="#000000" stroke="#000000" points="995.7189,-26.9566 992.2188,-16.9566 988.7189,-26.9566 995.7189,-26.9566"/>
</g>
<!-- 54704948 -->
<g id="node48" class="node">
<title>54704948</title>
<text text-anchor="middle" x="1052.2188" y="-109.8" font-family="Times,serif" font-size="14.00" fill="#000000">NOT</text>
</g>
<!-- 65486154&#45;&gt;54704948 -->
<g id="edge47" class="edge">
<title>65486154-&gt;54704948</title>
<path fill="none" stroke="#000000" d="M1083.9439,-158.0812C1078.6317,-150.7 1070.8633,-139.906 1064.3434,-130.8469"/>
<polygon fill="#000000" stroke="#000000" points="1067.0592,-128.6286 1058.377,-122.5566 1061.3776,-132.7177 1067.0592,-128.6286"/>
</g>
<!-- 63296792 -->
<g id="node49" class="node">
<title>63296792</title>
<text text-anchor="middle" x="1103.2188" y="-109.8" font-family="Times,serif" font-size="14.00" fill="#000000">NULL</text>
</g>
<!-- 65486154&#45;&gt;63296792 -->
<g id="edge48" class="edge">
<title>65486154-&gt;63296792</title>
<path fill="none" stroke="#000000" d="M1092.3655,-158.0812C1094.0882,-151.0844 1096.5659,-141.0212 1098.7191,-132.2758"/>
<polygon fill="#000000" stroke="#000000" points="1102.1198,-133.1034 1101.1121,-122.5566 1095.3228,-131.4298 1102.1198,-133.1034"/>
</g>
<!-- 41129496 -->
<g id="node51" class="node">
<title>41129496</title>
<text text-anchor="middle" x="1198.2188" y="-109.8" font-family="Times,serif" font-size="14.00" fill="#000000">DEFAULT</text>
</g>
<!-- 14535064&#45;&gt;41129496 -->
<g id="edge50" class="edge">
<title>14535064-&gt;41129496</title>
<path fill="none" stroke="#000000" d="M1209.907,-158.0812C1208.0518,-151.0844 1205.3835,-141.0212 1203.0646,-132.2758"/>
<polygon fill="#000000" stroke="#000000" points="1206.4337,-131.3255 1200.4876,-122.5566 1199.6675,-133.1197 1206.4337,-131.3255"/>
</g>
<!-- 2079422 -->
<g id="node52" class="node">
<title>2079422</title>
<text text-anchor="middle" x="1283.2188" y="-109.8" font-family="Times,serif" font-size="14.00" fill="#000000">literal_value</text>
</g>
<!-- 14535064&#45;&gt;2079422 -->
<g id="edge51" class="edge">
<title>14535064-&gt;2079422</title>
<path fill="none" stroke="#000000" d="M1223.6262,-158.3168C1234.3276,-150.3585 1250.5595,-138.2875 1263.3816,-128.7522"/>
<polygon fill="#000000" stroke="#000000" points="1265.6681,-131.4136 1271.6039,-122.6376 1261.4909,-125.7965 1265.6681,-131.4136"/>
</g>
<!-- 34782828 -->
<g id="node53" class="node">
<title>34782828</title>
<text text-anchor="middle" x="1283.2188" y="-57" font-family="Times,serif" font-size="14.00" fill="#000000">TRUE:true</text>
</g>
<!-- 2079422&#45;&gt;34782828 -->
<g id="edge52" class="edge">
<title>2079422-&gt;34782828</title>
<path fill="none" stroke="#000000" d="M1283.2188,-105.2812C1283.2188,-98.3613 1283.2188,-88.442 1283.2188,-79.7645"/>
<polygon fill="#000000" stroke="#000000" points="1286.7189,-79.7566 1283.2188,-69.7566 1279.7189,-79.7566 1286.7189,-79.7566"/>
</g>
</g>
</svg>