<?xml version="1.0" encoding="UTF-8" standalone="no"?><!DOCTYPE svg PUBLIC "-//W3C//DTD SVG 1.1//EN" "http://www.w3.org/Graphics/SVG/1.1/DTD/svg11.dtd"><!-- Generated by graphviz version 2.40.1 (20161225.0304)
 --><!-- Title: G Pages: 1 --><svg xmlns="http://www.w3.org/2000/svg" xmlns:xlink="http://www.w3.org/1999/xlink" width="454pt" height="447pt" viewBox="0.00 0.00 453.98 447.20">
<g id="graph0" class="graph" transform="scale(1 1) rotate(0) translate(4 443.2)">
<title>G</title>
<polygon fill="#ffffff" stroke="transparent" points="-4,4 -4,-443.2 449.9811,-443.2 449.9811,4 -4,4"/>
<!-- 35578258 -->
<g id="node1" class="node">
<title>35578258</title>
<text text-anchor="middle" x="265.4348" y="-426.6" font-family="Times,serif" font-size="14.00" fill="#000000">parse</text>
</g>
<!-- 30885412 -->
<g id="node2" class="node">
<title>30885412</title>
<text text-anchor="middle" x="220.4348" y="-373.8" font-family="Times,serif" font-size="14.00" fill="#000000">sql_stmt_list</text>
</g>
<!-- 35578258&#45;&gt;30885412 -->
<g id="edge1" class="edge">
<title>35578258-&gt;30885412</title>
<path fill="none" stroke="#000000" d="M258.004,-422.0812C251.5821,-414.5462 242.1292,-403.4548 234.3123,-394.283"/>
<polygon fill="#000000" stroke="#000000" points="236.8777,-391.8972 227.7274,-386.5566 231.5501,-396.4378 236.8777,-391.8972"/>
</g>
<!-- 58372062 -->
<g id="node22" class="node">
<title>58372062</title>
<text text-anchor="middle" x="310.4348" y="-373.8" font-family="Times,serif" font-size="14.00" fill="#000000">EOF:&lt;EOF&gt;</text>
</g>
<!-- 35578258&#45;&gt;58372062 -->
<g id="edge21" class="edge">
<title>35578258-&gt;58372062</title>
<path fill="none" stroke="#000000" d="M272.8656,-422.0812C279.2875,-414.5462 288.7404,-403.4548 296.5573,-394.283"/>
<polygon fill="#000000" stroke="#000000" points="299.3195,-396.4378 303.1422,-386.5566 293.9919,-391.8972 299.3195,-396.4378"/>
</g>
<!-- 61394743 -->
<g id="node3" class="node">
<title>61394743</title>
<text text-anchor="middle" x="188.4348" y="-321" font-family="Times,serif" font-size="14.00" fill="#000000">sql_stmt</text>
</g>
<!-- 30885412&#45;&gt;61394743 -->
<g id="edge2" class="edge">
<title>30885412-&gt;61394743</title>
<path fill="none" stroke="#000000" d="M215.1507,-369.2812C210.7238,-361.9769 204.2715,-351.3306 198.8169,-342.3305"/>
<polygon fill="#000000" stroke="#000000" points="201.7969,-340.4945 193.6206,-333.7566 195.8105,-344.1227 201.7969,-340.4945"/>
</g>
<!-- 15352248 -->
<g id="node21" class="node">
<title>15352248</title>
<text text-anchor="middle" x="252.4348" y="-321" font-family="Times,serif" font-size="14.00" fill="#000000">SCOL:;</text>
</g>
<!-- 30885412&#45;&gt;15352248 -->
<g id="edge20" class="edge">
<title>30885412-&gt;15352248</title>
<path fill="none" stroke="#000000" d="M225.7189,-369.2812C230.1458,-361.9769 236.5981,-351.3306 242.0527,-342.3305"/>
<polygon fill="#000000" stroke="#000000" points="245.0591,-344.1227 247.249,-333.7566 239.0727,-340.4945 245.0591,-344.1227"/>
</g>
<!-- 31235339 -->
<g id="node4" class="node">
<title>31235339</title>
<text text-anchor="middle" x="188.4348" y="-268.2" font-family="Times,serif" font-size="14.00" fill="#000000">delete_stmt</text>
</g>
<!-- 61394743&#45;&gt;31235339 -->
<g id="edge3" class="edge">
<title>61394743-&gt;31235339</title>
<path fill="none" stroke="#000000" d="M188.4348,-316.4812C188.4348,-309.5613 188.4348,-299.642 188.4348,-290.9645"/>
<polygon fill="#000000" stroke="#000000" points="191.9349,-290.9566 188.4348,-280.9566 184.9349,-290.9566 191.9349,-290.9566"/>
</g>
<!-- 17031136 -->
<g id="node5" class="node">
<title>17031136</title>
<text text-anchor="middle" x="26.4348" y="-215.4" font-family="Times,serif" font-size="14.00" fill="#000000">DELETE</text>
</g>
<!-- 31235339&#45;&gt;17031136 -->
<g id="edge4" class="edge">
<title>31235339-&gt;17031136</title>
<path fill="none" stroke="#000000" d="M162.7654,-264.0337C135.5121,-255.1511 92.2511,-241.0512 61.7842,-231.1213"/>
<polygon fill="#000000" stroke="#000000" points="62.5765,-227.6983 51.9841,-227.9272 60.4072,-234.3538 62.5765,-227.6983"/>
</g>
<!-- 33282038 -->
<g id="node6" class="node">
<title>33282038</title>
<text text-anchor="middle" x="90.4348" y="-215.4" font-family="Times,serif" font-size="14.00" fill="#000000">FROM</text>
</g>
<!-- 31235339&#45;&gt;33282038 -->
<g id="edge5" class="edge">
<title>31235339-&gt;33282038</title>
<path fill="none" stroke="#000000" d="M172.6894,-263.9168C157.1161,-255.5263 133.0575,-242.5641 114.9755,-232.8219"/>
<polygon fill="#000000" stroke="#000000" points="116.6048,-229.7241 106.1411,-228.0622 113.2846,-235.8866 116.6048,-229.7241"/>
</g>
<!-- 15848845 -->
<g id="node7" class="node">
<title>15848845</title>
<text text-anchor="middle" x="188.4348" y="-215.4" font-family="Times,serif" font-size="14.00" fill="#000000">qualified_table_name</text>
</g>
<!-- 31235339&#45;&gt;15848845 -->
<g id="edge6" class="edge">
<title>31235339-&gt;15848845</title>
<path fill="none" stroke="#000000" d="M188.4348,-263.6812C188.4348,-256.7613 188.4348,-246.842 188.4348,-238.1645"/>
<polygon fill="#000000" stroke="#000000" points="191.9349,-238.1566 188.4348,-228.1566 184.9349,-238.1566 191.9349,-238.1566"/>
</g>
<!-- 17987571 -->
<g id="node11" class="node">
<title>17987571</title>
<text text-anchor="middle" x="292.4348" y="-215.4" font-family="Times,serif" font-size="14.00" fill="#000000">WHERE</text>
</g>
<!-- 31235339&#45;&gt;17987571 -->
<g id="edge10" class="edge">
<title>31235339-&gt;17987571</title>
<path fill="none" stroke="#000000" d="M205.1442,-263.9168C221.7467,-255.4878 247.4369,-242.4451 266.6553,-232.6881"/>
<polygon fill="#000000" stroke="#000000" points="268.4346,-235.71 275.7669,-228.0622 265.2657,-229.4683 268.4346,-235.71"/>
</g>
<!-- 28341455 -->
<g id="node12" class="node">
<title>28341455</title>
<text text-anchor="middle" x="347.4348" y="-215.4" font-family="Times,serif" font-size="14.00" fill="#000000">expr</text>
</g>
<!-- 31235339&#45;&gt;28341455 -->
<g id="edge11" class="edge">
<title>31235339-&gt;28341455</title>
<path fill="none" stroke="#000000" d="M216.3797,-264.0311C242.4785,-256.0795 282.6922,-243.4834 325.5743,-228.1392"/>
<polygon fill="#000000" stroke="#000000" points="326.8348,-231.4054 335.0524,-224.7179 324.458,-224.8212 326.8348,-231.4054"/>
</g>
<!-- 23541989 -->
<g id="node8" class="node">
<title>23541989</title>
<text text-anchor="middle" x="188.4348" y="-162.6" font-family="Times,serif" font-size="14.00" fill="#000000">table_name</text>
</g>
<!-- 15848845&#45;&gt;23541989 -->
<g id="edge7" class="edge">
<title>15848845-&gt;23541989</title>
<path fill="none" stroke="#000000" d="M188.4348,-210.8812C188.4348,-203.9613 188.4348,-194.042 188.4348,-185.3645"/>
<polygon fill="#000000" stroke="#000000" points="191.9349,-185.3566 188.4348,-175.3566 184.9349,-185.3566 191.9349,-185.3566"/>
</g>
<!-- 53834302 -->
<g id="node9" class="node">
<title>53834302</title>
<text text-anchor="middle" x="186.4348" y="-109.8" font-family="Times,serif" font-size="14.00" fill="#000000">any_name</text>
</g>
<!-- 23541989&#45;&gt;53834302 -->
<g id="edge8" class="edge">
<title>23541989-&gt;53834302</title>
<path fill="none" stroke="#000000" d="M188.1045,-158.0812C187.8424,-151.1613 187.4667,-141.242 187.138,-132.5645"/>
<polygon fill="#000000" stroke="#000000" points="190.635,-132.4169 186.7589,-122.5566 183.64,-132.682 190.635,-132.4169"/>
</g>
<!-- 9568728 -->
<g id="node10" class="node">
<title>9568728</title>
<text text-anchor="middle" x="183.4348" y="-57" font-family="Times,serif" font-size="14.00" fill="#000000">IDENTIFIER:table1</text>
</g>
<!-- 53834302&#45;&gt;9568728 -->
<g id="edge9" class="edge">
<title>53834302-&gt;9568728</title>
<path fill="none" stroke="#000000" d="M185.9394,-105.2812C185.5462,-98.3613 184.9826,-88.442 184.4896,-79.7645"/>
<polygon fill="#000000" stroke="#000000" points="187.9827,-79.5419 183.921,-69.7566 180.994,-79.9391 187.9827,-79.5419"/>
</g>
<!-- 30255276 -->
<g id="node13" class="node">
<title>30255276</title>
<text text-anchor="middle" x="285.4348" y="-162.6" font-family="Times,serif" font-size="14.00" fill="#000000">expr</text>
</g>
<!-- 28341455&#45;&gt;30255276 -->
<g id="edge12" class="edge">
<title>28341455-&gt;30255276</title>
<path fill="none" stroke="#000000" d="M337.4734,-211.1168C328.3082,-203.3116 314.4976,-191.5503 303.4066,-182.105"/>
<polygon fill="#000000" stroke="#000000" points="305.4601,-179.2566 295.5774,-175.4376 300.9215,-184.5859 305.4601,-179.2566"/>
</g>
<!-- 32936746 -->
<g id="node17" class="node">
<title>32936746</title>
<text text-anchor="middle" x="347.4348" y="-162.6" font-family="Times,serif" font-size="14.00" fill="#000000">ASSIGN:=</text>
</g>
<!-- 28341455&#45;&gt;32936746 -->
<g id="edge16" class="edge">
<title>28341455-&gt;32936746</title>
<path fill="none" stroke="#000000" d="M347.4348,-210.8812C347.4348,-203.9613 347.4348,-194.042 347.4348,-185.3645"/>
<polygon fill="#000000" stroke="#000000" points="350.9349,-185.3566 347.4348,-175.3566 343.9349,-185.3566 350.9349,-185.3566"/>
</g>
<!-- 60513740 -->
<g id="node18" class="node">
<title>60513740</title>
<text text-anchor="middle" x="409.4348" y="-162.6" font-family="Times,serif" font-size="14.00" fill="#000000">expr</text>
</g>
<!-- 28341455&#45;&gt;60513740 -->
<g id="edge17" class="edge">
<title>28341455-&gt;60513740</title>
<path fill="none" stroke="#000000" d="M357.3962,-211.1168C366.5614,-203.3116 380.372,-191.5503 391.463,-182.105"/>
<polygon fill="#000000" stroke="#000000" points="393.9481,-184.5859 399.2922,-175.4376 389.4095,-179.2566 393.9481,-184.5859"/>
</g>
<!-- 20435914 -->
<g id="node14" class="node">
<title>20435914</title>
<text text-anchor="middle" x="286.4348" y="-109.8" font-family="Times,serif" font-size="14.00" fill="#000000">column_name</text>
</g>
<!-- 30255276&#45;&gt;20435914 -->
<g id="edge13" class="edge">
<title>30255276-&gt;20435914</title>
<path fill="none" stroke="#000000" d="M285.5999,-158.0812C285.731,-151.1613 285.9189,-141.242 286.0832,-132.5645"/>
<polygon fill="#000000" stroke="#000000" points="289.5827,-132.6211 286.2727,-122.5566 282.5839,-132.4885 289.5827,-132.6211"/>
</g>
<!-- 53266025 -->
<g id="node15" class="node">
<title>53266025</title>
<text text-anchor="middle" x="287.4348" y="-57" font-family="Times,serif" font-size="14.00" fill="#000000">any_name</text>
</g>
<!-- 20435914&#45;&gt;53266025 -->
<g id="edge14" class="edge">
<title>20435914-&gt;53266025</title>
<path fill="none" stroke="#000000" d="M286.5999,-105.2812C286.731,-98.3613 286.9189,-88.442 287.0832,-79.7645"/>
<polygon fill="#000000" stroke="#000000" points="290.5827,-79.8211 287.2727,-69.7566 283.5839,-79.6885 290.5827,-79.8211"/>
</g>
<!-- 39739593 -->
<g id="node16" class="node">
<title>39739593</title>
<text text-anchor="middle" x="287.4348" y="-4.2" font-family="Times,serif" font-size="14.00" fill="#000000">IDENTIFIER:state</text>
</g>
<!-- 53266025&#45;&gt;39739593 -->
<g id="edge15" class="edge">
<title>53266025-&gt;39739593</title>
<path fill="none" stroke="#000000" d="M287.4348,-52.4812C287.4348,-45.5613 287.4348,-35.642 287.4348,-26.9645"/>
<polygon fill="#000000" stroke="#000000" points="290.9349,-26.9566 287.4348,-16.9566 283.9349,-26.9566 290.9349,-26.9566"/>
</g>
<!-- 41079023 -->
<g id="node19" class="node">
<title>41079023</title>
<text text-anchor="middle" x="409.4348" y="-109.8" font-family="Times,serif" font-size="14.00" fill="#000000">literal_value</text>
</g>
<!-- 60513740&#45;&gt;41079023 -->
<g id="edge18" class="edge">
<title>60513740-&gt;41079023</title>
<path fill="none" stroke="#000000" d="M409.4348,-158.0812C409.4348,-151.1613 409.4348,-141.242 409.4348,-132.5645"/>
<polygon fill="#000000" stroke="#000000" points="412.9349,-132.5566 409.4348,-122.5566 405.9349,-132.5566 412.9349,-132.5566"/>
</g>
<!-- 52890835 -->
<g id="node20" class="node">
<title>52890835</title>
<text text-anchor="middle" x="409.4348" y="-57" font-family="Times,serif" font-size="14.00" fill="#000000">FALSE:false</text>
</g>
<!-- 41079023&#45;&gt;52890835 -->
<g id="edge19" class="edge">
<title>41079023-&gt;52890835</title>
<path fill="none" stroke="#000000" d="M409.4348,-105.2812C409.4348,-98.3613 409.4348,-88.442 409.4348,-79.7645"/>
<polygon fill="#000000" stroke="#000000" points="412.9349,-79.7566 409.4348,-69.7566 405.9349,-79.7566 412.9349,-79.7566"/>
</g>
</g>
</svg>