<?xml version="1.0" encoding="UTF-8" standalone="no"?><!DOCTYPE svg PUBLIC "-//W3C//DTD SVG 1.1//EN" "http://www.w3.org/Graphics/SVG/1.1/DTD/svg11.dtd"><!-- Generated by graphviz version 2.40.1 (20161225.0304)
 --><!-- Title: G Pages: 1 --><svg xmlns="http://www.w3.org/2000/svg" xmlns:xlink="http://www.w3.org/1999/xlink" width="244pt" height="289pt" viewBox="0.00 0.00 243.95 288.80">
<g id="graph0" class="graph" transform="scale(1 1) rotate(0) translate(4 284.8)">
<title>G</title>
<polygon fill="#ffffff" stroke="transparent" points="-4,4 -4,-284.8 239.9479,-284.8 239.9479,4 -4,4"/>
<!-- 65615241 -->
<g id="node1" class="node">
<title>65615241</title>
<text text-anchor="middle" x="154.6662" y="-268.2" font-family="Times,serif" font-size="14.00" fill="#000000">parse</text>
</g>
<!-- 19208783 -->
<g id="node2" class="node">
<title>19208783</title>
<text text-anchor="middle" x="109.6662" y="-215.4" font-family="Times,serif" font-size="14.00" fill="#000000">sql_stmt_list</text>
</g>
<!-- 65615241&#45;&gt;19208783 -->
<g id="edge1" class="edge">
<title>65615241-&gt;19208783</title>
<path fill="none" stroke="#000000" d="M147.2354,-263.6812C140.8135,-256.1462 131.3606,-245.0548 123.5437,-235.883"/>
<polygon fill="#000000" stroke="#000000" points="126.1091,-233.4972 116.9588,-228.1566 120.7815,-238.0378 126.1091,-233.4972"/>
</g>
<!-- 58501464 -->
<g id="node10" class="node">
<title>58501464</title>
<text text-anchor="middle" x="199.6662" y="-215.4" font-family="Times,serif" font-size="14.00" fill="#000000">EOF:&lt;EOF&gt;</text>
</g>
<!-- 65615241&#45;&gt;58501464 -->
<g id="edge9" class="edge">
<title>65615241-&gt;58501464</title>
<path fill="none" stroke="#000000" d="M162.097,-263.6812C168.5189,-256.1462 177.9718,-245.0548 185.7887,-235.883"/>
<polygon fill="#000000" stroke="#000000" points="188.5509,-238.0378 192.3736,-228.1566 183.2233,-233.4972 188.5509,-238.0378"/>
</g>
<!-- 2681320 -->
<g id="node3" class="node">
<title>2681320</title>
<text text-anchor="middle" x="77.6662" y="-162.6" font-family="Times,serif" font-size="14.00" fill="#000000">sql_stmt</text>
</g>
<!-- 19208783&#45;&gt;2681320 -->
<g id="edge2" class="edge">
<title>19208783-&gt;2681320</title>
<path fill="none" stroke="#000000" d="M104.3821,-210.8812C99.9552,-203.5769 93.5029,-192.9306 88.0483,-183.9305"/>
<polygon fill="#000000" stroke="#000000" points="91.0283,-182.0945 82.852,-175.3566 85.0419,-185.7227 91.0283,-182.0945"/>
</g>
<!-- 5117477 -->
<g id="node9" class="node">
<title>5117477</title>
<text text-anchor="middle" x="141.6662" y="-162.6" font-family="Times,serif" font-size="14.00" fill="#000000">SCOL:;</text>
</g>
<!-- 19208783&#45;&gt;5117477 -->
<g id="edge8" class="edge">
<title>19208783-&gt;5117477</title>
<path fill="none" stroke="#000000" d="M114.9503,-210.8812C119.3772,-203.5769 125.8295,-192.9306 131.2841,-183.9305"/>
<polygon fill="#000000" stroke="#000000" points="134.2905,-185.7227 136.4804,-175.3566 128.3041,-182.0945 134.2905,-185.7227"/>
</g>
<!-- 5135072 -->
<g id="node4" class="node">
<title>5135072</title>
<text text-anchor="middle" x="77.6662" y="-109.8" font-family="Times,serif" font-size="14.00" fill="#000000">drop_stmt</text>
</g>
<!-- 2681320&#45;&gt;5135072 -->
<g id="edge3" class="edge">
<title>2681320-&gt;5135072</title>
<path fill="none" stroke="#000000" d="M77.6662,-158.0812C77.6662,-151.1613 77.6662,-141.242 77.6662,-132.5645"/>
<polygon fill="#000000" stroke="#000000" points="81.1663,-132.5566 77.6662,-122.5566 74.1663,-132.5566 81.1663,-132.5566"/>
</g>
<!-- 59856230 -->
<g id="node5" class="node">
<title>59856230</title>
<text text-anchor="middle" x="18.6662" y="-57" font-family="Times,serif" font-size="14.00" fill="#000000">DROP</text>
</g>
<!-- 5135072&#45;&gt;59856230 -->
<g id="edge4" class="edge">
<title>5135072-&gt;59856230</title>
<path fill="none" stroke="#000000" d="M68.1868,-105.5168C59.5506,-97.7881 46.58,-86.1805 36.0796,-76.7835"/>
<polygon fill="#000000" stroke="#000000" points="38.1039,-73.8982 28.3181,-69.8376 33.4358,-79.1144 38.1039,-73.8982"/>
</g>
<!-- 45526960 -->
<g id="node6" class="node">
<title>45526960</title>
<text text-anchor="middle" x="77.6662" y="-57" font-family="Times,serif" font-size="14.00" fill="#000000">TABLE</text>
</g>
<!-- 5135072&#45;&gt;45526960 -->
<g id="edge5" class="edge">
<title>5135072-&gt;45526960</title>
<path fill="none" stroke="#000000" d="M77.6662,-105.2812C77.6662,-98.3613 77.6662,-88.442 77.6662,-79.7645"/>
<polygon fill="#000000" stroke="#000000" points="81.1663,-79.7566 77.6662,-69.7566 74.1663,-79.7566 81.1663,-79.7566"/>
</g>
<!-- 15915024 -->
<g id="node7" class="node">
<title>15915024</title>
<text text-anchor="middle" x="146.6662" y="-57" font-family="Times,serif" font-size="14.00" fill="#000000">any_name</text>
</g>
<!-- 5135072&#45;&gt;15915024 -->
<g id="edge6" class="edge">
<title>5135072-&gt;15915024</title>
<path fill="none" stroke="#000000" d="M88.7522,-105.5168C99.1522,-97.5585 114.9268,-85.4875 127.3878,-75.9522"/>
<polygon fill="#000000" stroke="#000000" points="129.5638,-78.6943 135.3784,-69.8376 125.3098,-73.1351 129.5638,-78.6943"/>
</g>
<!-- 17497334 -->
<g id="node8" class="node">
<title>17497334</title>
<text text-anchor="middle" x="146.6662" y="-4.2" font-family="Times,serif" font-size="14.00" fill="#000000">IDENTIFIER:table1</text>
</g>
<!-- 15915024&#45;&gt;17497334 -->
<g id="edge7" class="edge">
<title>15915024-&gt;17497334</title>
<path fill="none" stroke="#000000" d="M146.6662,-52.4812C146.6662,-45.5613 146.6662,-35.642 146.6662,-26.9645"/>
<polygon fill="#000000" stroke="#000000" points="150.1663,-26.9566 146.6662,-16.9566 143.1663,-26.9566 150.1663,-26.9566"/>
</g>
</g>
</svg>