<?xml version="1.0" encoding="UTF-8" standalone="no"?><!DOCTYPE svg PUBLIC "-//W3C//DTD SVG 1.1//EN" "http://www.w3.org/Graphics/SVG/1.1/DTD/svg11.dtd"><!-- Generated by graphviz version 2.40.1 (20161225.0304)
 --><!-- Title: G Pages: 1 --><svg xmlns="http://www.w3.org/2000/svg" xmlns:xlink="http://www.w3.org/1999/xlink" width="2563pt" height="447pt" viewBox="0.00 0.00 2563.09 447.20">
<g id="graph0" class="graph" transform="scale(1 1) rotate(0) translate(4 443.2)">
<title>G</title>
<polygon fill="#ffffff" stroke="transparent" points="-4,4 -4,-443.2 2559.0905,-443.2 2559.0905,4 -4,4"/>
<!-- 9761281 -->
<g id="node1" class="node">
<title>9761281</title>
<text text-anchor="middle" x="400.5365" y="-426.6" font-family="Times,serif" font-size="14.00" fill="#000000">parse</text>
</g>
<!-- 8540721 -->
<g id="node2" class="node">
<title>8540721</title>
<text text-anchor="middle" x="355.5365" y="-373.8" font-family="Times,serif" font-size="14.00" fill="#000000">sql_stmt_list</text>
</g>
<!-- 9761281&#45;&gt;8540721 -->
<g id="edge1" class="edge">
<title>9761281-&gt;8540721</title>
<path fill="none" stroke="#000000" d="M393.1057,-422.0812C386.6838,-414.5462 377.2309,-403.4548 369.414,-394.283"/>
<polygon fill="#000000" stroke="#000000" points="371.9794,-391.8972 362.8291,-386.5566 366.6518,-396.4378 371.9794,-391.8972"/>
</g>
<!-- 14870191 -->
<g id="node86" class="node">
<title>14870191</title>
<text text-anchor="middle" x="445.5365" y="-373.8" font-family="Times,serif" font-size="14.00" fill="#000000">EOF:&lt;EOF&gt;</text>
</g>
<!-- 9761281&#45;&gt;14870191 -->
<g id="edge85" class="edge">
<title>9761281-&gt;14870191</title>
<path fill="none" stroke="#000000" d="M407.9673,-422.0812C414.3892,-414.5462 423.8421,-403.4548 431.659,-394.283"/>
<polygon fill="#000000" stroke="#000000" points="434.4212,-396.4378 438.2439,-386.5566 429.0936,-391.8972 434.4212,-396.4378"/>
</g>
<!-- 15842145 -->
<g id="node3" class="node">
<title>15842145</title>
<text text-anchor="middle" x="323.5365" y="-321" font-family="Times,serif" font-size="14.00" fill="#000000">sql_stmt</text>
</g>
<!-- 8540721&#45;&gt;15842145 -->
<g id="edge2" class="edge">
<title>8540721-&gt;15842145</title>
<path fill="none" stroke="#000000" d="M350.2524,-369.2812C345.8255,-361.9769 339.3732,-351.3306 333.9186,-342.3305"/>
<polygon fill="#000000" stroke="#000000" points="336.8986,-340.4945 328.7223,-333.7566 330.9122,-344.1227 336.8986,-340.4945"/>
</g>
<!-- 49607944 -->
<g id="node85" class="node">
<title>49607944</title>
<text text-anchor="middle" x="387.5365" y="-321" font-family="Times,serif" font-size="14.00" fill="#000000">SCOL:;</text>
</g>
<!-- 8540721&#45;&gt;49607944 -->
<g id="edge84" class="edge">
<title>8540721-&gt;49607944</title>
<path fill="none" stroke="#000000" d="M360.8206,-369.2812C365.2475,-361.9769 371.6998,-351.3306 377.1544,-342.3305"/>
<polygon fill="#000000" stroke="#000000" points="380.1608,-344.1227 382.3507,-333.7566 374.1744,-340.4945 380.1608,-344.1227"/>
</g>
<!-- 38067639 -->
<g id="node4" class="node">
<title>38067639</title>
<text text-anchor="middle" x="323.5365" y="-268.2" font-family="Times,serif" font-size="14.00" fill="#000000">insert_stmt</text>
</g>
<!-- 15842145&#45;&gt;38067639 -->
<g id="edge3" class="edge">
<title>15842145-&gt;38067639</title>
<path fill="none" stroke="#000000" d="M323.5365,-316.4812C323.5365,-309.5613 323.5365,-299.642 323.5365,-290.9645"/>
<polygon fill="#000000" stroke="#000000" points="327.0366,-290.9566 323.5365,-280.9566 320.0366,-290.9566 327.0366,-290.9566"/>
</g>
<!-- 53374997 -->
<g id="node5" class="node">
<title>53374997</title>
<text text-anchor="middle" x="197.5365" y="-215.4" font-family="Times,serif" font-size="14.00" fill="#000000">INSERT</text>
</g>
<!-- 38067639&#45;&gt;53374997 -->
<g id="edge4" class="edge">
<title>38067639-&gt;53374997</title>
<path fill="none" stroke="#000000" d="M303.5714,-264.0337C282.9274,-255.3828 250.474,-241.7833 226.9049,-231.9068"/>
<polygon fill="#000000" stroke="#000000" points="227.9838,-228.5641 217.4082,-227.9272 225.2784,-235.0201 227.9838,-228.5641"/>
</g>
<!-- 65238048 -->
<g id="node6" class="node">
<title>65238048</title>
<text text-anchor="middle" x="256.5365" y="-215.4" font-family="Times,serif" font-size="14.00" fill="#000000">INTO</text>
</g>
<!-- 38067639&#45;&gt;65238048 -->
<g id="edge5" class="edge">
<title>38067639-&gt;65238048</title>
<path fill="none" stroke="#000000" d="M312.7718,-263.9168C302.7704,-256.0351 287.65,-244.1193 275.606,-234.6279"/>
<polygon fill="#000000" stroke="#000000" points="277.5177,-231.6782 267.4971,-228.2376 273.185,-237.1762 277.5177,-231.6782"/>
</g>
<!-- 42547772 -->
<g id="node7" class="node">
<title>42547772</title>
<text text-anchor="middle" x="323.5365" y="-215.4" font-family="Times,serif" font-size="14.00" fill="#000000">table_name</text>
</g>
<!-- 38067639&#45;&gt;42547772 -->
<g id="edge6" class="edge">
<title>38067639-&gt;42547772</title>
<path fill="none" stroke="#000000" d="M323.5365,-263.6812C323.5365,-256.7613 323.5365,-246.842 323.5365,-238.1645"/>
<polygon fill="#000000" stroke="#000000" points="327.0366,-238.1566 323.5365,-228.1566 320.0366,-238.1566 327.0366,-238.1566"/>
</g>
<!-- 52702748 -->
<g id="node10" class="node">
<title>52702748</title>
<text text-anchor="middle" x="418.5365" y="-215.4" font-family="Times,serif" font-size="14.00" fill="#000000">columns_clause</text>
</g>
<!-- 38067639&#45;&gt;52702748 -->
<g id="edge9" class="edge">
<title>38067639-&gt;52702748</title>
<path fill="none" stroke="#000000" d="M338.7999,-263.9168C353.7579,-255.6033 376.7913,-242.8015 394.2632,-233.0909"/>
<polygon fill="#000000" stroke="#000000" points="396.2706,-235.9795 403.311,-228.0622 392.87,-229.861 396.2706,-235.9795"/>
</g>
<!-- 60474459 -->
<g id="node24" class="node">
<title>60474459</title>
<text text-anchor="middle" x="1337.5365" y="-215.4" font-family="Times,serif" font-size="14.00" fill="#000000">values_clause</text>
</g>
<!-- 38067639&#45;&gt;60474459 -->
<g id="edge23" class="edge">
<title>38067639-&gt;60474459</title>
<path fill="none" stroke="#000000" d="M354.7157,-270.7765C499.9674,-263.2131 1110.7099,-231.4111 1288.6775,-222.1441"/>
<polygon fill="#000000" stroke="#000000" points="1288.9863,-225.6329 1298.7907,-221.6175 1288.6222,-218.6424 1288.9863,-225.6329"/>
</g>
<!-- 4466060 -->
<g id="node8" class="node">
<title>4466060</title>
<text text-anchor="middle" x="57.5365" y="-162.6" font-family="Times,serif" font-size="14.00" fill="#000000">any_name</text>
</g>
<!-- 42547772&#45;&gt;4466060 -->
<g id="edge7" class="edge">
<title>42547772-&gt;4466060</title>
<path fill="none" stroke="#000000" d="M291.3155,-212.9578C288.3484,-212.3585 285.3874,-211.765 282.5365,-211.2 202.1825,-195.2758 179.4725,-192.7914 96.1135,-175.4778"/>
<polygon fill="#000000" stroke="#000000" points="96.7029,-172.0254 86.1987,-173.4083 95.2726,-178.8778 96.7029,-172.0254"/>
</g>
<!-- 17510390 -->
<g id="node9" class="node">
<title>17510390</title>
<text text-anchor="middle" x="57.5365" y="-109.8" font-family="Times,serif" font-size="14.00" fill="#000000">IDENTIFIER:table1</text>
</g>
<!-- 4466060&#45;&gt;17510390 -->
<g id="edge8" class="edge">
<title>4466060-&gt;17510390</title>
<path fill="none" stroke="#000000" d="M57.5365,-158.0812C57.5365,-151.1613 57.5365,-141.242 57.5365,-132.5645"/>
<polygon fill="#000000" stroke="#000000" points="61.0366,-132.5566 57.5365,-122.5566 54.0366,-132.5566 61.0366,-132.5566"/>
</g>
<!-- 32297826 -->
<g id="node11" class="node">
<title>32297826</title>
<text text-anchor="middle" x="143.5365" y="-162.6" font-family="Times,serif" font-size="14.00" fill="#000000">OPEN_PAR:(</text>
</g>
<!-- 52702748&#45;&gt;32297826 -->
<g id="edge10" class="edge">
<title>52702748-&gt;32297826</title>
<path fill="none" stroke="#000000" d="M375.2652,-211.2919C325.9175,-201.8172 245.3697,-186.352 193.4205,-176.3777"/>
<polygon fill="#000000" stroke="#000000" points="193.9103,-172.9079 183.4297,-174.4595 192.5904,-179.7824 193.9103,-172.9079"/>
</g>
<!-- 39089646 -->
<g id="node12" class="node">
<title>39089646</title>
<text text-anchor="middle" x="240.5365" y="-162.6" font-family="Times,serif" font-size="14.00" fill="#000000">column_name</text>
</g>
<!-- 52702748&#45;&gt;39089646 -->
<g id="edge11" class="edge">
<title>52702748-&gt;39089646</title>
<path fill="none" stroke="#000000" d="M390.3319,-211.2337C360.1265,-202.2739 312.0251,-188.0056 278.5072,-178.0632"/>
<polygon fill="#000000" stroke="#000000" points="279.1916,-174.6156 268.6092,-175.1272 277.2009,-181.3266 279.1916,-174.6156"/>
</g>
<!-- 21579733 -->
<g id="node15" class="node">
<title>21579733</title>
<text text-anchor="middle" x="329.5365" y="-162.6" font-family="Times,serif" font-size="14.00" fill="#000000">COMMA:,</text>
</g>
<!-- 52702748&#45;&gt;21579733 -->
<g id="edge14" class="edge">
<title>52702748-&gt;21579733</title>
<path fill="none" stroke="#000000" d="M404.2371,-211.1168C390.3536,-202.8802 369.0441,-190.2382 352.7328,-180.5614"/>
<polygon fill="#000000" stroke="#000000" points="354.1866,-177.3543 343.8004,-175.2622 350.615,-183.3746 354.1866,-177.3543"/>
</g>
<!-- 50773979 -->
<g id="node16" class="node">
<title>50773979</title>
<text text-anchor="middle" x="418.5365" y="-162.6" font-family="Times,serif" font-size="14.00" fill="#000000">column_name</text>
</g>
<!-- 52702748&#45;&gt;50773979 -->
<g id="edge15" class="edge">
<title>52702748-&gt;50773979</title>
<path fill="none" stroke="#000000" d="M418.5365,-210.8812C418.5365,-203.9613 418.5365,-194.042 418.5365,-185.3645"/>
<polygon fill="#000000" stroke="#000000" points="422.0366,-185.3566 418.5365,-175.3566 415.0366,-185.3566 422.0366,-185.3566"/>
</g>
<!-- 13768852 -->
<g id="node19" class="node">
<title>13768852</title>
<text text-anchor="middle" x="507.5365" y="-162.6" font-family="Times,serif" font-size="14.00" fill="#000000">COMMA:,</text>
</g>
<!-- 52702748&#45;&gt;13768852 -->
<g id="edge18" class="edge">
<title>52702748-&gt;13768852</title>
<path fill="none" stroke="#000000" d="M432.8359,-211.1168C446.7194,-202.8802 468.0289,-190.2382 484.3402,-180.5614"/>
<polygon fill="#000000" stroke="#000000" points="486.458,-183.3746 493.2726,-175.2622 482.8864,-177.3543 486.458,-183.3746"/>
</g>
<!-- 3585109 -->
<g id="node20" class="node">
<title>3585109</title>
<text text-anchor="middle" x="596.5365" y="-162.6" font-family="Times,serif" font-size="14.00" fill="#000000">column_name</text>
</g>
<!-- 52702748&#45;&gt;3585109 -->
<g id="edge19" class="edge">
<title>52702748-&gt;3585109</title>
<path fill="none" stroke="#000000" d="M446.7411,-211.2337C476.9465,-202.2739 525.0479,-188.0056 558.5658,-178.0632"/>
<polygon fill="#000000" stroke="#000000" points="559.8721,-181.3266 568.4638,-175.1272 557.8814,-174.6156 559.8721,-181.3266"/>
</g>
<!-- 5342878 -->
<g id="node23" class="node">
<title>5342878</title>
<text text-anchor="middle" x="697.5365" y="-162.6" font-family="Times,serif" font-size="14.00" fill="#000000">CLOSE_PAR:)</text>
</g>
<!-- 52702748&#45;&gt;5342878 -->
<g id="edge22" class="edge">
<title>52702748-&gt;5342878</title>
<path fill="none" stroke="#000000" d="M462.4372,-211.2919C511.5978,-201.9884 591.2785,-186.909 644.0411,-176.9239"/>
<polygon fill="#000000" stroke="#000000" points="644.7171,-180.3581 653.8919,-175.0596 643.4154,-173.4802 644.7171,-180.3581"/>
</g>
<!-- 36344482 -->
<g id="node13" class="node">
<title>36344482</title>
<text text-anchor="middle" x="240.5365" y="-109.8" font-family="Times,serif" font-size="14.00" fill="#000000">any_name</text>
</g>
<!-- 39089646&#45;&gt;36344482 -->
<g id="edge12" class="edge">
<title>39089646-&gt;36344482</title>
<path fill="none" stroke="#000000" d="M240.5365,-158.0812C240.5365,-151.1613 240.5365,-141.242 240.5365,-132.5645"/>
<polygon fill="#000000" stroke="#000000" points="244.0366,-132.5566 240.5365,-122.5566 237.0366,-132.5566 244.0366,-132.5566"/>
</g>
<!-- 36049187 -->
<g id="node14" class="node">
<title>36049187</title>
<text text-anchor="middle" x="240.5365" y="-57" font-family="Times,serif" font-size="14.00" fill="#000000">IDENTIFIER:id</text>
</g>
<!-- 36344482&#45;&gt;36049187 -->
<g id="edge13" class="edge">
<title>36344482-&gt;36049187</title>
<path fill="none" stroke="#000000" d="M240.5365,-105.2812C240.5365,-98.3613 240.5365,-88.442 240.5365,-79.7645"/>
<polygon fill="#000000" stroke="#000000" points="244.0366,-79.7566 240.5365,-69.7566 237.0366,-79.7566 244.0366,-79.7566"/>
</g>
<!-- 4897051 -->
<g id="node17" class="node">
<title>4897051</title>
<text text-anchor="middle" x="418.5365" y="-109.8" font-family="Times,serif" font-size="14.00" fill="#000000">any_name</text>
</g>
<!-- 50773979&#45;&gt;4897051 -->
<g id="edge16" class="edge">
<title>50773979-&gt;4897051</title>
<path fill="none" stroke="#000000" d="M418.5365,-158.0812C418.5365,-151.1613 418.5365,-141.242 418.5365,-132.5645"/>
<polygon fill="#000000" stroke="#000000" points="422.0366,-132.5566 418.5365,-122.5566 415.0366,-132.5566 422.0366,-132.5566"/>
</g>
<!-- 38628919 -->
<g id="node18" class="node">
<title>38628919</title>
<text text-anchor="middle" x="418.5365" y="-57" font-family="Times,serif" font-size="14.00" fill="#000000">IDENTIFIER:name</text>
</g>
<!-- 4897051&#45;&gt;38628919 -->
<g id="edge17" class="edge">
<title>4897051-&gt;38628919</title>
<path fill="none" stroke="#000000" d="M418.5365,-105.2812C418.5365,-98.3613 418.5365,-88.442 418.5365,-79.7645"/>
<polygon fill="#000000" stroke="#000000" points="422.0366,-79.7566 418.5365,-69.7566 415.0366,-79.7566 422.0366,-79.7566"/>
</g>
<!-- 41452639 -->
<g id="node21" class="node">
<title>41452639</title>
<text text-anchor="middle" x="570.5365" y="-109.8" font-family="Times,serif" font-size="14.00" fill="#000000">any_name</text>
</g>
<!-- 3585109&#45;&gt;41452639 -->
<g id="edge20" class="edge">
<title>3585109-&gt;41452639</title>
<path fill="none" stroke="#000000" d="M592.2431,-158.0812C588.722,-150.9306 583.6238,-140.5773 579.253,-131.7011"/>
<polygon fill="#000000" stroke="#000000" points="582.3077,-129.9817 574.75,-122.5566 576.0278,-133.0741 582.3077,-129.9817"/>
</g>
<!-- 17913430 -->
<g id="node22" class="node">
<title>17913430</title>
<text text-anchor="middle" x="570.5365" y="-57" font-family="Times,serif" font-size="14.00" fill="#000000">IDENTIFIER:state</text>
</g>
<!-- 41452639&#45;&gt;17913430 -->
<g id="edge21" class="edge">
<title>41452639-&gt;17913430</title>
<path fill="none" stroke="#000000" d="M570.5365,-105.2812C570.5365,-98.3613 570.5365,-88.442 570.5365,-79.7645"/>
<polygon fill="#000000" stroke="#000000" points="574.0366,-79.7566 570.5365,-69.7566 567.0366,-79.7566 574.0366,-79.7566"/>
</g>
<!-- 10458480 -->
<g id="node25" class="node">
<title>10458480</title>
<text text-anchor="middle" x="830.5365" y="-162.6" font-family="Times,serif" font-size="14.00" fill="#000000">VALUES</text>
</g>
<!-- 60474459&#45;&gt;10458480 -->
<g id="edge24" class="edge">
<title>60474459-&gt;10458480</title>
<path fill="none" stroke="#000000" d="M1298.6345,-217.6276C1219.5405,-213.2514 1034.1711,-201.1328 868.7076,-175.1663"/>
<polygon fill="#000000" stroke="#000000" points="868.7677,-171.6319 858.3419,-173.517 867.6677,-178.545 868.7677,-171.6319"/>
</g>
<!-- 42703490 -->
<g id="node26" class="node">
<title>42703490</title>
<text text-anchor="middle" x="909.5365" y="-162.6" font-family="Times,serif" font-size="14.00" fill="#000000">values_stmt</text>
</g>
<!-- 60474459&#45;&gt;42703490 -->
<g id="edge25" class="edge">
<title>60474459-&gt;42703490</title>
<path fill="none" stroke="#000000" d="M1298.4197,-214.7744C1218.4694,-204.9114 1036.844,-182.5052 953.1972,-172.1862"/>
<polygon fill="#000000" stroke="#000000" points="953.3712,-168.6812 943.0178,-170.9304 952.514,-175.6285 953.3712,-168.6812"/>
</g>
<!-- 64826345 -->
<g id="node40" class="node">
<title>64826345</title>
<text text-anchor="middle" x="1255.5365" y="-162.6" font-family="Times,serif" font-size="14.00" fill="#000000">COMMA:,</text>
</g>
<!-- 60474459&#45;&gt;64826345 -->
<g id="edge39" class="edge">
<title>60474459-&gt;64826345</title>
<path fill="none" stroke="#000000" d="M1324.3618,-211.1168C1311.6897,-202.9572 1292.3031,-190.4741 1277.3309,-180.8335"/>
<polygon fill="#000000" stroke="#000000" points="1278.9812,-177.7333 1268.6785,-175.2622 1275.1915,-183.6187 1278.9812,-177.7333"/>
</g>
<!-- 22374314 -->
<g id="node41" class="node">
<title>22374314</title>
<text text-anchor="middle" x="1337.5365" y="-162.6" font-family="Times,serif" font-size="14.00" fill="#000000">values_stmt</text>
</g>
<!-- 60474459&#45;&gt;22374314 -->
<g id="edge40" class="edge">
<title>60474459-&gt;22374314</title>
<path fill="none" stroke="#000000" d="M1337.5365,-210.8812C1337.5365,-203.9613 1337.5365,-194.042 1337.5365,-185.3645"/>
<polygon fill="#000000" stroke="#000000" points="1341.0366,-185.3566 1337.5365,-175.3566 1334.0366,-185.3566 1341.0366,-185.3566"/>
</g>
<!-- 60624291 -->
<g id="node55" class="node">
<title>60624291</title>
<text text-anchor="middle" x="1419.5365" y="-162.6" font-family="Times,serif" font-size="14.00" fill="#000000">COMMA:,</text>
</g>
<!-- 60474459&#45;&gt;60624291 -->
<g id="edge54" class="edge">
<title>60474459-&gt;60624291</title>
<path fill="none" stroke="#000000" d="M1350.7112,-211.1168C1363.3833,-202.9572 1382.7699,-190.4741 1397.7421,-180.8335"/>
<polygon fill="#000000" stroke="#000000" points="1399.8815,-183.6187 1406.3945,-175.2622 1396.0918,-177.7333 1399.8815,-183.6187"/>
</g>
<!-- 17800247 -->
<g id="node56" class="node">
<title>17800247</title>
<text text-anchor="middle" x="1765.5365" y="-162.6" font-family="Times,serif" font-size="14.00" fill="#000000">values_stmt</text>
</g>
<!-- 60474459&#45;&gt;17800247 -->
<g id="edge55" class="edge">
<title>60474459-&gt;17800247</title>
<path fill="none" stroke="#000000" d="M1376.6533,-214.7744C1456.6036,-204.9114 1638.229,-182.5052 1721.8758,-172.1862"/>
<polygon fill="#000000" stroke="#000000" points="1722.559,-175.6285 1732.0552,-170.9304 1721.7018,-168.6812 1722.559,-175.6285"/>
</g>
<!-- 3703161 -->
<g id="node70" class="node">
<title>3703161</title>
<text text-anchor="middle" x="1847.5365" y="-162.6" font-family="Times,serif" font-size="14.00" fill="#000000">COMMA:,</text>
</g>
<!-- 60474459&#45;&gt;3703161 -->
<g id="edge69" class="edge">
<title>60474459-&gt;3703161</title>
<path fill="none" stroke="#000000" d="M1376.4056,-217.4165C1455.4397,-212.6567 1640.7049,-199.8696 1806.2211,-175.2224"/>
<polygon fill="#000000" stroke="#000000" points="1807.2241,-178.6108 1816.5903,-173.6586 1806.1801,-171.689 1807.2241,-178.6108"/>
</g>
<!-- 47237189 -->
<g id="node71" class="node">
<title>47237189</title>
<text text-anchor="middle" x="2284.5365" y="-162.6" font-family="Times,serif" font-size="14.00" fill="#000000">values_stmt</text>
</g>
<!-- 60474459&#45;&gt;47237189 -->
<g id="edge70" class="edge">
<title>60474459-&gt;47237189</title>
<path fill="none" stroke="#000000" d="M1376.4255,-217.4317C1528.1685,-208.9713 2079.9561,-178.2064 2240.4609,-169.2574"/>
<polygon fill="#000000" stroke="#000000" points="2241.1058,-172.727 2250.8954,-168.6757 2240.716,-165.7379 2241.1058,-172.727"/>
</g>
<!-- 12096245 -->
<g id="node27" class="node">
<title>12096245</title>
<text text-anchor="middle" x="656.5365" y="-109.8" font-family="Times,serif" font-size="14.00" fill="#000000">OPEN_PAR:(</text>
</g>
<!-- 42703490&#45;&gt;12096245 -->
<g id="edge26" class="edge">
<title>42703490-&gt;12096245</title>
<path fill="none" stroke="#000000" d="M875.9401,-159.7886C832.5555,-150.7344 756.6787,-134.8992 706.5168,-124.4307"/>
<polygon fill="#000000" stroke="#000000" points="707.0387,-120.9643 696.5346,-122.3474 705.6086,-127.8166 707.0387,-120.9643"/>
</g>
<!-- 55845100 -->
<g id="node28" class="node">
<title>55845100</title>
<text text-anchor="middle" x="726.5365" y="-109.8" font-family="Times,serif" font-size="14.00" fill="#000000">expr</text>
</g>
<!-- 42703490&#45;&gt;55845100 -->
<g id="edge27" class="edge">
<title>42703490-&gt;55845100</title>
<path fill="none" stroke="#000000" d="M876.0072,-158.7882C845.0752,-151.1391 797.7381,-138.7839 749.0789,-122.6601"/>
<polygon fill="#000000" stroke="#000000" points="749.9279,-119.2532 739.3338,-119.3854 747.6981,-125.8885 749.9279,-119.2532"/>
</g>
<!-- 28245655 -->
<g id="node31" class="node">
<title>28245655</title>
<text text-anchor="middle" x="787.5365" y="-109.8" font-family="Times,serif" font-size="14.00" fill="#000000">COMMA:,</text>
</g>
<!-- 42703490&#45;&gt;28245655 -->
<g id="edge30" class="edge">
<title>42703490-&gt;28245655</title>
<path fill="none" stroke="#000000" d="M890.2052,-158.4337C870.2166,-149.7828 838.7934,-136.1833 815.9726,-126.3068"/>
<polygon fill="#000000" stroke="#000000" points="817.3449,-123.087 806.7773,-122.3272 814.5645,-129.5112 817.3449,-123.087"/>
</g>
<!-- 41859850 -->
<g id="node32" class="node">
<title>41859850</title>
<text text-anchor="middle" x="848.5365" y="-109.8" font-family="Times,serif" font-size="14.00" fill="#000000">expr</text>
</g>
<!-- 42703490&#45;&gt;41859850 -->
<g id="edge31" class="edge">
<title>42703490-&gt;41859850</title>
<path fill="none" stroke="#000000" d="M899.7358,-158.3168C890.7184,-150.5116 877.1305,-138.7503 866.2185,-129.305"/>
<polygon fill="#000000" stroke="#000000" points="868.3672,-126.5359 858.5155,-122.6376 863.7859,-131.8286 868.3672,-126.5359"/>
</g>
<!-- 52644486 -->
<g id="node35" class="node">
<title>52644486</title>
<text text-anchor="middle" x="909.5365" y="-109.8" font-family="Times,serif" font-size="14.00" fill="#000000">COMMA:,</text>
</g>
<!-- 42703490&#45;&gt;52644486 -->
<g id="edge34" class="edge">
<title>42703490-&gt;52644486</title>
<path fill="none" stroke="#000000" d="M909.5365,-158.0812C909.5365,-151.1613 909.5365,-141.242 909.5365,-132.5645"/>
<polygon fill="#000000" stroke="#000000" points="913.0366,-132.5566 909.5365,-122.5566 906.0366,-132.5566 913.0366,-132.5566"/>
</g>
<!-- 29442995 -->
<g id="node36" class="node">
<title>29442995</title>
<text text-anchor="middle" x="970.5365" y="-109.8" font-family="Times,serif" font-size="14.00" fill="#000000">expr</text>
</g>
<!-- 42703490&#45;&gt;29442995 -->
<g id="edge35" class="edge">
<title>42703490-&gt;29442995</title>
<path fill="none" stroke="#000000" d="M919.3372,-158.3168C928.3546,-150.5116 941.9425,-138.7503 952.8545,-129.305"/>
<polygon fill="#000000" stroke="#000000" points="955.2871,-131.8286 960.5575,-122.6376 950.7058,-126.5359 955.2871,-131.8286"/>
</g>
<!-- 47888320 -->
<g id="node39" class="node">
<title>47888320</title>
<text text-anchor="middle" x="1044.5365" y="-109.8" font-family="Times,serif" font-size="14.00" fill="#000000">CLOSE_PAR:)</text>
</g>
<!-- 42703490&#45;&gt;47888320 -->
<g id="edge38" class="edge">
<title>42703490-&gt;47888320</title>
<path fill="none" stroke="#000000" d="M930.9277,-158.4337C953.2438,-149.7056 988.4397,-135.9401 1013.7445,-126.0431"/>
<polygon fill="#000000" stroke="#000000" points="1015.2073,-129.2292 1023.2454,-122.3272 1012.6575,-122.7101 1015.2073,-129.2292"/>
</g>
<!-- 52055372 -->
<g id="node29" class="node">
<title>52055372</title>
<text text-anchor="middle" x="709.5365" y="-57" font-family="Times,serif" font-size="14.00" fill="#000000">literal_value</text>
</g>
<!-- 55845100&#45;&gt;52055372 -->
<g id="edge28" class="edge">
<title>55845100-&gt;52055372</title>
<path fill="none" stroke="#000000" d="M723.7293,-105.2812C721.4766,-98.2844 718.2365,-88.2212 715.4207,-79.4758"/>
<polygon fill="#000000" stroke="#000000" points="718.6879,-78.2027 712.2915,-69.7566 712.0247,-80.3481 718.6879,-78.2027"/>
</g>
<!-- 576441 -->
<g id="node30" class="node">
<title>576441</title>
<text text-anchor="middle" x="692.5365" y="-4.2" font-family="Times,serif" font-size="14.00" fill="#000000">NUMERIC_LITERAL:1</text>
</g>
<!-- 52055372&#45;&gt;576441 -->
<g id="edge29" class="edge">
<title>52055372-&gt;576441</title>
<path fill="none" stroke="#000000" d="M706.7293,-52.4812C704.4766,-45.4844 701.2365,-35.4212 698.4207,-26.6758"/>
<polygon fill="#000000" stroke="#000000" points="701.6879,-25.4027 695.2915,-16.9566 695.0247,-27.5481 701.6879,-25.4027"/>
</g>
<!-- 37866741 -->
<g id="node33" class="node">
<title>37866741</title>
<text text-anchor="middle" x="849.5365" y="-57" font-family="Times,serif" font-size="14.00" fill="#000000">literal_value</text>
</g>
<!-- 41859850&#45;&gt;37866741 -->
<g id="edge32" class="edge">
<title>41859850-&gt;37866741</title>
<path fill="none" stroke="#000000" d="M848.7016,-105.2812C848.8327,-98.3613 849.0206,-88.442 849.1849,-79.7645"/>
<polygon fill="#000000" stroke="#000000" points="852.6844,-79.8211 849.3744,-69.7566 845.6856,-79.6885 852.6844,-79.8211"/>
</g>
<!-- 43531005 -->
<g id="node34" class="node">
<title>43531005</title>
<text text-anchor="middle" x="850.5365" y="-4.2" font-family="Times,serif" font-size="14.00" fill="#000000">STRING_LITERAL:'A'</text>
</g>
<!-- 37866741&#45;&gt;43531005 -->
<g id="edge33" class="edge">
<title>37866741-&gt;43531005</title>
<path fill="none" stroke="#000000" d="M849.7016,-52.4812C849.8327,-45.5613 850.0206,-35.642 850.1849,-26.9645"/>
<polygon fill="#000000" stroke="#000000" points="853.6844,-27.0211 850.3744,-16.9566 846.6856,-26.8885 853.6844,-27.0211"/>
</g>
<!-- 33420650 -->
<g id="node37" class="node">
<title>33420650</title>
<text text-anchor="middle" x="970.5365" y="-57" font-family="Times,serif" font-size="14.00" fill="#000000">literal_value</text>
</g>
<!-- 29442995&#45;&gt;33420650 -->
<g id="edge36" class="edge">
<title>29442995-&gt;33420650</title>
<path fill="none" stroke="#000000" d="M970.5365,-105.2812C970.5365,-98.3613 970.5365,-88.442 970.5365,-79.7645"/>
<polygon fill="#000000" stroke="#000000" points="974.0366,-79.7566 970.5365,-69.7566 967.0366,-79.7566 974.0366,-79.7566"/>
</g>
<!-- 26999117 -->
<g id="node38" class="node">
<title>26999117</title>
<text text-anchor="middle" x="970.5365" y="-4.2" font-family="Times,serif" font-size="14.00" fill="#000000">TRUE:true</text>
</g>
<!-- 33420650&#45;&gt;26999117 -->
<g id="edge37" class="edge">
<title>33420650-&gt;26999117</title>
<path fill="none" stroke="#000000" d="M970.5365,-52.4812C970.5365,-45.5613 970.5365,-35.642 970.5365,-26.9645"/>
<polygon fill="#000000" stroke="#000000" points="974.0366,-26.9566 970.5365,-16.9566 967.0366,-26.9566 974.0366,-26.9566"/>
</g>
<!-- 22599592 -->
<g id="node42" class="node">
<title>22599592</title>
<text text-anchor="middle" x="1145.5365" y="-109.8" font-family="Times,serif" font-size="14.00" fill="#000000">OPEN_PAR:(</text>
</g>
<!-- 22374314&#45;&gt;22599592 -->
<g id="edge41" class="edge">
<title>22374314-&gt;22599592</title>
<path fill="none" stroke="#000000" d="M1307.1135,-158.4337C1274.2516,-149.3966 1221.7518,-134.9592 1185.5621,-125.007"/>
<polygon fill="#000000" stroke="#000000" points="1186.3873,-121.6041 1175.8171,-122.3272 1184.5311,-128.3535 1186.3873,-121.6041"/>
</g>
<!-- 33638215 -->
<g id="node43" class="node">
<title>33638215</title>
<text text-anchor="middle" x="1215.5365" y="-109.8" font-family="Times,serif" font-size="14.00" fill="#000000">expr</text>
</g>
<!-- 22374314&#45;&gt;33638215 -->
<g id="edge42" class="edge">
<title>22374314-&gt;33638215</title>
<path fill="none" stroke="#000000" d="M1318.2052,-158.4337C1296.1988,-148.9096 1260.3329,-133.3873 1237.3452,-123.4385"/>
<polygon fill="#000000" stroke="#000000" points="1238.6402,-120.1853 1228.0726,-119.4255 1235.8598,-126.6095 1238.6402,-120.1853"/>
</g>
<!-- 25585424 -->
<g id="node46" class="node">
<title>25585424</title>
<text text-anchor="middle" x="1276.5365" y="-109.8" font-family="Times,serif" font-size="14.00" fill="#000000">COMMA:,</text>
</g>
<!-- 22374314&#45;&gt;25585424 -->
<g id="edge45" class="edge">
<title>22374314-&gt;25585424</title>
<path fill="none" stroke="#000000" d="M1327.7358,-158.3168C1318.7184,-150.5116 1305.1305,-138.7503 1294.2185,-129.305"/>
<polygon fill="#000000" stroke="#000000" points="1296.3672,-126.5359 1286.5155,-122.6376 1291.7859,-131.8286 1296.3672,-126.5359"/>
</g>
<!-- 45726233 -->
<g id="node47" class="node">
<title>45726233</title>
<text text-anchor="middle" x="1337.5365" y="-109.8" font-family="Times,serif" font-size="14.00" fill="#000000">expr</text>
</g>
<!-- 22374314&#45;&gt;45726233 -->
<g id="edge46" class="edge">
<title>22374314-&gt;45726233</title>
<path fill="none" stroke="#000000" d="M1337.5365,-158.0812C1337.5365,-151.1613 1337.5365,-141.242 1337.5365,-132.5645"/>
<polygon fill="#000000" stroke="#000000" points="1341.0366,-132.5566 1337.5365,-122.5566 1334.0366,-132.5566 1341.0366,-132.5566"/>
</g>
<!-- 64944259 -->
<g id="node50" class="node">
<title>64944259</title>
<text text-anchor="middle" x="1398.5365" y="-109.8" font-family="Times,serif" font-size="14.00" fill="#000000">COMMA:,</text>
</g>
<!-- 22374314&#45;&gt;64944259 -->
<g id="edge49" class="edge">
<title>22374314-&gt;64944259</title>
<path fill="none" stroke="#000000" d="M1347.3372,-158.3168C1356.3546,-150.5116 1369.9425,-138.7503 1380.8545,-129.305"/>
<polygon fill="#000000" stroke="#000000" points="1383.2871,-131.8286 1388.5575,-122.6376 1378.7058,-126.5359 1383.2871,-131.8286"/>
</g>
<!-- 28152120 -->
<g id="node51" class="node">
<title>28152120</title>
<text text-anchor="middle" x="1459.5365" y="-109.8" font-family="Times,serif" font-size="14.00" fill="#000000">expr</text>
</g>
<!-- 22374314&#45;&gt;28152120 -->
<g id="edge50" class="edge">
<title>22374314-&gt;28152120</title>
<path fill="none" stroke="#000000" d="M1356.8678,-158.4337C1378.8742,-148.9096 1414.7401,-133.3873 1437.7278,-123.4385"/>
<polygon fill="#000000" stroke="#000000" points="1439.2132,-126.6095 1447.0004,-119.4255 1436.4328,-120.1853 1439.2132,-126.6095"/>
</g>
<!-- 45063427 -->
<g id="node54" class="node">
<title>45063427</title>
<text text-anchor="middle" x="1533.5365" y="-109.8" font-family="Times,serif" font-size="14.00" fill="#000000">CLOSE_PAR:)</text>
</g>
<!-- 22374314&#45;&gt;45063427 -->
<g id="edge53" class="edge">
<title>22374314-&gt;45063427</title>
<path fill="none" stroke="#000000" d="M1368.5933,-158.4337C1402.1399,-149.3966 1455.7333,-134.9592 1492.677,-125.007"/>
<polygon fill="#000000" stroke="#000000" points="1493.8797,-128.3079 1502.625,-122.3272 1492.0588,-121.5489 1493.8797,-128.3079"/>
</g>
<!-- 37659818 -->
<g id="node44" class="node">
<title>37659818</title>
<text text-anchor="middle" x="1197.5365" y="-57" font-family="Times,serif" font-size="14.00" fill="#000000">literal_value</text>
</g>
<!-- 33638215&#45;&gt;37659818 -->
<g id="edge43" class="edge">
<title>33638215-&gt;37659818</title>
<path fill="none" stroke="#000000" d="M1212.5642,-105.2812C1210.1789,-98.2844 1206.7483,-88.2212 1203.7669,-79.4758"/>
<polygon fill="#000000" stroke="#000000" points="1206.9931,-78.0923 1200.4535,-69.7566 1200.3675,-80.3511 1206.9931,-78.0923"/>
</g>
<!-- 33391799 -->
<g id="node45" class="node">
<title>33391799</title>
<text text-anchor="middle" x="1179.5365" y="-4.2" font-family="Times,serif" font-size="14.00" fill="#000000">NUMERIC_LITERAL:2</text>
</g>
<!-- 37659818&#45;&gt;33391799 -->
<g id="edge44" class="edge">
<title>37659818-&gt;33391799</title>
<path fill="none" stroke="#000000" d="M1194.5642,-52.4812C1192.1789,-45.4844 1188.7483,-35.4212 1185.7669,-26.6758"/>
<polygon fill="#000000" stroke="#000000" points="1188.9931,-25.2923 1182.4535,-16.9566 1182.3675,-27.5511 1188.9931,-25.2923"/>
</g>
<!-- 25992952 -->
<g id="node48" class="node">
<title>25992952</title>
<text text-anchor="middle" x="1337.5365" y="-57" font-family="Times,serif" font-size="14.00" fill="#000000">literal_value</text>
</g>
<!-- 45726233&#45;&gt;25992952 -->
<g id="edge47" class="edge">
<title>45726233-&gt;25992952</title>
<path fill="none" stroke="#000000" d="M1337.5365,-105.2812C1337.5365,-98.3613 1337.5365,-88.442 1337.5365,-79.7645"/>
<polygon fill="#000000" stroke="#000000" points="1341.0366,-79.7566 1337.5365,-69.7566 1334.0366,-79.7566 1341.0366,-79.7566"/>
</g>
<!-- 65695119 -->
<g id="node49" class="node">
<title>65695119</title>
<text text-anchor="middle" x="1337.5365" y="-4.2" font-family="Times,serif" font-size="14.00" fill="#000000">STRING_LITERAL:'B'</text>
</g>
<!-- 25992952&#45;&gt;65695119 -->
<g id="edge48" class="edge">
<title>25992952-&gt;65695119</title>
<path fill="none" stroke="#000000" d="M1337.5365,-52.4812C1337.5365,-45.5613 1337.5365,-35.642 1337.5365,-26.9645"/>
<polygon fill="#000000" stroke="#000000" points="1341.0366,-26.9566 1337.5365,-16.9566 1334.0366,-26.9566 1341.0366,-26.9566"/>
</g>
<!-- 37276626 -->
<g id="node52" class="node">
<title>37276626</title>
<text text-anchor="middle" x="1460.5365" y="-57" font-family="Times,serif" font-size="14.00" fill="#000000">literal_value</text>
</g>
<!-- 28152120&#45;&gt;37276626 -->
<g id="edge51" class="edge">
<title>28152120-&gt;37276626</title>
<path fill="none" stroke="#000000" d="M1459.7016,-105.2812C1459.8327,-98.3613 1460.0206,-88.442 1460.1849,-79.7645"/>
<polygon fill="#000000" stroke="#000000" points="1463.6844,-79.8211 1460.3744,-69.7566 1456.6856,-79.6885 1463.6844,-79.8211"/>
</g>
<!-- 14615348 -->
<g id="node53" class="node">
<title>14615348</title>
<text text-anchor="middle" x="1461.5365" y="-4.2" font-family="Times,serif" font-size="14.00" fill="#000000">FALSE:false</text>
</g>
<!-- 37276626&#45;&gt;14615348 -->
<g id="edge52" class="edge">
<title>37276626-&gt;14615348</title>
<path fill="none" stroke="#000000" d="M1460.7016,-52.4812C1460.8327,-45.5613 1461.0206,-35.642 1461.1849,-26.9645"/>
<polygon fill="#000000" stroke="#000000" points="1464.6844,-27.0211 1461.3744,-16.9566 1457.6856,-26.8885 1464.6844,-27.0211"/>
</g>
<!-- 66905764 -->
<g id="node57" class="node">
<title>66905764</title>
<text text-anchor="middle" x="1634.5365" y="-109.8" font-family="Times,serif" font-size="14.00" fill="#000000">OPEN_PAR:(</text>
</g>
<!-- 17800247&#45;&gt;66905764 -->
<g id="edge56" class="edge">
<title>17800247-&gt;66905764</title>
<path fill="none" stroke="#000000" d="M1744.7792,-158.4337C1723.2201,-149.7442 1689.2732,-136.0618 1664.7427,-126.1747"/>
<polygon fill="#000000" stroke="#000000" points="1665.7801,-122.8193 1655.1967,-122.3272 1663.1633,-129.3118 1665.7801,-122.8193"/>
</g>
<!-- 57157006 -->
<g id="node58" class="node">
<title>57157006</title>
<text text-anchor="middle" x="1704.5365" y="-109.8" font-family="Times,serif" font-size="14.00" fill="#000000">expr</text>
</g>
<!-- 17800247&#45;&gt;57157006 -->
<g id="edge57" class="edge">
<title>17800247-&gt;57157006</title>
<path fill="none" stroke="#000000" d="M1755.7358,-158.3168C1746.7184,-150.5116 1733.1305,-138.7503 1722.2185,-129.305"/>
<polygon fill="#000000" stroke="#000000" points="1724.3672,-126.5359 1714.5155,-122.6376 1719.7859,-131.8286 1724.3672,-126.5359"/>
</g>
<!-- 22313185 -->
<g id="node61" class="node">
<title>22313185</title>
<text text-anchor="middle" x="1765.5365" y="-109.8" font-family="Times,serif" font-size="14.00" fill="#000000">COMMA:,</text>
</g>
<!-- 17800247&#45;&gt;22313185 -->
<g id="edge60" class="edge">
<title>17800247-&gt;22313185</title>
<path fill="none" stroke="#000000" d="M1765.5365,-158.0812C1765.5365,-151.1613 1765.5365,-141.242 1765.5365,-132.5645"/>
<polygon fill="#000000" stroke="#000000" points="1769.0366,-132.5566 1765.5365,-122.5566 1762.0366,-132.5566 1769.0366,-132.5566"/>
</g>
<!-- 19604262 -->
<g id="node62" class="node">
<title>19604262</title>
<text text-anchor="middle" x="1826.5365" y="-109.8" font-family="Times,serif" font-size="14.00" fill="#000000">expr</text>
</g>
<!-- 17800247&#45;&gt;19604262 -->
<g id="edge61" class="edge">
<title>17800247-&gt;19604262</title>
<path fill="none" stroke="#000000" d="M1775.3372,-158.3168C1784.3546,-150.5116 1797.9425,-138.7503 1808.8545,-129.305"/>
<polygon fill="#000000" stroke="#000000" points="1811.2871,-131.8286 1816.5575,-122.6376 1806.7058,-126.5359 1811.2871,-131.8286"/>
</g>
<!-- 24435434 -->
<g id="node65" class="node">
<title>24435434</title>
<text text-anchor="middle" x="1887.5365" y="-109.8" font-family="Times,serif" font-size="14.00" fill="#000000">COMMA:,</text>
</g>
<!-- 17800247&#45;&gt;24435434 -->
<g id="edge64" class="edge">
<title>17800247-&gt;24435434</title>
<path fill="none" stroke="#000000" d="M1784.8678,-158.4337C1804.8564,-149.7828 1836.2796,-136.1833 1859.1004,-126.3068"/>
<polygon fill="#000000" stroke="#000000" points="1860.5085,-129.5112 1868.2957,-122.3272 1857.7281,-123.087 1860.5085,-129.5112"/>
</g>
<!-- 56485578 -->
<g id="node66" class="node">
<title>56485578</title>
<text text-anchor="middle" x="1948.5365" y="-109.8" font-family="Times,serif" font-size="14.00" fill="#000000">expr</text>
</g>
<!-- 17800247&#45;&gt;56485578 -->
<g id="edge65" class="edge">
<title>17800247-&gt;56485578</title>
<path fill="none" stroke="#000000" d="M1799.0658,-158.7882C1829.9978,-151.1391 1877.3349,-138.7839 1925.9941,-122.6601"/>
<polygon fill="#000000" stroke="#000000" points="1927.3749,-125.8885 1935.7392,-119.3854 1925.1451,-119.2532 1927.3749,-125.8885"/>
</g>
<!-- 16510398 -->
<g id="node69" class="node">
<title>16510398</title>
<text text-anchor="middle" x="2022.5365" y="-109.8" font-family="Times,serif" font-size="14.00" fill="#000000">CLOSE_PAR:)</text>
</g>
<!-- 17800247&#45;&gt;16510398 -->
<g id="edge68" class="edge">
<title>17800247-&gt;16510398</title>
<path fill="none" stroke="#000000" d="M1799.1348,-159.8973C1843.1418,-150.8562 1920.7004,-134.922 1971.859,-124.4116"/>
<polygon fill="#000000" stroke="#000000" points="1972.6299,-127.8264 1981.7209,-122.3855 1971.2211,-120.9696 1972.6299,-127.8264"/>
</g>
<!-- 49229913 -->
<g id="node59" class="node">
<title>49229913</title>
<text text-anchor="middle" x="1687.5365" y="-57" font-family="Times,serif" font-size="14.00" fill="#000000">literal_value</text>
</g>
<!-- 57157006&#45;&gt;49229913 -->
<g id="edge58" class="edge">
<title>57157006-&gt;49229913</title>
<path fill="none" stroke="#000000" d="M1701.7293,-105.2812C1699.4766,-98.2844 1696.2365,-88.2212 1693.4207,-79.4758"/>
<polygon fill="#000000" stroke="#000000" points="1696.6879,-78.2027 1690.2915,-69.7566 1690.0247,-80.3481 1696.6879,-78.2027"/>
</g>
<!-- 63455529 -->
<g id="node60" class="node">
<title>63455529</title>
<text text-anchor="middle" x="1670.5365" y="-4.2" font-family="Times,serif" font-size="14.00" fill="#000000">NUMERIC_LITERAL:3</text>
</g>
<!-- 49229913&#45;&gt;63455529 -->
<g id="edge59" class="edge">
<title>49229913-&gt;63455529</title>
<path fill="none" stroke="#000000" d="M1684.7293,-52.4812C1682.4766,-45.4844 1679.2365,-35.4212 1676.4207,-26.6758"/>
<polygon fill="#000000" stroke="#000000" points="1679.6879,-25.4027 1673.2915,-16.9566 1673.0247,-27.5481 1679.6879,-25.4027"/>
</g>
<!-- 21084764 -->
<g id="node63" class="node">
<title>21084764</title>
<text text-anchor="middle" x="1827.5365" y="-57" font-family="Times,serif" font-size="14.00" fill="#000000">literal_value</text>
</g>
<!-- 19604262&#45;&gt;21084764 -->
<g id="edge62" class="edge">
<title>19604262-&gt;21084764</title>
<path fill="none" stroke="#000000" d="M1826.7016,-105.2812C1826.8327,-98.3613 1827.0206,-88.442 1827.1849,-79.7645"/>
<polygon fill="#000000" stroke="#000000" points="1830.6844,-79.8211 1827.3744,-69.7566 1823.6856,-79.6885 1830.6844,-79.8211"/>
</g>
<!-- 26520486 -->
<g id="node64" class="node">
<title>26520486</title>
<text text-anchor="middle" x="1828.5365" y="-4.2" font-family="Times,serif" font-size="14.00" fill="#000000">STRING_LITERAL:'C'</text>
</g>
<!-- 21084764&#45;&gt;26520486 -->
<g id="edge63" class="edge">
<title>21084764-&gt;26520486</title>
<path fill="none" stroke="#000000" d="M1827.7016,-52.4812C1827.8327,-45.5613 1828.0206,-35.642 1828.1849,-26.9645"/>
<polygon fill="#000000" stroke="#000000" points="1831.6844,-27.0211 1828.3744,-16.9566 1824.6856,-26.8885 1831.6844,-27.0211"/>
</g>
<!-- 16329898 -->
<g id="node67" class="node">
<title>16329898</title>
<text text-anchor="middle" x="1948.5365" y="-57" font-family="Times,serif" font-size="14.00" fill="#000000">literal_value</text>
</g>
<!-- 56485578&#45;&gt;16329898 -->
<g id="edge66" class="edge">
<title>56485578-&gt;16329898</title>
<path fill="none" stroke="#000000" d="M1948.5365,-105.2812C1948.5365,-98.3613 1948.5365,-88.442 1948.5365,-79.7645"/>
<polygon fill="#000000" stroke="#000000" points="1952.0366,-79.7566 1948.5365,-69.7566 1945.0366,-79.7566 1952.0366,-79.7566"/>
</g>
<!-- 61967536 -->
<g id="node68" class="node">
<title>61967536</title>
<text text-anchor="middle" x="1948.5365" y="-4.2" font-family="Times,serif" font-size="14.00" fill="#000000">TRUE:true</text>
</g>
<!-- 16329898&#45;&gt;61967536 -->
<g id="edge67" class="edge">
<title>16329898-&gt;61967536</title>
<path fill="none" stroke="#000000" d="M1948.5365,-52.4812C1948.5365,-45.5613 1948.5365,-35.642 1948.5365,-26.9645"/>
<polygon fill="#000000" stroke="#000000" points="1952.0366,-26.9566 1948.5365,-16.9566 1945.0366,-26.9566 1952.0366,-26.9566"/>
</g>
<!-- 32920901 -->
<g id="node72" class="node">
<title>32920901</title>
<text text-anchor="middle" x="2123.5365" y="-109.8" font-family="Times,serif" font-size="14.00" fill="#000000">OPEN_PAR:(</text>
</g>
<!-- 47237189&#45;&gt;32920901 -->
<g id="edge71" class="edge">
<title>47237189-&gt;32920901</title>
<path fill="none" stroke="#000000" d="M2259.0256,-158.4337C2231.9405,-149.5511 2188.9465,-135.4512 2158.6677,-125.5213"/>
<polygon fill="#000000" stroke="#000000" points="2159.5208,-122.1177 2148.9281,-122.3272 2157.3394,-128.7692 2159.5208,-122.1177"/>
</g>
<!-- 2511455 -->
<g id="node73" class="node">
<title>2511455</title>
<text text-anchor="middle" x="2193.5365" y="-109.8" font-family="Times,serif" font-size="14.00" fill="#000000">expr</text>
</g>
<!-- 47237189&#45;&gt;2511455 -->
<g id="edge72" class="edge">
<title>47237189-&gt;2511455</title>
<path fill="none" stroke="#000000" d="M2269.9158,-158.3168C2254.9941,-149.6589 2231.683,-136.1333 2214.7365,-126.3007"/>
<polygon fill="#000000" stroke="#000000" points="2216.4763,-123.2637 2206.0703,-121.2723 2212.9632,-129.3183 2216.4763,-123.2637"/>
</g>
<!-- 56964711 -->
<g id="node76" class="node">
<title>56964711</title>
<text text-anchor="middle" x="2254.5365" y="-109.8" font-family="Times,serif" font-size="14.00" fill="#000000">COMMA:,</text>
</g>
<!-- 47237189&#45;&gt;56964711 -->
<g id="edge75" class="edge">
<title>47237189-&gt;56964711</title>
<path fill="none" stroke="#000000" d="M2279.5826,-158.0812C2275.4761,-150.8537 2269.5105,-140.3543 2264.4316,-131.4153"/>
<polygon fill="#000000" stroke="#000000" points="2267.3815,-129.5221 2259.3982,-122.5566 2261.2953,-132.9802 2267.3815,-129.5221"/>
</g>
<!-- 39807435 -->
<g id="node77" class="node">
<title>39807435</title>
<text text-anchor="middle" x="2315.5365" y="-109.8" font-family="Times,serif" font-size="14.00" fill="#000000">expr</text>
</g>
<!-- 47237189&#45;&gt;39807435 -->
<g id="edge76" class="edge">
<title>47237189-&gt;39807435</title>
<path fill="none" stroke="#000000" d="M2289.6555,-158.0812C2293.8989,-150.8537 2300.0633,-140.3543 2305.3116,-131.4153"/>
<polygon fill="#000000" stroke="#000000" points="2308.4679,-132.9522 2310.5127,-122.5566 2302.4314,-129.4081 2308.4679,-132.9522"/>
</g>
<!-- 45818132 -->
<g id="node80" class="node">
<title>45818132</title>
<text text-anchor="middle" x="2376.5365" y="-109.8" font-family="Times,serif" font-size="14.00" fill="#000000">COMMA:,</text>
</g>
<!-- 47237189&#45;&gt;45818132 -->
<g id="edge79" class="edge">
<title>47237189-&gt;45818132</title>
<path fill="none" stroke="#000000" d="M2299.3179,-158.3168C2313.8036,-150.0033 2336.1096,-137.2015 2353.0297,-127.4909"/>
<polygon fill="#000000" stroke="#000000" points="2354.8608,-130.4755 2361.7918,-122.4622 2351.3765,-124.4043 2354.8608,-130.4755"/>
</g>
<!-- 30496004 -->
<g id="node81" class="node">
<title>30496004</title>
<text text-anchor="middle" x="2437.5365" y="-109.8" font-family="Times,serif" font-size="14.00" fill="#000000">expr</text>
</g>
<!-- 47237189&#45;&gt;30496004 -->
<g id="edge80" class="edge">
<title>47237189-&gt;30496004</title>
<path fill="none" stroke="#000000" d="M2310.9852,-158.386C2335.8624,-150.3669 2374.3329,-137.6984 2415.7106,-122.5654"/>
<polygon fill="#000000" stroke="#000000" points="2416.9702,-125.8314 2425.1441,-119.0905 2414.5506,-119.2628 2416.9702,-125.8314"/>
</g>
<!-- 50316878 -->
<g id="node84" class="node">
<title>50316878</title>
<text text-anchor="middle" x="2511.5365" y="-109.8" font-family="Times,serif" font-size="14.00" fill="#000000">CLOSE_PAR:)</text>
</g>
<!-- 47237189&#45;&gt;50316878 -->
<g id="edge83" class="edge">
<title>47237189-&gt;50316878</title>
<path fill="none" stroke="#000000" d="M2318.0311,-159.0092C2357.1612,-149.9076 2422.1046,-134.8018 2465.8414,-124.6286"/>
<polygon fill="#000000" stroke="#000000" points="2466.7068,-128.0209 2475.6538,-122.3463 2465.1209,-121.2029 2466.7068,-128.0209"/>
</g>
<!-- 55952437 -->
<g id="node74" class="node">
<title>55952437</title>
<text text-anchor="middle" x="2175.5365" y="-57" font-family="Times,serif" font-size="14.00" fill="#000000">literal_value</text>
</g>
<!-- 2511455&#45;&gt;55952437 -->
<g id="edge73" class="edge">
<title>2511455-&gt;55952437</title>
<path fill="none" stroke="#000000" d="M2190.5642,-105.2812C2188.1789,-98.2844 2184.7483,-88.2212 2181.7669,-79.4758"/>
<polygon fill="#000000" stroke="#000000" points="2184.9931,-78.0923 2178.4535,-69.7566 2178.3675,-80.3511 2184.9931,-78.0923"/>
</g>
<!-- 57314859 -->
<g id="node75" class="node">
<title>57314859</title>
<text text-anchor="middle" x="2157.5365" y="-4.2" font-family="Times,serif" font-size="14.00" fill="#000000">NUMERIC_LITERAL:4</text>
</g>
<!-- 55952437&#45;&gt;57314859 -->
<g id="edge74" class="edge">
<title>55952437-&gt;57314859</title>
<path fill="none" stroke="#000000" d="M2172.5642,-52.4812C2170.1789,-45.4844 2166.7483,-35.4212 2163.7669,-26.6758"/>
<polygon fill="#000000" stroke="#000000" points="2166.9931,-25.2923 2160.4535,-16.9566 2160.3675,-27.5511 2166.9931,-25.2923"/>
</g>
<!-- 4407292 -->
<g id="node78" class="node">
<title>4407292</title>
<text text-anchor="middle" x="2315.5365" y="-57" font-family="Times,serif" font-size="14.00" fill="#000000">literal_value</text>
</g>
<!-- 39807435&#45;&gt;4407292 -->
<g id="edge77" class="edge">
<title>39807435-&gt;4407292</title>
<path fill="none" stroke="#000000" d="M2315.5365,-105.2812C2315.5365,-98.3613 2315.5365,-88.442 2315.5365,-79.7645"/>
<polygon fill="#000000" stroke="#000000" points="2319.0366,-79.7566 2315.5365,-69.7566 2312.0366,-79.7566 2319.0366,-79.7566"/>
</g>
<!-- 14630750 -->
<g id="node79" class="node">
<title>14630750</title>
<text text-anchor="middle" x="2315.5365" y="-4.2" font-family="Times,serif" font-size="14.00" fill="#000000">STRING_LITERAL:'D'</text>
</g>
<!-- 4407292&#45;&gt;14630750 -->
<g id="edge78" class="edge">
<title>4407292-&gt;14630750</title>
<path fill="none" stroke="#000000" d="M2315.5365,-52.4812C2315.5365,-45.5613 2315.5365,-35.642 2315.5365,-26.9645"/>
<polygon fill="#000000" stroke="#000000" points="2319.0366,-26.9566 2315.5365,-16.9566 2312.0366,-26.9566 2319.0366,-26.9566"/>
</g>
<!-- 17909200 -->
<g id="node82" class="node">
<title>17909200</title>
<text text-anchor="middle" x="2438.5365" y="-57" font-family="Times,serif" font-size="14.00" fill="#000000">literal_value</text>
</g>
<!-- 30496004&#45;&gt;17909200 -->
<g id="edge81" class="edge">
<title>30496004-&gt;17909200</title>
<path fill="none" stroke="#000000" d="M2437.7016,-105.2812C2437.8327,-98.3613 2438.0206,-88.442 2438.1849,-79.7645"/>
<polygon fill="#000000" stroke="#000000" points="2441.6844,-79.8211 2438.3744,-69.7566 2434.6856,-79.6885 2441.6844,-79.8211"/>
</g>
<!-- 5135581 -->
<g id="node83" class="node">
<title>5135581</title>
<text text-anchor="middle" x="2439.5365" y="-4.2" font-family="Times,serif" font-size="14.00" fill="#000000">FALSE:false</text>
</g>
<!-- 17909200&#45;&gt;5135581 -->
<g id="edge82" class="edge">
<title>17909200-&gt;5135581</title>
<path fill="none" stroke="#000000" d="M2438.7016,-52.4812C2438.8327,-45.5613 2439.0206,-35.642 2439.1849,-26.9645"/>
<polygon fill="#000000" stroke="#000000" points="2442.6844,-27.0211 2439.3744,-16.9566 2435.6856,-26.8885 2442.6844,-27.0211"/>
</g>
</g>
</svg>