<?xml version="1.0" encoding="UTF-8" standalone="no"?><!DOCTYPE svg PUBLIC "-//W3C//DTD SVG 1.1//EN" "http://www.w3.org/Graphics/SVG/1.1/DTD/svg11.dtd"><!-- Generated by graphviz version 2.40.1 (20161225.0304)
 --><!-- Title: G Pages: 1 --><svg xmlns="http://www.w3.org/2000/svg" xmlns:xlink="http://www.w3.org/1999/xlink" width="727pt" height="711pt" viewBox="0.00 0.00 727.20 711.20">
<g id="graph0" class="graph" transform="scale(1 1) rotate(0) translate(4 707.2)">
<title>G</title>
<polygon fill="#ffffff" stroke="transparent" points="-4,4 -4,-707.2 723.2013,-707.2 723.2013,4 -4,4"/>
<!-- 20935625 -->
<g id="node1" class="node">
<title>20935625</title>
<text text-anchor="middle" x="154.6648" y="-690.6" font-family="Times,serif" font-size="14.00" fill="#000000">parse</text>
</g>
<!-- 19212685 -->
<g id="node2" class="node">
<title>19212685</title>
<text text-anchor="middle" x="109.6648" y="-637.8" font-family="Times,serif" font-size="14.00" fill="#000000">sql_stmt_list</text>
</g>
<!-- 20935625&#45;&gt;19212685 -->
<g id="edge1" class="edge">
<title>20935625-&gt;19212685</title>
<path fill="none" stroke="#000000" d="M147.234,-686.0812C140.8121,-678.5462 131.3592,-667.4548 123.5423,-658.283"/>
<polygon fill="#000000" stroke="#000000" points="126.1077,-655.8972 116.9574,-650.5566 120.7801,-660.4378 126.1077,-655.8972"/>
</g>
<!-- 63680387 -->
<g id="node40" class="node">
<title>63680387</title>
<text text-anchor="middle" x="199.6648" y="-637.8" font-family="Times,serif" font-size="14.00" fill="#000000">EOF:&lt;EOF&gt;</text>
</g>
<!-- 20935625&#45;&gt;63680387 -->
<g id="edge39" class="edge">
<title>20935625-&gt;63680387</title>
<path fill="none" stroke="#000000" d="M162.0956,-686.0812C168.5175,-678.5462 177.9704,-667.4548 185.7873,-658.283"/>
<polygon fill="#000000" stroke="#000000" points="188.5495,-660.4378 192.3722,-650.5566 183.2219,-655.8972 188.5495,-660.4378"/>
</g>
<!-- 1897502 -->
<g id="node3" class="node">
<title>1897502</title>
<text text-anchor="middle" x="109.6648" y="-585" font-family="Times,serif" font-size="14.00" fill="#000000">sql_stmt</text>
</g>
<!-- 19212685&#45;&gt;1897502 -->
<g id="edge2" class="edge">
<title>19212685-&gt;1897502</title>
<path fill="none" stroke="#000000" d="M109.6648,-633.2812C109.6648,-626.3613 109.6648,-616.442 109.6648,-607.7645"/>
<polygon fill="#000000" stroke="#000000" points="113.1649,-607.7566 109.6648,-597.7566 106.1649,-607.7566 113.1649,-607.7566"/>
</g>
<!-- 25868768 -->
<g id="node4" class="node">
<title>25868768</title>
<text text-anchor="middle" x="109.6648" y="-532.2" font-family="Times,serif" font-size="14.00" fill="#000000">select_stmt</text>
</g>
<!-- 1897502&#45;&gt;25868768 -->
<g id="edge3" class="edge">
<title>1897502-&gt;25868768</title>
<path fill="none" stroke="#000000" d="M109.6648,-580.4812C109.6648,-573.5613 109.6648,-563.642 109.6648,-554.9645"/>
<polygon fill="#000000" stroke="#000000" points="113.1649,-554.9566 109.6648,-544.9566 106.1649,-554.9566 113.1649,-554.9566"/>
</g>
<!-- 59610102 -->
<g id="node5" class="node">
<title>59610102</title>
<text text-anchor="middle" x="109.6648" y="-479.4" font-family="Times,serif" font-size="14.00" fill="#000000">select_core</text>
</g>
<!-- 25868768&#45;&gt;59610102 -->
<g id="edge4" class="edge">
<title>25868768-&gt;59610102</title>
<path fill="none" stroke="#000000" d="M109.6648,-527.6812C109.6648,-520.7613 109.6648,-510.842 109.6648,-502.1645"/>
<polygon fill="#000000" stroke="#000000" points="113.1649,-502.1566 109.6648,-492.1566 106.1649,-502.1566 113.1649,-502.1566"/>
</g>
<!-- 35213894 -->
<g id="node6" class="node">
<title>35213894</title>
<text text-anchor="middle" x="25.6648" y="-426.6" font-family="Times,serif" font-size="14.00" fill="#000000">SELECT</text>
</g>
<!-- 59610102&#45;&gt;35213894 -->
<g id="edge5" class="edge">
<title>59610102-&gt;35213894</title>
<path fill="none" stroke="#000000" d="M96.1687,-475.1168C83.1876,-466.9572 63.3282,-454.4741 47.9908,-444.8335"/>
<polygon fill="#000000" stroke="#000000" points="49.4564,-441.6207 39.1274,-439.2622 45.7311,-447.5472 49.4564,-441.6207"/>
</g>
<!-- 47759218 -->
<g id="node7" class="node">
<title>47759218</title>
<text text-anchor="middle" x="109.6648" y="-426.6" font-family="Times,serif" font-size="14.00" fill="#000000">result_column</text>
</g>
<!-- 59610102&#45;&gt;47759218 -->
<g id="edge6" class="edge">
<title>59610102-&gt;47759218</title>
<path fill="none" stroke="#000000" d="M109.6648,-474.8812C109.6648,-467.9613 109.6648,-458.042 109.6648,-449.3645"/>
<polygon fill="#000000" stroke="#000000" points="113.1649,-449.3566 109.6648,-439.3566 106.1649,-449.3566 113.1649,-449.3566"/>
</g>
<!-- 47943344 -->
<g id="node9" class="node">
<title>47943344</title>
<text text-anchor="middle" x="231.6648" y="-426.6" font-family="Times,serif" font-size="14.00" fill="#000000">from_clause</text>
</g>
<!-- 59610102&#45;&gt;47943344 -->
<g id="edge8" class="edge">
<title>59610102-&gt;47943344</title>
<path fill="none" stroke="#000000" d="M128.9961,-475.2337C148.9847,-466.5828 180.4079,-452.9833 203.2287,-443.1068"/>
<polygon fill="#000000" stroke="#000000" points="204.6368,-446.3112 212.424,-439.1272 201.8564,-439.887 204.6368,-446.3112"/>
</g>
<!-- 58500319 -->
<g id="node8" class="node">
<title>58500319</title>
<text text-anchor="middle" x="80.6648" y="-373.8" font-family="Times,serif" font-size="14.00" fill="#000000">STAR:*</text>
</g>
<!-- 47759218&#45;&gt;58500319 -->
<g id="edge7" class="edge">
<title>47759218-&gt;58500319</title>
<path fill="none" stroke="#000000" d="M104.876,-422.0812C100.9064,-414.8537 95.1397,-404.3543 90.23,-395.4153"/>
<polygon fill="#000000" stroke="#000000" points="93.2463,-393.6366 85.3645,-386.5566 87.1109,-397.0065 93.2463,-393.6366"/>
</g>
<!-- 413642 -->
<g id="node10" class="node">
<title>413642</title>
<text text-anchor="middle" x="141.6648" y="-373.8" font-family="Times,serif" font-size="14.00" fill="#000000">FROM</text>
</g>
<!-- 47943344&#45;&gt;413642 -->
<g id="edge9" class="edge">
<title>47943344-&gt;413642</title>
<path fill="none" stroke="#000000" d="M217.2047,-422.3168C203.1652,-414.0802 181.6163,-401.4382 165.1217,-391.7614"/>
<polygon fill="#000000" stroke="#000000" points="166.4853,-388.5035 156.089,-386.4622 162.9432,-394.5412 166.4853,-388.5035"/>
</g>
<!-- 20268497 -->
<g id="node11" class="node">
<title>20268497</title>
<text text-anchor="middle" x="231.6648" y="-373.8" font-family="Times,serif" font-size="14.00" fill="#000000">table_or_subquery</text>
</g>
<!-- 47943344&#45;&gt;20268497 -->
<g id="edge10" class="edge">
<title>47943344-&gt;20268497</title>
<path fill="none" stroke="#000000" d="M231.6648,-422.0812C231.6648,-415.1613 231.6648,-405.242 231.6648,-396.5645"/>
<polygon fill="#000000" stroke="#000000" points="235.1649,-396.5566 231.6648,-386.5566 228.1649,-396.5566 235.1649,-396.5566"/>
</g>
<!-- 38016782 -->
<g id="node25" class="node">
<title>38016782</title>
<text text-anchor="middle" x="332.6648" y="-373.8" font-family="Times,serif" font-size="14.00" fill="#000000">COMMA:,</text>
</g>
<!-- 47943344&#45;&gt;38016782 -->
<g id="edge24" class="edge">
<title>47943344-&gt;38016782</title>
<path fill="none" stroke="#000000" d="M247.8922,-422.3168C263.9422,-413.9263 288.7373,-400.9641 307.3729,-391.2219"/>
<polygon fill="#000000" stroke="#000000" points="309.2371,-394.1968 316.4777,-386.4622 305.9941,-387.9934 309.2371,-394.1968"/>
</g>
<!-- 50883029 -->
<g id="node26" class="node">
<title>50883029</title>
<text text-anchor="middle" x="473.6648" y="-373.8" font-family="Times,serif" font-size="14.00" fill="#000000">table_or_subquery</text>
</g>
<!-- 47943344&#45;&gt;50883029 -->
<g id="edge25" class="edge">
<title>47943344-&gt;50883029</title>
<path fill="none" stroke="#000000" d="M266.3375,-423.235C308.101,-414.123 378.4941,-398.7645 425.5115,-388.5062"/>
<polygon fill="#000000" stroke="#000000" points="426.4391,-391.8862 435.4631,-386.3349 424.9469,-385.0471 426.4391,-391.8862"/>
</g>
<!-- 53632297 -->
<g id="node12" class="node">
<title>53632297</title>
<text text-anchor="middle" x="122.6648" y="-321" font-family="Times,serif" font-size="14.00" fill="#000000">OPEN_PAR:(</text>
</g>
<!-- 20268497&#45;&gt;53632297 -->
<g id="edge11" class="edge">
<title>20268497-&gt;53632297</title>
<path fill="none" stroke="#000000" d="M214.1521,-369.5168C196.6719,-361.0493 169.5799,-347.9259 149.4082,-338.1546"/>
<polygon fill="#000000" stroke="#000000" points="150.6596,-334.8718 140.1341,-333.6622 147.608,-341.1716 150.6596,-334.8718"/>
</g>
<!-- 10736886 -->
<g id="node13" class="node">
<title>10736886</title>
<text text-anchor="middle" x="211.6648" y="-321" font-family="Times,serif" font-size="14.00" fill="#000000">select_stmt</text>
</g>
<!-- 20268497&#45;&gt;10736886 -->
<g id="edge12" class="edge">
<title>20268497-&gt;10736886</title>
<path fill="none" stroke="#000000" d="M228.3622,-369.2812C225.6828,-362.2075 221.8162,-351.9996 218.4784,-343.1879"/>
<polygon fill="#000000" stroke="#000000" points="221.7213,-341.8684 214.9059,-333.7566 215.1752,-344.348 221.7213,-341.8684"/>
</g>
<!-- 10362833 -->
<g id="node24" class="node">
<title>10362833</title>
<text text-anchor="middle" x="304.6648" y="-321" font-family="Times,serif" font-size="14.00" fill="#000000">CLOSE_PAR:)</text>
</g>
<!-- 20268497&#45;&gt;10362833 -->
<g id="edge23" class="edge">
<title>20268497-&gt;10362833</title>
<path fill="none" stroke="#000000" d="M243.3935,-369.5168C254.3964,-361.5585 271.0855,-349.4875 284.2688,-339.9522"/>
<polygon fill="#000000" stroke="#000000" points="286.6712,-342.5342 292.7227,-333.8376 282.5688,-336.8623 286.6712,-342.5342"/>
</g>
<!-- 56345371 -->
<g id="node14" class="node">
<title>56345371</title>
<text text-anchor="middle" x="211.6648" y="-268.2" font-family="Times,serif" font-size="14.00" fill="#000000">select_core</text>
</g>
<!-- 10736886&#45;&gt;56345371 -->
<g id="edge13" class="edge">
<title>10736886-&gt;56345371</title>
<path fill="none" stroke="#000000" d="M211.6648,-316.4812C211.6648,-309.5613 211.6648,-299.642 211.6648,-290.9645"/>
<polygon fill="#000000" stroke="#000000" points="215.1649,-290.9566 211.6648,-280.9566 208.1649,-290.9566 215.1649,-290.9566"/>
</g>
<!-- 9459773 -->
<g id="node15" class="node">
<title>9459773</title>
<text text-anchor="middle" x="127.6648" y="-215.4" font-family="Times,serif" font-size="14.00" fill="#000000">SELECT</text>
</g>
<!-- 56345371&#45;&gt;9459773 -->
<g id="edge14" class="edge">
<title>56345371-&gt;9459773</title>
<path fill="none" stroke="#000000" d="M198.1687,-263.9168C185.1876,-255.7572 165.3282,-243.2741 149.9908,-233.6335"/>
<polygon fill="#000000" stroke="#000000" points="151.4564,-230.4207 141.1274,-228.0622 147.7311,-236.3472 151.4564,-230.4207"/>
</g>
<!-- 60875712 -->
<g id="node16" class="node">
<title>60875712</title>
<text text-anchor="middle" x="211.6648" y="-215.4" font-family="Times,serif" font-size="14.00" fill="#000000">result_column</text>
</g>
<!-- 56345371&#45;&gt;60875712 -->
<g id="edge15" class="edge">
<title>56345371-&gt;60875712</title>
<path fill="none" stroke="#000000" d="M211.6648,-263.6812C211.6648,-256.7613 211.6648,-246.842 211.6648,-238.1645"/>
<polygon fill="#000000" stroke="#000000" points="215.1649,-238.1566 211.6648,-228.1566 208.1649,-238.1566 215.1649,-238.1566"/>
</g>
<!-- 66587959 -->
<g id="node18" class="node">
<title>66587959</title>
<text text-anchor="middle" x="304.6648" y="-215.4" font-family="Times,serif" font-size="14.00" fill="#000000">from_clause</text>
</g>
<!-- 56345371&#45;&gt;66587959 -->
<g id="edge17" class="edge">
<title>56345371-&gt;66587959</title>
<path fill="none" stroke="#000000" d="M226.6069,-263.9168C241.25,-255.6033 263.7985,-242.8015 280.9025,-233.0909"/>
<polygon fill="#000000" stroke="#000000" points="282.7916,-236.0431 289.7598,-228.0622 279.3356,-229.9558 282.7916,-236.0431"/>
</g>
<!-- 30119879 -->
<g id="node17" class="node">
<title>30119879</title>
<text text-anchor="middle" x="211.6648" y="-162.6" font-family="Times,serif" font-size="14.00" fill="#000000">STAR:*</text>
</g>
<!-- 60875712&#45;&gt;30119879 -->
<g id="edge16" class="edge">
<title>60875712-&gt;30119879</title>
<path fill="none" stroke="#000000" d="M211.6648,-210.8812C211.6648,-203.9613 211.6648,-194.042 211.6648,-185.3645"/>
<polygon fill="#000000" stroke="#000000" points="215.1649,-185.3566 211.6648,-175.3566 208.1649,-185.3566 215.1649,-185.3566"/>
</g>
<!-- 41584564 -->
<g id="node19" class="node">
<title>41584564</title>
<text text-anchor="middle" x="288.6648" y="-162.6" font-family="Times,serif" font-size="14.00" fill="#000000">FROM</text>
</g>
<!-- 66587959&#45;&gt;41584564 -->
<g id="edge18" class="edge">
<title>66587959-&gt;41584564</title>
<path fill="none" stroke="#000000" d="M302.0227,-210.8812C299.9025,-203.8844 296.853,-193.8212 294.2029,-185.0758"/>
<polygon fill="#000000" stroke="#000000" points="297.5074,-183.9118 291.2577,-175.3566 290.8083,-185.9419 297.5074,-183.9118"/>
</g>
<!-- 24377762 -->
<g id="node20" class="node">
<title>24377762</title>
<text text-anchor="middle" x="378.6648" y="-162.6" font-family="Times,serif" font-size="14.00" fill="#000000">table_or_subquery</text>
</g>
<!-- 66587959&#45;&gt;24377762 -->
<g id="edge19" class="edge">
<title>66587959-&gt;24377762</title>
<path fill="none" stroke="#000000" d="M316.5542,-211.1168C327.815,-203.082 344.9514,-190.855 358.3739,-181.2778"/>
<polygon fill="#000000" stroke="#000000" points="360.4517,-184.095 366.5591,-175.4376 356.3859,-178.3967 360.4517,-184.095"/>
</g>
<!-- 53659685 -->
<g id="node21" class="node">
<title>53659685</title>
<text text-anchor="middle" x="378.6648" y="-109.8" font-family="Times,serif" font-size="14.00" fill="#000000">table_name</text>
</g>
<!-- 24377762&#45;&gt;53659685 -->
<g id="edge20" class="edge">
<title>24377762-&gt;53659685</title>
<path fill="none" stroke="#000000" d="M378.6648,-158.0812C378.6648,-151.1613 378.6648,-141.242 378.6648,-132.5645"/>
<polygon fill="#000000" stroke="#000000" points="382.1649,-132.5566 378.6648,-122.5566 375.1649,-132.5566 382.1649,-132.5566"/>
</g>
<!-- 12078880 -->
<g id="node22" class="node">
<title>12078880</title>
<text text-anchor="middle" x="378.6648" y="-57" font-family="Times,serif" font-size="14.00" fill="#000000">any_name</text>
</g>
<!-- 53659685&#45;&gt;12078880 -->
<g id="edge21" class="edge">
<title>53659685-&gt;12078880</title>
<path fill="none" stroke="#000000" d="M378.6648,-105.2812C378.6648,-98.3613 378.6648,-88.442 378.6648,-79.7645"/>
<polygon fill="#000000" stroke="#000000" points="382.1649,-79.7566 378.6648,-69.7566 375.1649,-79.7566 382.1649,-79.7566"/>
</g>
<!-- 54994232 -->
<g id="node23" class="node">
<title>54994232</title>
<text text-anchor="middle" x="378.6648" y="-4.2" font-family="Times,serif" font-size="14.00" fill="#000000">IDENTIFIER:table1</text>
</g>
<!-- 12078880&#45;&gt;54994232 -->
<g id="edge22" class="edge">
<title>12078880-&gt;54994232</title>
<path fill="none" stroke="#000000" d="M378.6648,-52.4812C378.6648,-45.5613 378.6648,-35.642 378.6648,-26.9645"/>
<polygon fill="#000000" stroke="#000000" points="382.1649,-26.9566 378.6648,-16.9566 375.1649,-26.9566 382.1649,-26.9566"/>
</g>
<!-- 10240456 -->
<g id="node27" class="node">
<title>10240456</title>
<text text-anchor="middle" x="405.6648" y="-321" font-family="Times,serif" font-size="14.00" fill="#000000">OPEN_PAR:(</text>
</g>
<!-- 50883029&#45;&gt;10240456 -->
<g id="edge26" class="edge">
<title>50883029-&gt;10240456</title>
<path fill="none" stroke="#000000" d="M462.7394,-369.5168C452.5887,-361.6351 437.2426,-349.7193 425.0189,-340.2279"/>
<polygon fill="#000000" stroke="#000000" points="426.8341,-337.2061 416.789,-333.8376 422.541,-342.7351 426.8341,-337.2061"/>
</g>
<!-- 32020299 -->
<g id="node28" class="node">
<title>32020299</title>
<text text-anchor="middle" x="494.6648" y="-321" font-family="Times,serif" font-size="14.00" fill="#000000">select_stmt</text>
</g>
<!-- 50883029&#45;&gt;32020299 -->
<g id="edge27" class="edge">
<title>50883029-&gt;32020299</title>
<path fill="none" stroke="#000000" d="M477.1325,-369.2812C479.9459,-362.2075 484.0059,-351.9996 487.5105,-343.1879"/>
<polygon fill="#000000" stroke="#000000" points="490.8181,-344.3422 491.2616,-333.7566 484.3136,-341.7551 490.8181,-344.3422"/>
</g>
<!-- 32799678 -->
<g id="node39" class="node">
<title>32799678</title>
<text text-anchor="middle" x="587.6648" y="-321" font-family="Times,serif" font-size="14.00" fill="#000000">CLOSE_PAR:)</text>
</g>
<!-- 50883029&#45;&gt;32799678 -->
<g id="edge38" class="edge">
<title>50883029-&gt;32799678</title>
<path fill="none" stroke="#000000" d="M491.7284,-369.6337C510.2396,-361.0601 539.2455,-347.6258 560.5203,-337.7722"/>
<polygon fill="#000000" stroke="#000000" points="562.0826,-340.9058 569.6857,-333.5272 559.1407,-334.554 562.0826,-340.9058"/>
</g>
<!-- 25490820 -->
<g id="node29" class="node">
<title>25490820</title>
<text text-anchor="middle" x="494.6648" y="-268.2" font-family="Times,serif" font-size="14.00" fill="#000000">select_core</text>
</g>
<!-- 32020299&#45;&gt;25490820 -->
<g id="edge28" class="edge">
<title>32020299-&gt;25490820</title>
<path fill="none" stroke="#000000" d="M494.6648,-316.4812C494.6648,-309.5613 494.6648,-299.642 494.6648,-290.9645"/>
<polygon fill="#000000" stroke="#000000" points="498.1649,-290.9566 494.6648,-280.9566 491.1649,-290.9566 498.1649,-290.9566"/>
</g>
<!-- 41090645 -->
<g id="node30" class="node">
<title>41090645</title>
<text text-anchor="middle" x="410.6648" y="-215.4" font-family="Times,serif" font-size="14.00" fill="#000000">SELECT</text>
</g>
<!-- 25490820&#45;&gt;41090645 -->
<g id="edge29" class="edge">
<title>25490820-&gt;41090645</title>
<path fill="none" stroke="#000000" d="M481.1687,-263.9168C468.1876,-255.7572 448.3282,-243.2741 432.9908,-233.6335"/>
<polygon fill="#000000" stroke="#000000" points="434.4564,-230.4207 424.1274,-228.0622 430.7311,-236.3472 434.4564,-230.4207"/>
</g>
<!-- 175715 -->
<g id="node31" class="node">
<title>175715</title>
<text text-anchor="middle" x="494.6648" y="-215.4" font-family="Times,serif" font-size="14.00" fill="#000000">result_column</text>
</g>
<!-- 25490820&#45;&gt;175715 -->
<g id="edge30" class="edge">
<title>25490820-&gt;175715</title>
<path fill="none" stroke="#000000" d="M494.6648,-263.6812C494.6648,-256.7613 494.6648,-246.842 494.6648,-238.1645"/>
<polygon fill="#000000" stroke="#000000" points="498.1649,-238.1566 494.6648,-228.1566 491.1649,-238.1566 498.1649,-238.1566"/>
</g>
<!-- 19240069 -->
<g id="node33" class="node">
<title>19240069</title>
<text text-anchor="middle" x="587.6648" y="-215.4" font-family="Times,serif" font-size="14.00" fill="#000000">from_clause</text>
</g>
<!-- 25490820&#45;&gt;19240069 -->
<g id="edge32" class="edge">
<title>25490820-&gt;19240069</title>
<path fill="none" stroke="#000000" d="M509.6069,-263.9168C524.25,-255.6033 546.7985,-242.8015 563.9025,-233.0909"/>
<polygon fill="#000000" stroke="#000000" points="565.7916,-236.0431 572.7598,-228.0622 562.3356,-229.9558 565.7916,-236.0431"/>
</g>
<!-- 8610066 -->
<g id="node32" class="node">
<title>8610066</title>
<text text-anchor="middle" x="494.6648" y="-162.6" font-family="Times,serif" font-size="14.00" fill="#000000">STAR:*</text>
</g>
<!-- 175715&#45;&gt;8610066 -->
<g id="edge31" class="edge">
<title>175715-&gt;8610066</title>
<path fill="none" stroke="#000000" d="M494.6648,-210.8812C494.6648,-203.9613 494.6648,-194.042 494.6648,-185.3645"/>
<polygon fill="#000000" stroke="#000000" points="498.1649,-185.3566 494.6648,-175.3566 491.1649,-185.3566 498.1649,-185.3566"/>
</g>
<!-- 3239330 -->
<g id="node34" class="node">
<title>3239330</title>
<text text-anchor="middle" x="571.6648" y="-162.6" font-family="Times,serif" font-size="14.00" fill="#000000">FROM</text>
</g>
<!-- 19240069&#45;&gt;3239330 -->
<g id="edge33" class="edge">
<title>19240069-&gt;3239330</title>
<path fill="none" stroke="#000000" d="M585.0227,-210.8812C582.9025,-203.8844 579.853,-193.8212 577.2029,-185.0758"/>
<polygon fill="#000000" stroke="#000000" points="580.5074,-183.9118 574.2577,-175.3566 573.8083,-185.9419 580.5074,-183.9118"/>
</g>
<!-- 24509451 -->
<g id="node35" class="node">
<title>24509451</title>
<text text-anchor="middle" x="661.6648" y="-162.6" font-family="Times,serif" font-size="14.00" fill="#000000">table_or_subquery</text>
</g>
<!-- 19240069&#45;&gt;24509451 -->
<g id="edge34" class="edge">
<title>19240069-&gt;24509451</title>
<path fill="none" stroke="#000000" d="M599.5542,-211.1168C610.815,-203.082 627.9514,-190.855 641.3739,-181.2778"/>
<polygon fill="#000000" stroke="#000000" points="643.4517,-184.095 649.5591,-175.4376 639.3859,-178.3967 643.4517,-184.095"/>
</g>
<!-- 60112420 -->
<g id="node36" class="node">
<title>60112420</title>
<text text-anchor="middle" x="661.6648" y="-109.8" font-family="Times,serif" font-size="14.00" fill="#000000">table_name</text>
</g>
<!-- 24509451&#45;&gt;60112420 -->
<g id="edge35" class="edge">
<title>24509451-&gt;60112420</title>
<path fill="none" stroke="#000000" d="M661.6648,-158.0812C661.6648,-151.1613 661.6648,-141.242 661.6648,-132.5645"/>
<polygon fill="#000000" stroke="#000000" points="665.1649,-132.5566 661.6648,-122.5566 658.1649,-132.5566 665.1649,-132.5566"/>
</g>
<!-- 59827475 -->
<g id="node37" class="node">
<title>59827475</title>
<text text-anchor="middle" x="661.6648" y="-57" font-family="Times,serif" font-size="14.00" fill="#000000">any_name</text>
</g>
<!-- 60112420&#45;&gt;59827475 -->
<g id="edge36" class="edge">
<title>60112420-&gt;59827475</title>
<path fill="none" stroke="#000000" d="M661.6648,-105.2812C661.6648,-98.3613 661.6648,-88.442 661.6648,-79.7645"/>
<polygon fill="#000000" stroke="#000000" points="665.1649,-79.7566 661.6648,-69.7566 658.1649,-79.7566 665.1649,-79.7566"/>
</g>
<!-- 45865146 -->
<g id="node38" class="node">
<title>45865146</title>
<text text-anchor="middle" x="661.6648" y="-4.2" font-family="Times,serif" font-size="14.00" fill="#000000">IDENTIFIER:table2</text>
</g>
<!-- 59827475&#45;&gt;45865146 -->
<g id="edge37" class="edge">
<title>59827475-&gt;45865146</title>
<path fill="none" stroke="#000000" d="M661.6648,-52.4812C661.6648,-45.5613 661.6648,-35.642 661.6648,-26.9645"/>
<polygon fill="#000000" stroke="#000000" points="665.1649,-26.9566 661.6648,-16.9566 658.1649,-26.9566 665.1649,-26.9566"/>
</g>
</g>
</svg>