<?xml version="1.0" encoding="UTF-8" standalone="no"?><!DOCTYPE svg PUBLIC "-//W3C//DTD SVG 1.1//EN" "http://www.w3.org/Graphics/SVG/1.1/DTD/svg11.dtd"><!-- Generated by graphviz version 2.40.1 (20161225.0304)
 --><!-- Title: G Pages: 1 --><svg xmlns="http://www.w3.org/2000/svg" xmlns:xlink="http://www.w3.org/1999/xlink" width="198pt" height="404pt" viewBox="0.00 0.00 197.92 404.00">
<g id="graph0" class="graph" transform="scale(1 1) rotate(0) translate(4 400)">
<title>G</title>
<polygon fill="#ffffff" stroke="transparent" points="-4,4 -4,-400 193.9151,-400 193.9151,4 -4,4"/>
<!-- table2 -->
<g id="node1" class="node">
<title>table2</title>
<ellipse fill="none" stroke="#000000" cx="47.5147" cy="-18" rx="34.769" ry="18"/>
<text text-anchor="middle" x="47.5147" y="-13.8" font-family="Times,serif" font-size="14.00" fill="#000000">table2</text>
</g>
<!-- 105274956SELECT_FROM16104337 -->
<g id="node2" class="node">
<title>105274956SELECT_FROM16104337</title>
<ellipse fill="none" stroke="#000000" cx="47.5147" cy="-90" rx="38.3011" ry="18"/>
<text text-anchor="middle" x="47.5147" y="-85.8" font-family="Times,serif" font-size="14.00" fill="#000000">FROM</text>
</g>
<!-- table2&#45;&gt;105274956SELECT_FROM16104337 -->
<g id="edge1" class="edge">
<title>table2-&gt;105274956SELECT_FROM16104337</title>
<path fill="none" stroke="#000000" d="M47.5147,-36.1686C47.5147,-43.869 47.5147,-53.0257 47.5147,-61.5834"/>
<polygon fill="#000000" stroke="#000000" points="44.0148,-61.5867 47.5147,-71.5867 51.0148,-61.5868 44.0148,-61.5867"/>
</g>
<!-- 16104337 -->
<g id="node3" class="node">
<title>16104337</title>
<ellipse fill="none" stroke="#000000" cx="47.5147" cy="-162" rx="47.5293" ry="18"/>
<text text-anchor="middle" x="47.5147" y="-157.8" font-family="Times,serif" font-size="14.00" fill="#000000">RESULT</text>
</g>
<!-- 105274956SELECT_FROM16104337&#45;&gt;16104337 -->
<g id="edge2" class="edge">
<title>105274956SELECT_FROM16104337-&gt;16104337</title>
<path fill="none" stroke="#000000" d="M47.5147,-108.1686C47.5147,-115.869 47.5147,-125.0257 47.5147,-133.5834"/>
<polygon fill="#000000" stroke="#000000" points="44.0148,-133.5867 47.5147,-143.5867 51.0148,-133.5868 44.0148,-133.5867"/>
</g>
<!-- 16104337EXCEPT37457466 -->
<g id="node6" class="node">
<title>16104337EXCEPT37457466</title>
<ellipse fill="none" stroke="#000000" cx="99.5147" cy="-234" rx="47.5293" ry="18"/>
<text text-anchor="middle" x="99.5147" y="-229.8" font-family="Times,serif" font-size="14.00" fill="#000000">EXCEPT</text>
</g>
<!-- 16104337&#45;&gt;16104337EXCEPT37457466 -->
<g id="edge5" class="edge">
<title>16104337-&gt;16104337EXCEPT37457466</title>
<path fill="none" stroke="#000000" d="M60.1024,-179.4292C66.3159,-188.0325 73.9367,-198.5844 80.8155,-208.1089"/>
<polygon fill="#000000" stroke="#000000" points="78.1703,-210.4242 86.8626,-216.4818 83.845,-206.3257 78.1703,-210.4242"/>
</g>
<!-- table1 -->
<g id="node4" class="node">
<title>table1</title>
<ellipse fill="none" stroke="#000000" cx="151.5147" cy="-90" rx="34.769" ry="18"/>
<text text-anchor="middle" x="151.5147" y="-85.8" font-family="Times,serif" font-size="14.00" fill="#000000">table1</text>
</g>
<!-- 1515238127SELECT_FROM37457466 -->
<g id="node5" class="node">
<title>1515238127SELECT_FROM37457466</title>
<ellipse fill="none" stroke="#000000" cx="151.5147" cy="-162" rx="38.3011" ry="18"/>
<text text-anchor="middle" x="151.5147" y="-157.8" font-family="Times,serif" font-size="14.00" fill="#000000">FROM</text>
</g>
<!-- table1&#45;&gt;1515238127SELECT_FROM37457466 -->
<g id="edge3" class="edge">
<title>table1-&gt;1515238127SELECT_FROM37457466</title>
<path fill="none" stroke="#000000" d="M151.5147,-108.1686C151.5147,-115.869 151.5147,-125.0257 151.5147,-133.5834"/>
<polygon fill="#000000" stroke="#000000" points="148.0148,-133.5867 151.5147,-143.5867 155.0148,-133.5868 148.0148,-133.5867"/>
</g>
<!-- 1515238127SELECT_FROM37457466&#45;&gt;16104337EXCEPT37457466 -->
<g id="edge4" class="edge">
<title>1515238127SELECT_FROM37457466-&gt;16104337EXCEPT37457466</title>
<path fill="none" stroke="#000000" d="M139.1914,-179.063C132.8731,-187.8114 125.0484,-198.6455 118.022,-208.3744"/>
<polygon fill="#000000" stroke="#000000" points="115.1283,-206.4033 112.1107,-216.5593 120.803,-210.5017 115.1283,-206.4033"/>
</g>
<!-- 26747549PROJECT37457466 -->
<g id="node7" class="node">
<title>26747549PROJECT37457466</title>
<ellipse fill="none" stroke="#000000" cx="99.5147" cy="-306" rx="51.6227" ry="18"/>
<text text-anchor="middle" x="99.5147" y="-301.8" font-family="Times,serif" font-size="14.00" fill="#000000">PROJECT</text>
</g>
<!-- 16104337EXCEPT37457466&#45;&gt;26747549PROJECT37457466 -->
<g id="edge6" class="edge">
<title>16104337EXCEPT37457466-&gt;26747549PROJECT37457466</title>
<path fill="none" stroke="#000000" d="M99.5147,-252.1686C99.5147,-259.869 99.5147,-269.0257 99.5147,-277.5834"/>
<polygon fill="#000000" stroke="#000000" points="96.0148,-277.5867 99.5147,-287.5867 103.0148,-277.5868 96.0148,-277.5867"/>
</g>
<!-- 37457466 -->
<g id="node8" class="node">
<title>37457466</title>
<ellipse fill="none" stroke="#000000" cx="99.5147" cy="-378" rx="47.5293" ry="18"/>
<text text-anchor="middle" x="99.5147" y="-373.8" font-family="Times,serif" font-size="14.00" fill="#000000">RESULT</text>
</g>
<!-- 26747549PROJECT37457466&#45;&gt;37457466 -->
<g id="edge7" class="edge">
<title>26747549PROJECT37457466-&gt;37457466</title>
<path fill="none" stroke="#000000" d="M99.5147,-324.1686C99.5147,-331.869 99.5147,-341.0257 99.5147,-349.5834"/>
<polygon fill="#000000" stroke="#000000" points="96.0148,-349.5867 99.5147,-359.5867 103.0148,-349.5868 96.0148,-349.5867"/>
</g>
</g>
</svg>