<?xml version="1.0" encoding="UTF-8" standalone="no"?><!DOCTYPE svg PUBLIC "-//W3C//DTD SVG 1.1//EN" "http://www.w3.org/Graphics/SVG/1.1/DTD/svg11.dtd"><!-- Generated by graphviz version 2.40.1 (20161225.0304)
 --><!-- Title: G Pages: 1 --><svg xmlns="http://www.w3.org/2000/svg" xmlns:xlink="http://www.w3.org/1999/xlink" width="594pt" height="553pt" viewBox="0.00 0.00 594.04 552.80">
<g id="graph0" class="graph" transform="scale(1 1) rotate(0) translate(4 548.8)">
<title>G</title>
<polygon fill="#ffffff" stroke="transparent" points="-4,4 -4,-548.8 590.0393,-548.8 590.0393,4 -4,4"/>
<!-- 64678392 -->
<g id="node1" class="node">
<title>64678392</title>
<text text-anchor="middle" x="364.6648" y="-532.2" font-family="Times,serif" font-size="14.00" fill="#000000">parse</text>
</g>
<!-- 62789744 -->
<g id="node2" class="node">
<title>62789744</title>
<text text-anchor="middle" x="319.6648" y="-479.4" font-family="Times,serif" font-size="14.00" fill="#000000">sql_stmt_list</text>
</g>
<!-- 64678392&#45;&gt;62789744 -->
<g id="edge1" class="edge">
<title>64678392-&gt;62789744</title>
<path fill="none" stroke="#000000" d="M357.234,-527.6812C350.8121,-520.1462 341.3592,-509.0548 333.5423,-499.883"/>
<polygon fill="#000000" stroke="#000000" points="336.1077,-497.4972 326.9574,-492.1566 330.7801,-502.0378 336.1077,-497.4972"/>
</g>
<!-- 60324811 -->
<g id="node32" class="node">
<title>60324811</title>
<text text-anchor="middle" x="409.6648" y="-479.4" font-family="Times,serif" font-size="14.00" fill="#000000">EOF:&lt;EOF&gt;</text>
</g>
<!-- 64678392&#45;&gt;60324811 -->
<g id="edge31" class="edge">
<title>64678392-&gt;60324811</title>
<path fill="none" stroke="#000000" d="M372.0956,-527.6812C378.5175,-520.1462 387.9704,-509.0548 395.7873,-499.883"/>
<polygon fill="#000000" stroke="#000000" points="398.5495,-502.0378 402.3722,-492.1566 393.2219,-497.4972 398.5495,-502.0378"/>
</g>
<!-- 22245623 -->
<g id="node3" class="node">
<title>22245623</title>
<text text-anchor="middle" x="287.6648" y="-426.6" font-family="Times,serif" font-size="14.00" fill="#000000">sql_stmt</text>
</g>
<!-- 62789744&#45;&gt;22245623 -->
<g id="edge2" class="edge">
<title>62789744-&gt;22245623</title>
<path fill="none" stroke="#000000" d="M314.3807,-474.8812C309.9538,-467.5769 303.5015,-456.9306 298.0469,-447.9305"/>
<polygon fill="#000000" stroke="#000000" points="301.0269,-446.0945 292.8506,-439.3566 295.0405,-449.7227 301.0269,-446.0945"/>
</g>
<!-- 26959996 -->
<g id="node31" class="node">
<title>26959996</title>
<text text-anchor="middle" x="351.6648" y="-426.6" font-family="Times,serif" font-size="14.00" fill="#000000">SCOL:;</text>
</g>
<!-- 62789744&#45;&gt;26959996 -->
<g id="edge30" class="edge">
<title>62789744-&gt;26959996</title>
<path fill="none" stroke="#000000" d="M324.9489,-474.8812C329.3758,-467.5769 335.8281,-456.9306 341.2827,-447.9305"/>
<polygon fill="#000000" stroke="#000000" points="344.2891,-449.7227 346.479,-439.3566 338.3027,-446.0945 344.2891,-449.7227"/>
</g>
<!-- 60040967 -->
<g id="node4" class="node">
<title>60040967</title>
<text text-anchor="middle" x="287.6648" y="-373.8" font-family="Times,serif" font-size="14.00" fill="#000000">select_stmt</text>
</g>
<!-- 22245623&#45;&gt;60040967 -->
<g id="edge3" class="edge">
<title>22245623-&gt;60040967</title>
<path fill="none" stroke="#000000" d="M287.6648,-422.0812C287.6648,-415.1613 287.6648,-405.242 287.6648,-396.5645"/>
<polygon fill="#000000" stroke="#000000" points="291.1649,-396.5566 287.6648,-386.5566 284.1649,-396.5566 291.1649,-396.5566"/>
</g>
<!-- 66891920 -->
<g id="node5" class="node">
<title>66891920</title>
<text text-anchor="middle" x="202.6648" y="-321" font-family="Times,serif" font-size="14.00" fill="#000000">select_core</text>
</g>
<!-- 60040967&#45;&gt;66891920 -->
<g id="edge4" class="edge">
<title>60040967-&gt;66891920</title>
<path fill="none" stroke="#000000" d="M274.0081,-369.5168C260.7485,-361.2802 240.3968,-348.6382 224.8186,-338.9614"/>
<polygon fill="#000000" stroke="#000000" points="226.629,-335.9657 216.2876,-333.6622 222.9354,-341.9119 226.629,-335.9657"/>
</g>
<!-- 48930178 -->
<g id="node26" class="node">
<title>48930178</title>
<text text-anchor="middle" x="419.6648" y="-321" font-family="Times,serif" font-size="14.00" fill="#000000">limit_clause</text>
</g>
<!-- 60040967&#45;&gt;48930178 -->
<g id="edge25" class="edge">
<title>60040967-&gt;48930178</title>
<path fill="none" stroke="#000000" d="M308.5806,-369.6337C330.4008,-360.9056 364.8146,-347.1401 389.557,-337.2431"/>
<polygon fill="#000000" stroke="#000000" points="390.862,-340.4908 398.8469,-333.5272 388.2622,-333.9915 390.862,-340.4908"/>
</g>
<!-- 54743101 -->
<g id="node6" class="node">
<title>54743101</title>
<text text-anchor="middle" x="25.6648" y="-268.2" font-family="Times,serif" font-size="14.00" fill="#000000">SELECT</text>
</g>
<!-- 66891920&#45;&gt;54743101 -->
<g id="edge5" class="edge">
<title>66891920-&gt;54743101</title>
<path fill="none" stroke="#000000" d="M174.6186,-316.8337C143.9646,-307.6894 94.7747,-293.0158 61.3823,-283.0547"/>
<polygon fill="#000000" stroke="#000000" points="62.1475,-279.6306 51.5642,-280.1259 60.1464,-286.3385 62.1475,-279.6306"/>
</g>
<!-- 33349037 -->
<g id="node7" class="node">
<title>33349037</title>
<text text-anchor="middle" x="109.6648" y="-268.2" font-family="Times,serif" font-size="14.00" fill="#000000">result_column</text>
</g>
<!-- 66891920&#45;&gt;33349037 -->
<g id="edge6" class="edge">
<title>66891920-&gt;33349037</title>
<path fill="none" stroke="#000000" d="M187.7227,-316.7168C173.0796,-308.4033 150.5311,-295.6015 133.4271,-285.8909"/>
<polygon fill="#000000" stroke="#000000" points="134.994,-282.7558 124.5698,-280.8622 131.538,-288.8431 134.994,-282.7558"/>
</g>
<!-- 37317814 -->
<g id="node9" class="node">
<title>37317814</title>
<text text-anchor="middle" x="202.6648" y="-268.2" font-family="Times,serif" font-size="14.00" fill="#000000">from_clause</text>
</g>
<!-- 66891920&#45;&gt;37317814 -->
<g id="edge8" class="edge">
<title>66891920-&gt;37317814</title>
<path fill="none" stroke="#000000" d="M202.6648,-316.4812C202.6648,-309.5613 202.6648,-299.642 202.6648,-290.9645"/>
<polygon fill="#000000" stroke="#000000" points="206.1649,-290.9566 202.6648,-280.9566 199.1649,-290.9566 206.1649,-290.9566"/>
</g>
<!-- 32240101 -->
<g id="node15" class="node">
<title>32240101</title>
<text text-anchor="middle" x="297.6648" y="-268.2" font-family="Times,serif" font-size="14.00" fill="#000000">where_clause</text>
</g>
<!-- 66891920&#45;&gt;32240101 -->
<g id="edge14" class="edge">
<title>66891920-&gt;32240101</title>
<path fill="none" stroke="#000000" d="M217.9282,-316.7168C232.8862,-308.4033 255.9196,-295.6015 273.3915,-285.8909"/>
<polygon fill="#000000" stroke="#000000" points="275.3989,-288.7795 282.4393,-280.8622 271.9983,-282.661 275.3989,-288.7795"/>
</g>
<!-- 21846971 -->
<g id="node8" class="node">
<title>21846971</title>
<text text-anchor="middle" x="51.6648" y="-215.4" font-family="Times,serif" font-size="14.00" fill="#000000">STAR:*</text>
</g>
<!-- 33349037&#45;&gt;21846971 -->
<g id="edge7" class="edge">
<title>33349037-&gt;21846971</title>
<path fill="none" stroke="#000000" d="M100.3461,-263.9168C91.8563,-256.1881 79.1055,-244.5805 68.783,-235.1835"/>
<polygon fill="#000000" stroke="#000000" points="70.904,-232.3812 61.1531,-228.2376 66.1917,-237.5576 70.904,-232.3812"/>
</g>
<!-- 46740648 -->
<g id="node10" class="node">
<title>46740648</title>
<text text-anchor="middle" x="112.6648" y="-215.4" font-family="Times,serif" font-size="14.00" fill="#000000">FROM</text>
</g>
<!-- 37317814&#45;&gt;46740648 -->
<g id="edge9" class="edge">
<title>37317814-&gt;46740648</title>
<path fill="none" stroke="#000000" d="M188.2047,-263.9168C174.1652,-255.6802 152.6163,-243.0382 136.1217,-233.3614"/>
<polygon fill="#000000" stroke="#000000" points="137.4853,-230.1035 127.089,-228.0622 133.9432,-236.1412 137.4853,-230.1035"/>
</g>
<!-- 46971282 -->
<g id="node11" class="node">
<title>46971282</title>
<text text-anchor="middle" x="202.6648" y="-215.4" font-family="Times,serif" font-size="14.00" fill="#000000">table_or_subquery</text>
</g>
<!-- 37317814&#45;&gt;46971282 -->
<g id="edge10" class="edge">
<title>37317814-&gt;46971282</title>
<path fill="none" stroke="#000000" d="M202.6648,-263.6812C202.6648,-256.7613 202.6648,-246.842 202.6648,-238.1645"/>
<polygon fill="#000000" stroke="#000000" points="206.1649,-238.1566 202.6648,-228.1566 199.1649,-238.1566 206.1649,-238.1566"/>
</g>
<!-- 60117421 -->
<g id="node12" class="node">
<title>60117421</title>
<text text-anchor="middle" x="201.6648" y="-162.6" font-family="Times,serif" font-size="14.00" fill="#000000">table_name</text>
</g>
<!-- 46971282&#45;&gt;60117421 -->
<g id="edge11" class="edge">
<title>46971282-&gt;60117421</title>
<path fill="none" stroke="#000000" d="M202.4997,-210.8812C202.3686,-203.9613 202.1807,-194.042 202.0164,-185.3645"/>
<polygon fill="#000000" stroke="#000000" points="205.5157,-185.2885 201.8269,-175.3566 198.5169,-185.4211 205.5157,-185.2885"/>
</g>
<!-- 4140970 -->
<g id="node13" class="node">
<title>4140970</title>
<text text-anchor="middle" x="197.6648" y="-109.8" font-family="Times,serif" font-size="14.00" fill="#000000">any_name</text>
</g>
<!-- 60117421&#45;&gt;4140970 -->
<g id="edge12" class="edge">
<title>60117421-&gt;4140970</title>
<path fill="none" stroke="#000000" d="M201.0043,-158.0812C200.48,-151.1613 199.7286,-141.242 199.0712,-132.5645"/>
<polygon fill="#000000" stroke="#000000" points="202.5585,-132.2636 198.313,-122.5566 195.5785,-132.7925 202.5585,-132.2636"/>
</g>
<!-- 34708722 -->
<g id="node14" class="node">
<title>34708722</title>
<text text-anchor="middle" x="189.6648" y="-57" font-family="Times,serif" font-size="14.00" fill="#000000">IDENTIFIER:table1</text>
</g>
<!-- 4140970&#45;&gt;34708722 -->
<g id="edge13" class="edge">
<title>4140970-&gt;34708722</title>
<path fill="none" stroke="#000000" d="M196.3438,-105.2812C195.2953,-98.3613 193.7924,-88.442 192.4776,-79.7645"/>
<polygon fill="#000000" stroke="#000000" points="195.9199,-79.1194 190.9613,-69.7566 188.9989,-80.1681 195.9199,-79.1194"/>
</g>
<!-- 25746461 -->
<g id="node16" class="node">
<title>25746461</title>
<text text-anchor="middle" x="297.6648" y="-215.4" font-family="Times,serif" font-size="14.00" fill="#000000">WHERE</text>
</g>
<!-- 32240101&#45;&gt;25746461 -->
<g id="edge15" class="edge">
<title>32240101-&gt;25746461</title>
<path fill="none" stroke="#000000" d="M297.6648,-263.6812C297.6648,-256.7613 297.6648,-246.842 297.6648,-238.1645"/>
<polygon fill="#000000" stroke="#000000" points="301.1649,-238.1566 297.6648,-228.1566 294.1649,-238.1566 301.1649,-238.1566"/>
</g>
<!-- 58262188 -->
<g id="node17" class="node">
<title>58262188</title>
<text text-anchor="middle" x="352.6648" y="-215.4" font-family="Times,serif" font-size="14.00" fill="#000000">expr</text>
</g>
<!-- 32240101&#45;&gt;58262188 -->
<g id="edge16" class="edge">
<title>32240101-&gt;58262188</title>
<path fill="none" stroke="#000000" d="M306.7469,-263.6812C314.756,-255.9924 326.6225,-244.6006 336.2857,-235.3239"/>
<polygon fill="#000000" stroke="#000000" points="338.9616,-237.6068 343.7517,-228.1566 334.1139,-232.5571 338.9616,-237.6068"/>
</g>
<!-- 32610393 -->
<g id="node18" class="node">
<title>32610393</title>
<text text-anchor="middle" x="290.6648" y="-162.6" font-family="Times,serif" font-size="14.00" fill="#000000">expr</text>
</g>
<!-- 58262188&#45;&gt;32610393 -->
<g id="edge17" class="edge">
<title>58262188-&gt;32610393</title>
<path fill="none" stroke="#000000" d="M342.7034,-211.1168C333.5382,-203.3116 319.7276,-191.5503 308.6366,-182.105"/>
<polygon fill="#000000" stroke="#000000" points="310.6901,-179.2566 300.8074,-175.4376 306.1515,-184.5859 310.6901,-179.2566"/>
</g>
<!-- 24538654 -->
<g id="node22" class="node">
<title>24538654</title>
<text text-anchor="middle" x="352.6648" y="-162.6" font-family="Times,serif" font-size="14.00" fill="#000000">ASSIGN:=</text>
</g>
<!-- 58262188&#45;&gt;24538654 -->
<g id="edge21" class="edge">
<title>58262188-&gt;24538654</title>
<path fill="none" stroke="#000000" d="M352.6648,-210.8812C352.6648,-203.9613 352.6648,-194.042 352.6648,-185.3645"/>
<polygon fill="#000000" stroke="#000000" points="356.1649,-185.3566 352.6648,-175.3566 349.1649,-185.3566 356.1649,-185.3566"/>
</g>
<!-- 56526037 -->
<g id="node23" class="node">
<title>56526037</title>
<text text-anchor="middle" x="414.6648" y="-162.6" font-family="Times,serif" font-size="14.00" fill="#000000">expr</text>
</g>
<!-- 58262188&#45;&gt;56526037 -->
<g id="edge22" class="edge">
<title>58262188-&gt;56526037</title>
<path fill="none" stroke="#000000" d="M362.6262,-211.1168C371.7914,-203.3116 385.602,-191.5503 396.693,-182.105"/>
<polygon fill="#000000" stroke="#000000" points="399.1781,-184.5859 404.5222,-175.4376 394.6395,-179.2566 399.1781,-184.5859"/>
</g>
<!-- 46853094 -->
<g id="node19" class="node">
<title>46853094</title>
<text text-anchor="middle" x="291.6648" y="-109.8" font-family="Times,serif" font-size="14.00" fill="#000000">column_name</text>
</g>
<!-- 32610393&#45;&gt;46853094 -->
<g id="edge18" class="edge">
<title>32610393-&gt;46853094</title>
<path fill="none" stroke="#000000" d="M290.8299,-158.0812C290.961,-151.1613 291.1489,-141.242 291.3132,-132.5645"/>
<polygon fill="#000000" stroke="#000000" points="294.8127,-132.6211 291.5027,-122.5566 287.8139,-132.4885 294.8127,-132.6211"/>
</g>
<!-- 53380684 -->
<g id="node20" class="node">
<title>53380684</title>
<text text-anchor="middle" x="293.6648" y="-57" font-family="Times,serif" font-size="14.00" fill="#000000">any_name</text>
</g>
<!-- 46853094&#45;&gt;53380684 -->
<g id="edge19" class="edge">
<title>46853094-&gt;53380684</title>
<path fill="none" stroke="#000000" d="M291.9951,-105.2812C292.2572,-98.3613 292.6329,-88.442 292.9616,-79.7645"/>
<polygon fill="#000000" stroke="#000000" points="296.4596,-79.882 293.3407,-69.7566 289.4646,-79.6169 296.4596,-79.882"/>
</g>
<!-- 22800124 -->
<g id="node21" class="node">
<title>22800124</title>
<text text-anchor="middle" x="293.6648" y="-4.2" font-family="Times,serif" font-size="14.00" fill="#000000">IDENTIFIER:state</text>
</g>
<!-- 53380684&#45;&gt;22800124 -->
<g id="edge20" class="edge">
<title>53380684-&gt;22800124</title>
<path fill="none" stroke="#000000" d="M293.6648,-52.4812C293.6648,-45.5613 293.6648,-35.642 293.6648,-26.9645"/>
<polygon fill="#000000" stroke="#000000" points="297.1649,-26.9566 293.6648,-16.9566 290.1649,-26.9566 297.1649,-26.9566"/>
</g>
<!-- 758648 -->
<g id="node24" class="node">
<title>758648</title>
<text text-anchor="middle" x="414.6648" y="-109.8" font-family="Times,serif" font-size="14.00" fill="#000000">literal_value</text>
</g>
<!-- 56526037&#45;&gt;758648 -->
<g id="edge23" class="edge">
<title>56526037-&gt;758648</title>
<path fill="none" stroke="#000000" d="M414.6648,-158.0812C414.6648,-151.1613 414.6648,-141.242 414.6648,-132.5645"/>
<polygon fill="#000000" stroke="#000000" points="418.1649,-132.5566 414.6648,-122.5566 411.1649,-132.5566 418.1649,-132.5566"/>
</g>
<!-- 43242969 -->
<g id="node25" class="node">
<title>43242969</title>
<text text-anchor="middle" x="414.6648" y="-57" font-family="Times,serif" font-size="14.00" fill="#000000">TRUE:true</text>
</g>
<!-- 758648&#45;&gt;43242969 -->
<g id="edge24" class="edge">
<title>758648-&gt;43242969</title>
<path fill="none" stroke="#000000" d="M414.6648,-105.2812C414.6648,-98.3613 414.6648,-88.442 414.6648,-79.7645"/>
<polygon fill="#000000" stroke="#000000" points="418.1649,-79.7566 414.6648,-69.7566 411.1649,-79.7566 418.1649,-79.7566"/>
</g>
<!-- 37556722 -->
<g id="node27" class="node">
<title>37556722</title>
<text text-anchor="middle" x="419.6648" y="-268.2" font-family="Times,serif" font-size="14.00" fill="#000000">LIMIT</text>
</g>
<!-- 48930178&#45;&gt;37556722 -->
<g id="edge26" class="edge">
<title>48930178-&gt;37556722</title>
<path fill="none" stroke="#000000" d="M419.6648,-316.4812C419.6648,-309.5613 419.6648,-299.642 419.6648,-290.9645"/>
<polygon fill="#000000" stroke="#000000" points="423.1649,-290.9566 419.6648,-280.9566 416.1649,-290.9566 423.1649,-290.9566"/>
</g>
<!-- 60358370 -->
<g id="node28" class="node">
<title>60358370</title>
<text text-anchor="middle" x="492.6648" y="-268.2" font-family="Times,serif" font-size="14.00" fill="#000000">expr</text>
</g>
<!-- 48930178&#45;&gt;60358370 -->
<g id="edge27" class="edge">
<title>48930178-&gt;60358370</title>
<path fill="none" stroke="#000000" d="M431.3935,-316.7168C442.3964,-308.7585 459.0855,-296.6875 472.2688,-287.1522"/>
<polygon fill="#000000" stroke="#000000" points="474.6712,-289.7342 480.7227,-281.0376 470.5688,-284.0623 474.6712,-289.7342"/>
</g>
<!-- 17875077 -->
<g id="node29" class="node">
<title>17875077</title>
<text text-anchor="middle" x="504.6648" y="-215.4" font-family="Times,serif" font-size="14.00" fill="#000000">literal_value</text>
</g>
<!-- 60358370&#45;&gt;17875077 -->
<g id="edge28" class="edge">
<title>60358370-&gt;17875077</title>
<path fill="none" stroke="#000000" d="M494.6464,-263.6812C496.2191,-256.7613 498.4734,-246.842 500.4456,-238.1645"/>
<polygon fill="#000000" stroke="#000000" points="503.9168,-238.6836 502.7201,-228.1566 497.0909,-237.1322 503.9168,-238.6836"/>
</g>
<!-- 12246467 -->
<g id="node30" class="node">
<title>12246467</title>
<text text-anchor="middle" x="515.6648" y="-162.6" font-family="Times,serif" font-size="14.00" fill="#000000">NUMERIC_LITERAL:1</text>
</g>
<!-- 17875077&#45;&gt;12246467 -->
<g id="edge29" class="edge">
<title>17875077-&gt;12246467</title>
<path fill="none" stroke="#000000" d="M506.4812,-210.8812C507.9229,-203.9613 509.9894,-194.042 511.7972,-185.3645"/>
<polygon fill="#000000" stroke="#000000" points="515.269,-185.8603 513.8822,-175.3566 508.4161,-184.4325 515.269,-185.8603"/>
</g>
</g>
</svg>