<?xml version="1.0" encoding="UTF-8" standalone="no"?><!DOCTYPE svg PUBLIC "-//W3C//DTD SVG 1.1//EN" "http://www.w3.org/Graphics/SVG/1.1/DTD/svg11.dtd"><!-- Generated by graphviz version 2.40.1 (20161225.0304)
 --><!-- Title: G Pages: 1 --><svg xmlns="http://www.w3.org/2000/svg" xmlns:xlink="http://www.w3.org/1999/xlink" width="216pt" height="332pt" viewBox="0.00 0.00 216.03 332.00">
<g id="graph0" class="graph" transform="scale(1 1) rotate(0) translate(4 328)">
<title>G</title>
<polygon fill="#ffffff" stroke="transparent" points="-4,4 -4,-328 212.0293,-328 212.0293,4 -4,4"/>
<!-- table1 -->
<g id="node1" class="node">
<title>table1</title>
<ellipse fill="none" stroke="#000000" cx="47.5147" cy="-18" rx="34.769" ry="18"/>
<text text-anchor="middle" x="47.5147" y="-13.8" font-family="Times,serif" font-size="14.00" fill="#000000">table1</text>
</g>
<!-- 1303452737SELECT_FROM22121164 -->
<g id="node2" class="node">
<title>1303452737SELECT_FROM22121164</title>
<ellipse fill="none" stroke="#000000" cx="47.5147" cy="-90" rx="38.3011" ry="18"/>
<text text-anchor="middle" x="47.5147" y="-85.8" font-family="Times,serif" font-size="14.00" fill="#000000">FROM</text>
</g>
<!-- table1&#45;&gt;1303452737SELECT_FROM22121164 -->
<g id="edge1" class="edge">
<title>table1-&gt;1303452737SELECT_FROM22121164</title>
<path fill="none" stroke="#000000" d="M47.5147,-36.1686C47.5147,-43.869 47.5147,-53.0257 47.5147,-61.5834"/>
<polygon fill="#000000" stroke="#000000" points="44.0148,-61.5867 47.5147,-71.5867 51.0148,-61.5868 44.0148,-61.5867"/>
</g>
<!-- 22121164 -->
<g id="node3" class="node">
<title>22121164</title>
<ellipse fill="none" stroke="#000000" cx="47.5147" cy="-162" rx="47.5293" ry="18"/>
<text text-anchor="middle" x="47.5147" y="-157.8" font-family="Times,serif" font-size="14.00" fill="#000000">RESULT</text>
</g>
<!-- 1303452737SELECT_FROM22121164&#45;&gt;22121164 -->
<g id="edge2" class="edge">
<title>1303452737SELECT_FROM22121164-&gt;22121164</title>
<path fill="none" stroke="#000000" d="M47.5147,-108.1686C47.5147,-115.869 47.5147,-125.0257 47.5147,-133.5834"/>
<polygon fill="#000000" stroke="#000000" points="44.0148,-133.5867 47.5147,-143.5867 51.0148,-133.5868 44.0148,-133.5867"/>
</g>
<!-- 10195233CARTESIAN29804391 -->
<g id="node7" class="node">
<title>10195233CARTESIAN29804391</title>
<ellipse fill="none" stroke="#000000" cx="103.5147" cy="-234" rx="65.4266" ry="18"/>
<text text-anchor="middle" x="103.5147" y="-229.8" font-family="Times,serif" font-size="14.00" fill="#000000">CARTESIAN</text>
</g>
<!-- 22121164&#45;&gt;10195233CARTESIAN29804391 -->
<g id="edge5" class="edge">
<title>22121164-&gt;10195233CARTESIAN29804391</title>
<path fill="none" stroke="#000000" d="M61.0707,-179.4292C67.7803,-188.0559 76.0138,-198.6418 83.4376,-208.1866"/>
<polygon fill="#000000" stroke="#000000" points="80.7922,-210.4864 89.6944,-216.2311 86.3177,-206.1888 80.7922,-210.4864"/>
</g>
<!-- table2 -->
<g id="node4" class="node">
<title>table2</title>
<ellipse fill="none" stroke="#000000" cx="160.5147" cy="-18" rx="34.769" ry="18"/>
<text text-anchor="middle" x="160.5147" y="-13.8" font-family="Times,serif" font-size="14.00" fill="#000000">table2</text>
</g>
<!-- 1431802029SELECT_FROM10195233 -->
<g id="node5" class="node">
<title>1431802029SELECT_FROM10195233</title>
<ellipse fill="none" stroke="#000000" cx="160.5147" cy="-90" rx="38.3011" ry="18"/>
<text text-anchor="middle" x="160.5147" y="-85.8" font-family="Times,serif" font-size="14.00" fill="#000000">FROM</text>
</g>
<!-- table2&#45;&gt;1431802029SELECT_FROM10195233 -->
<g id="edge3" class="edge">
<title>table2-&gt;1431802029SELECT_FROM10195233</title>
<path fill="none" stroke="#000000" d="M160.5147,-36.1686C160.5147,-43.869 160.5147,-53.0257 160.5147,-61.5834"/>
<polygon fill="#000000" stroke="#000000" points="157.0148,-61.5867 160.5147,-71.5867 164.0148,-61.5868 157.0148,-61.5867"/>
</g>
<!-- 10195233 -->
<g id="node6" class="node">
<title>10195233</title>
<ellipse fill="none" stroke="#000000" cx="160.5147" cy="-162" rx="47.5293" ry="18"/>
<text text-anchor="middle" x="160.5147" y="-157.8" font-family="Times,serif" font-size="14.00" fill="#000000">RESULT</text>
</g>
<!-- 1431802029SELECT_FROM10195233&#45;&gt;10195233 -->
<g id="edge4" class="edge">
<title>1431802029SELECT_FROM10195233-&gt;10195233</title>
<path fill="none" stroke="#000000" d="M160.5147,-108.1686C160.5147,-115.869 160.5147,-125.0257 160.5147,-133.5834"/>
<polygon fill="#000000" stroke="#000000" points="157.0148,-133.5867 160.5147,-143.5867 164.0148,-133.5868 157.0148,-133.5867"/>
</g>
<!-- 10195233&#45;&gt;10195233CARTESIAN29804391 -->
<g id="edge6" class="edge">
<title>10195233-&gt;10195233CARTESIAN29804391</title>
<path fill="none" stroke="#000000" d="M146.7165,-179.4292C139.8871,-188.0559 131.5066,-198.6418 123.9502,-208.1866"/>
<polygon fill="#000000" stroke="#000000" points="121.0446,-206.2182 117.5817,-216.2311 126.5329,-210.5631 121.0446,-206.2182"/>
</g>
<!-- 29804391 -->
<g id="node8" class="node">
<title>29804391</title>
<ellipse fill="none" stroke="#000000" cx="103.5147" cy="-306" rx="47.5293" ry="18"/>
<text text-anchor="middle" x="103.5147" y="-301.8" font-family="Times,serif" font-size="14.00" fill="#000000">RESULT</text>
</g>
<!-- 10195233CARTESIAN29804391&#45;&gt;29804391 -->
<g id="edge7" class="edge">
<title>10195233CARTESIAN29804391-&gt;29804391</title>
<path fill="none" stroke="#000000" d="M103.5147,-252.1686C103.5147,-259.869 103.5147,-269.0257 103.5147,-277.5834"/>
<polygon fill="#000000" stroke="#000000" points="100.0148,-277.5867 103.5147,-287.5867 107.0148,-277.5868 100.0148,-277.5867"/>
</g>
</g>
</svg>