<?xml version="1.0" encoding="UTF-8" standalone="no"?><!DOCTYPE svg PUBLIC "-//W3C//DTD SVG 1.1//EN" "http://www.w3.org/Graphics/SVG/1.1/DTD/svg11.dtd"><!-- Generated by graphviz version 2.40.1 (20161225.0304)
 --><!-- Title: G Pages: 1 --><svg xmlns="http://www.w3.org/2000/svg" xmlns:xlink="http://www.w3.org/1999/xlink" width="103pt" height="332pt" viewBox="0.00 0.00 103.03 332.00">
<g id="graph0" class="graph" transform="scale(1 1) rotate(0) translate(4 328)">
<title>G</title>
<polygon fill="#ffffff" stroke="transparent" points="-4,4 -4,-328 99.0293,-328 99.0293,4 -4,4"/>
<!-- table1 -->
<g id="node1" class="node">
<title>table1</title>
<ellipse fill="none" stroke="#000000" cx="47.5147" cy="-18" rx="34.769" ry="18"/>
<text text-anchor="middle" x="47.5147" y="-13.8" font-family="Times,serif" font-size="14.00" fill="#000000">table1</text>
</g>
<!-- 1515238127SELECT_FROM65284983 -->
<g id="node2" class="node">
<title>1515238127SELECT_FROM65284983</title>
<ellipse fill="none" stroke="#000000" cx="47.5147" cy="-90" rx="38.3011" ry="18"/>
<text text-anchor="middle" x="47.5147" y="-85.8" font-family="Times,serif" font-size="14.00" fill="#000000">FROM</text>
</g>
<!-- table1&#45;&gt;1515238127SELECT_FROM65284983 -->
<g id="edge1" class="edge">
<title>table1-&gt;1515238127SELECT_FROM65284983</title>
<path fill="none" stroke="#000000" d="M47.5147,-36.1686C47.5147,-43.869 47.5147,-53.0257 47.5147,-61.5834"/>
<polygon fill="#000000" stroke="#000000" points="44.0148,-61.5867 47.5147,-71.5867 51.0148,-61.5868 44.0148,-61.5867"/>
</g>
<!-- 1059527732WHERE65284983 -->
<g id="node3" class="node">
<title>1059527732WHERE65284983</title>
<ellipse fill="none" stroke="#000000" cx="47.5147" cy="-162" rx="45.2247" ry="18"/>
<text text-anchor="middle" x="47.5147" y="-157.8" font-family="Times,serif" font-size="14.00" fill="#000000">WHERE</text>
</g>
<!-- 1515238127SELECT_FROM65284983&#45;&gt;1059527732WHERE65284983 -->
<g id="edge2" class="edge">
<title>1515238127SELECT_FROM65284983-&gt;1059527732WHERE65284983</title>
<path fill="none" stroke="#000000" d="M47.5147,-108.1686C47.5147,-115.869 47.5147,-125.0257 47.5147,-133.5834"/>
<polygon fill="#000000" stroke="#000000" points="44.0148,-133.5867 47.5147,-143.5867 51.0148,-133.5868 44.0148,-133.5867"/>
</g>
<!-- 1LIMIT65284983 -->
<g id="node4" class="node">
<title>1LIMIT65284983</title>
<ellipse fill="none" stroke="#000000" cx="47.5147" cy="-234" rx="37.6986" ry="18"/>
<text text-anchor="middle" x="47.5147" y="-229.8" font-family="Times,serif" font-size="14.00" fill="#000000">LIMIT</text>
</g>
<!-- 1059527732WHERE65284983&#45;&gt;1LIMIT65284983 -->
<g id="edge3" class="edge">
<title>1059527732WHERE65284983-&gt;1LIMIT65284983</title>
<path fill="none" stroke="#000000" d="M47.5147,-180.1686C47.5147,-187.869 47.5147,-197.0257 47.5147,-205.5834"/>
<polygon fill="#000000" stroke="#000000" points="44.0148,-205.5867 47.5147,-215.5867 51.0148,-205.5868 44.0148,-205.5867"/>
</g>
<!-- 65284983 -->
<g id="node5" class="node">
<title>65284983</title>
<ellipse fill="none" stroke="#000000" cx="47.5147" cy="-306" rx="47.5293" ry="18"/>
<text text-anchor="middle" x="47.5147" y="-301.8" font-family="Times,serif" font-size="14.00" fill="#000000">RESULT</text>
</g>
<!-- 1LIMIT65284983&#45;&gt;65284983 -->
<g id="edge4" class="edge">
<title>1LIMIT65284983-&gt;65284983</title>
<path fill="none" stroke="#000000" d="M47.5147,-252.1686C47.5147,-259.869 47.5147,-269.0257 47.5147,-277.5834"/>
<polygon fill="#000000" stroke="#000000" points="44.0148,-277.5867 47.5147,-287.5867 51.0148,-277.5868 44.0148,-277.5867"/>
</g>
</g>
</svg>