<?xml version="1.0" encoding="UTF-8" standalone="no"?><!DOCTYPE svg PUBLIC "-//W3C//DTD SVG 1.1//EN" "http://www.w3.org/Graphics/SVG/1.1/DTD/svg11.dtd"><!-- Generated by graphviz version 2.40.1 (20161225.0304)
 --><!-- Title: G Pages: 1 --><svg xmlns="http://www.w3.org/2000/svg" xmlns:xlink="http://www.w3.org/1999/xlink" width="668pt" height="500pt" viewBox="0.00 0.00 668.20 500.00">
<g id="graph0" class="graph" transform="scale(1 1) rotate(0) translate(4 496)">
<title>G</title>
<polygon fill="#ffffff" stroke="transparent" points="-4,4 -4,-496 664.2013,-496 664.2013,4 -4,4"/>
<!-- 31071611 -->
<g id="node1" class="node">
<title>31071611</title>
<text text-anchor="middle" x="358.6648" y="-479.4" font-family="Times,serif" font-size="14.00" fill="#000000">parse</text>
</g>
<!-- 63566392 -->
<g id="node2" class="node">
<title>63566392</title>
<text text-anchor="middle" x="313.6648" y="-426.6" font-family="Times,serif" font-size="14.00" fill="#000000">sql_stmt_list</text>
</g>
<!-- 31071611&#45;&gt;63566392 -->
<g id="edge1" class="edge">
<title>31071611-&gt;63566392</title>
<path fill="none" stroke="#000000" d="M351.234,-474.8812C344.8121,-467.3462 335.3592,-456.2548 327.5423,-447.083"/>
<polygon fill="#000000" stroke="#000000" points="330.1077,-444.6972 320.9574,-439.3566 324.7801,-449.2378 330.1077,-444.6972"/>
</g>
<!-- 15794871 -->
<g id="node31" class="node">
<title>15794871</title>
<text text-anchor="middle" x="403.6648" y="-426.6" font-family="Times,serif" font-size="14.00" fill="#000000">EOF:&lt;EOF&gt;</text>
</g>
<!-- 31071611&#45;&gt;15794871 -->
<g id="edge30" class="edge">
<title>31071611-&gt;15794871</title>
<path fill="none" stroke="#000000" d="M366.0956,-474.8812C372.5175,-467.3462 381.9704,-456.2548 389.7873,-447.083"/>
<polygon fill="#000000" stroke="#000000" points="392.5495,-449.2378 396.3722,-439.3566 387.2219,-444.6972 392.5495,-449.2378"/>
</g>
<!-- 24004906 -->
<g id="node3" class="node">
<title>24004906</title>
<text text-anchor="middle" x="281.6648" y="-373.8" font-family="Times,serif" font-size="14.00" fill="#000000">sql_stmt</text>
</g>
<!-- 63566392&#45;&gt;24004906 -->
<g id="edge2" class="edge">
<title>63566392-&gt;24004906</title>
<path fill="none" stroke="#000000" d="M308.3807,-422.0812C303.9538,-414.7769 297.5015,-404.1306 292.0469,-395.1305"/>
<polygon fill="#000000" stroke="#000000" points="295.0269,-393.2945 286.8506,-386.5566 289.0405,-396.9227 295.0269,-393.2945"/>
</g>
<!-- 6064464 -->
<g id="node30" class="node">
<title>6064464</title>
<text text-anchor="middle" x="345.6648" y="-373.8" font-family="Times,serif" font-size="14.00" fill="#000000">SCOL:;</text>
</g>
<!-- 63566392&#45;&gt;6064464 -->
<g id="edge29" class="edge">
<title>63566392-&gt;6064464</title>
<path fill="none" stroke="#000000" d="M318.9489,-422.0812C323.3758,-414.7769 329.8281,-404.1306 335.2827,-395.1305"/>
<polygon fill="#000000" stroke="#000000" points="338.2891,-396.9227 340.479,-386.5566 332.3027,-393.2945 338.2891,-396.9227"/>
</g>
<!-- 45725801 -->
<g id="node4" class="node">
<title>45725801</title>
<text text-anchor="middle" x="281.6648" y="-321" font-family="Times,serif" font-size="14.00" fill="#000000">select_stmt</text>
</g>
<!-- 24004906&#45;&gt;45725801 -->
<g id="edge3" class="edge">
<title>24004906-&gt;45725801</title>
<path fill="none" stroke="#000000" d="M281.6648,-369.2812C281.6648,-362.3613 281.6648,-352.442 281.6648,-343.7645"/>
<polygon fill="#000000" stroke="#000000" points="285.1649,-343.7566 281.6648,-333.7566 278.1649,-343.7566 285.1649,-343.7566"/>
</g>
<!-- 963711 -->
<g id="node5" class="node">
<title>963711</title>
<text text-anchor="middle" x="142.6648" y="-268.2" font-family="Times,serif" font-size="14.00" fill="#000000">select_core</text>
</g>
<!-- 45725801&#45;&gt;963711 -->
<g id="edge4" class="edge">
<title>45725801-&gt;963711</title>
<path fill="none" stroke="#000000" d="M259.6398,-316.8337C236.5608,-308.067 200.1028,-294.2182 174.0239,-284.312"/>
<polygon fill="#000000" stroke="#000000" points="175.1779,-281.0063 164.5867,-280.7272 172.6921,-287.5501 175.1779,-281.0063"/>
</g>
<!-- 13504351 -->
<g id="node18" class="node">
<title>13504351</title>
<text text-anchor="middle" x="281.6648" y="-268.2" font-family="Times,serif" font-size="14.00" fill="#000000">compound_operator</text>
</g>
<!-- 45725801&#45;&gt;13504351 -->
<g id="edge17" class="edge">
<title>45725801-&gt;13504351</title>
<path fill="none" stroke="#000000" d="M281.6648,-316.4812C281.6648,-309.5613 281.6648,-299.642 281.6648,-290.9645"/>
<polygon fill="#000000" stroke="#000000" points="285.1649,-290.9566 281.6648,-280.9566 278.1649,-290.9566 285.1649,-290.9566"/>
</g>
<!-- 3923474 -->
<g id="node20" class="node">
<title>3923474</title>
<text text-anchor="middle" x="411.6648" y="-268.2" font-family="Times,serif" font-size="14.00" fill="#000000">select_core</text>
</g>
<!-- 45725801&#45;&gt;3923474 -->
<g id="edge19" class="edge">
<title>45725801-&gt;3923474</title>
<path fill="none" stroke="#000000" d="M302.2637,-316.8337C323.6582,-308.1442 357.346,-294.4618 381.6892,-284.5747"/>
<polygon fill="#000000" stroke="#000000" points="383.2144,-287.733 391.1623,-280.7272 380.5802,-281.2475 383.2144,-287.733"/>
</g>
<!-- 66496106 -->
<g id="node6" class="node">
<title>66496106</title>
<text text-anchor="middle" x="25.6648" y="-215.4" font-family="Times,serif" font-size="14.00" fill="#000000">SELECT</text>
</g>
<!-- 963711&#45;&gt;66496106 -->
<g id="edge5" class="edge">
<title>963711-&gt;66496106</title>
<path fill="none" stroke="#000000" d="M124.1258,-264.0337C105.1275,-255.4601 75.3583,-242.0258 53.5237,-232.1722"/>
<polygon fill="#000000" stroke="#000000" points="54.6716,-228.8504 44.1171,-227.9272 51.7922,-235.2308 54.6716,-228.8504"/>
</g>
<!-- 24828593 -->
<g id="node7" class="node">
<title>24828593</title>
<text text-anchor="middle" x="109.6648" y="-215.4" font-family="Times,serif" font-size="14.00" fill="#000000">result_column</text>
</g>
<!-- 963711&#45;&gt;24828593 -->
<g id="edge6" class="edge">
<title>963711-&gt;24828593</title>
<path fill="none" stroke="#000000" d="M137.2155,-263.6812C132.6503,-256.3769 125.9964,-245.7306 120.3714,-236.7305"/>
<polygon fill="#000000" stroke="#000000" points="123.2807,-234.7816 115.0127,-228.1566 117.3447,-238.4916 123.2807,-234.7816"/>
</g>
<!-- 8253412 -->
<g id="node12" class="node">
<title>8253412</title>
<text text-anchor="middle" x="202.6648" y="-215.4" font-family="Times,serif" font-size="14.00" fill="#000000">from_clause</text>
</g>
<!-- 963711&#45;&gt;8253412 -->
<g id="edge11" class="edge">
<title>963711-&gt;8253412</title>
<path fill="none" stroke="#000000" d="M152.3048,-263.9168C161.1744,-256.1116 174.5395,-244.3503 185.2727,-234.905"/>
<polygon fill="#000000" stroke="#000000" points="187.6544,-237.4714 192.8494,-228.2376 183.03,-232.2164 187.6544,-237.4714"/>
</g>
<!-- 35451336 -->
<g id="node8" class="node">
<title>35451336</title>
<text text-anchor="middle" x="109.6648" y="-162.6" font-family="Times,serif" font-size="14.00" fill="#000000">expr</text>
</g>
<!-- 24828593&#45;&gt;35451336 -->
<g id="edge7" class="edge">
<title>24828593-&gt;35451336</title>
<path fill="none" stroke="#000000" d="M109.6648,-210.8812C109.6648,-203.9613 109.6648,-194.042 109.6648,-185.3645"/>
<polygon fill="#000000" stroke="#000000" points="113.1649,-185.3566 109.6648,-175.3566 106.1649,-185.3566 113.1649,-185.3566"/>
</g>
<!-- 30223109 -->
<g id="node9" class="node">
<title>30223109</title>
<text text-anchor="middle" x="109.6648" y="-109.8" font-family="Times,serif" font-size="14.00" fill="#000000">column_name</text>
</g>
<!-- 35451336&#45;&gt;30223109 -->
<g id="edge8" class="edge">
<title>35451336-&gt;30223109</title>
<path fill="none" stroke="#000000" d="M109.6648,-158.0812C109.6648,-151.1613 109.6648,-141.242 109.6648,-132.5645"/>
<polygon fill="#000000" stroke="#000000" points="113.1649,-132.5566 109.6648,-122.5566 106.1649,-132.5566 113.1649,-132.5566"/>
</g>
<!-- 5019745 -->
<g id="node10" class="node">
<title>5019745</title>
<text text-anchor="middle" x="109.6648" y="-57" font-family="Times,serif" font-size="14.00" fill="#000000">any_name</text>
</g>
<!-- 30223109&#45;&gt;5019745 -->
<g id="edge9" class="edge">
<title>30223109-&gt;5019745</title>
<path fill="none" stroke="#000000" d="M109.6648,-105.2812C109.6648,-98.3613 109.6648,-88.442 109.6648,-79.7645"/>
<polygon fill="#000000" stroke="#000000" points="113.1649,-79.7566 109.6648,-69.7566 106.1649,-79.7566 113.1649,-79.7566"/>
</g>
<!-- 10818129 -->
<g id="node11" class="node">
<title>10818129</title>
<text text-anchor="middle" x="109.6648" y="-4.2" font-family="Times,serif" font-size="14.00" fill="#000000">IDENTIFIER:name</text>
</g>
<!-- 5019745&#45;&gt;10818129 -->
<g id="edge10" class="edge">
<title>5019745-&gt;10818129</title>
<path fill="none" stroke="#000000" d="M109.6648,-52.4812C109.6648,-45.5613 109.6648,-35.642 109.6648,-26.9645"/>
<polygon fill="#000000" stroke="#000000" points="113.1649,-26.9566 109.6648,-16.9566 106.1649,-26.9566 113.1649,-26.9566"/>
</g>
<!-- 32614523 -->
<g id="node13" class="node">
<title>32614523</title>
<text text-anchor="middle" x="181.6648" y="-162.6" font-family="Times,serif" font-size="14.00" fill="#000000">FROM</text>
</g>
<!-- 8253412&#45;&gt;32614523 -->
<g id="edge12" class="edge">
<title>8253412-&gt;32614523</title>
<path fill="none" stroke="#000000" d="M199.1971,-210.8812C196.3837,-203.8075 192.3237,-193.5996 188.8191,-184.7879"/>
<polygon fill="#000000" stroke="#000000" points="192.016,-183.3551 185.068,-175.3566 185.5115,-185.9422 192.016,-183.3551"/>
</g>
<!-- 35809613 -->
<g id="node14" class="node">
<title>35809613</title>
<text text-anchor="middle" x="271.6648" y="-162.6" font-family="Times,serif" font-size="14.00" fill="#000000">table_or_subquery</text>
</g>
<!-- 8253412&#45;&gt;35809613 -->
<g id="edge13" class="edge">
<title>8253412-&gt;35809613</title>
<path fill="none" stroke="#000000" d="M213.7508,-211.1168C224.1508,-203.1585 239.9254,-191.0875 252.3864,-181.5522"/>
<polygon fill="#000000" stroke="#000000" points="254.5624,-184.2943 260.377,-175.4376 250.3084,-178.7351 254.5624,-184.2943"/>
</g>
<!-- 54944250 -->
<g id="node15" class="node">
<title>54944250</title>
<text text-anchor="middle" x="271.6648" y="-109.8" font-family="Times,serif" font-size="14.00" fill="#000000">table_name</text>
</g>
<!-- 35809613&#45;&gt;54944250 -->
<g id="edge14" class="edge">
<title>35809613-&gt;54944250</title>
<path fill="none" stroke="#000000" d="M271.6648,-158.0812C271.6648,-151.1613 271.6648,-141.242 271.6648,-132.5645"/>
<polygon fill="#000000" stroke="#000000" points="275.1649,-132.5566 271.6648,-122.5566 268.1649,-132.5566 275.1649,-132.5566"/>
</g>
<!-- 33056876 -->
<g id="node16" class="node">
<title>33056876</title>
<text text-anchor="middle" x="271.6648" y="-57" font-family="Times,serif" font-size="14.00" fill="#000000">any_name</text>
</g>
<!-- 54944250&#45;&gt;33056876 -->
<g id="edge15" class="edge">
<title>54944250-&gt;33056876</title>
<path fill="none" stroke="#000000" d="M271.6648,-105.2812C271.6648,-98.3613 271.6648,-88.442 271.6648,-79.7645"/>
<polygon fill="#000000" stroke="#000000" points="275.1649,-79.7566 271.6648,-69.7566 268.1649,-79.7566 275.1649,-79.7566"/>
</g>
<!-- 66331987 -->
<g id="node17" class="node">
<title>66331987</title>
<text text-anchor="middle" x="271.6648" y="-4.2" font-family="Times,serif" font-size="14.00" fill="#000000">IDENTIFIER:table1</text>
</g>
<!-- 33056876&#45;&gt;66331987 -->
<g id="edge16" class="edge">
<title>33056876-&gt;66331987</title>
<path fill="none" stroke="#000000" d="M271.6648,-52.4812C271.6648,-45.5613 271.6648,-35.642 271.6648,-26.9645"/>
<polygon fill="#000000" stroke="#000000" points="275.1649,-26.9566 271.6648,-16.9566 268.1649,-26.9566 275.1649,-26.9566"/>
</g>
<!-- 59384988 -->
<g id="node19" class="node">
<title>59384988</title>
<text text-anchor="middle" x="281.6648" y="-215.4" font-family="Times,serif" font-size="14.00" fill="#000000">EXCEPT</text>
</g>
<!-- 13504351&#45;&gt;59384988 -->
<g id="edge18" class="edge">
<title>13504351-&gt;59384988</title>
<path fill="none" stroke="#000000" d="M281.6648,-263.6812C281.6648,-256.7613 281.6648,-246.842 281.6648,-238.1645"/>
<polygon fill="#000000" stroke="#000000" points="285.1649,-238.1566 281.6648,-228.1566 278.1649,-238.1566 285.1649,-238.1566"/>
</g>
<!-- 2284283 -->
<g id="node21" class="node">
<title>2284283</title>
<text text-anchor="middle" x="351.6648" y="-215.4" font-family="Times,serif" font-size="14.00" fill="#000000">SELECT</text>
</g>
<!-- 3923474&#45;&gt;2284283 -->
<g id="edge20" class="edge">
<title>3923474-&gt;2284283</title>
<path fill="none" stroke="#000000" d="M402.0248,-263.9168C393.1552,-256.1116 379.7901,-244.3503 369.0569,-234.905"/>
<polygon fill="#000000" stroke="#000000" points="371.2996,-232.2164 361.4802,-228.2376 366.6752,-237.4714 371.2996,-232.2164"/>
</g>
<!-- 23397829 -->
<g id="node22" class="node">
<title>23397829</title>
<text text-anchor="middle" x="435.6648" y="-215.4" font-family="Times,serif" font-size="14.00" fill="#000000">result_column</text>
</g>
<!-- 3923474&#45;&gt;23397829 -->
<g id="edge21" class="edge">
<title>3923474-&gt;23397829</title>
<path fill="none" stroke="#000000" d="M415.6279,-263.6812C418.8781,-256.5306 423.5842,-246.1773 427.6188,-237.3011"/>
<polygon fill="#000000" stroke="#000000" points="430.8236,-238.7086 431.7754,-228.1566 424.4511,-235.812 430.8236,-238.7086"/>
</g>
<!-- 63459461 -->
<g id="node24" class="node">
<title>63459461</title>
<text text-anchor="middle" x="528.6648" y="-215.4" font-family="Times,serif" font-size="14.00" fill="#000000">from_clause</text>
</g>
<!-- 3923474&#45;&gt;63459461 -->
<g id="edge23" class="edge">
<title>3923474-&gt;63459461</title>
<path fill="none" stroke="#000000" d="M430.2038,-264.0337C449.2021,-255.4601 478.9713,-242.0258 500.8059,-232.1722"/>
<polygon fill="#000000" stroke="#000000" points="502.5374,-235.2308 510.2125,-227.9272 499.658,-228.8504 502.5374,-235.2308"/>
</g>
<!-- 3837479 -->
<g id="node23" class="node">
<title>3837479</title>
<text text-anchor="middle" x="435.6648" y="-162.6" font-family="Times,serif" font-size="14.00" fill="#000000">STAR:*</text>
</g>
<!-- 23397829&#45;&gt;3837479 -->
<g id="edge22" class="edge">
<title>23397829-&gt;3837479</title>
<path fill="none" stroke="#000000" d="M435.6648,-210.8812C435.6648,-203.9613 435.6648,-194.042 435.6648,-185.3645"/>
<polygon fill="#000000" stroke="#000000" points="439.1649,-185.3566 435.6648,-175.3566 432.1649,-185.3566 439.1649,-185.3566"/>
</g>
<!-- 16626660 -->
<g id="node25" class="node">
<title>16626660</title>
<text text-anchor="middle" x="512.6648" y="-162.6" font-family="Times,serif" font-size="14.00" fill="#000000">FROM</text>
</g>
<!-- 63459461&#45;&gt;16626660 -->
<g id="edge24" class="edge">
<title>63459461-&gt;16626660</title>
<path fill="none" stroke="#000000" d="M526.0227,-210.8812C523.9025,-203.8844 520.853,-193.8212 518.2029,-185.0758"/>
<polygon fill="#000000" stroke="#000000" points="521.5074,-183.9118 515.2577,-175.3566 514.8083,-185.9419 521.5074,-183.9118"/>
</g>
<!-- 6388912 -->
<g id="node26" class="node">
<title>6388912</title>
<text text-anchor="middle" x="602.6648" y="-162.6" font-family="Times,serif" font-size="14.00" fill="#000000">table_or_subquery</text>
</g>
<!-- 63459461&#45;&gt;6388912 -->
<g id="edge25" class="edge">
<title>63459461-&gt;6388912</title>
<path fill="none" stroke="#000000" d="M540.5542,-211.1168C551.815,-203.082 568.9514,-190.855 582.3739,-181.2778"/>
<polygon fill="#000000" stroke="#000000" points="584.4517,-184.095 590.5591,-175.4376 580.3859,-178.3967 584.4517,-184.095"/>
</g>
<!-- 38181770 -->
<g id="node27" class="node">
<title>38181770</title>
<text text-anchor="middle" x="602.6648" y="-109.8" font-family="Times,serif" font-size="14.00" fill="#000000">table_name</text>
</g>
<!-- 6388912&#45;&gt;38181770 -->
<g id="edge26" class="edge">
<title>6388912-&gt;38181770</title>
<path fill="none" stroke="#000000" d="M602.6648,-158.0812C602.6648,-151.1613 602.6648,-141.242 602.6648,-132.5645"/>
<polygon fill="#000000" stroke="#000000" points="606.1649,-132.5566 602.6648,-122.5566 599.1649,-132.5566 606.1649,-132.5566"/>
</g>
<!-- 17296500 -->
<g id="node28" class="node">
<title>17296500</title>
<text text-anchor="middle" x="602.6648" y="-57" font-family="Times,serif" font-size="14.00" fill="#000000">any_name</text>
</g>
<!-- 38181770&#45;&gt;17296500 -->
<g id="edge27" class="edge">
<title>38181770-&gt;17296500</title>
<path fill="none" stroke="#000000" d="M602.6648,-105.2812C602.6648,-98.3613 602.6648,-88.442 602.6648,-79.7645"/>
<polygon fill="#000000" stroke="#000000" points="606.1649,-79.7566 602.6648,-69.7566 599.1649,-79.7566 606.1649,-79.7566"/>
</g>
<!-- 52607871 -->
<g id="node29" class="node">
<title>52607871</title>
<text text-anchor="middle" x="602.6648" y="-4.2" font-family="Times,serif" font-size="14.00" fill="#000000">IDENTIFIER:table2</text>
</g>
<!-- 17296500&#45;&gt;52607871 -->
<g id="edge28" class="edge">
<title>17296500-&gt;52607871</title>
<path fill="none" stroke="#000000" d="M602.6648,-52.4812C602.6648,-45.5613 602.6648,-35.642 602.6648,-26.9645"/>
<polygon fill="#000000" stroke="#000000" points="606.1649,-26.9566 602.6648,-16.9566 599.1649,-26.9566 606.1649,-26.9566"/>
</g>
</g>
</svg>