<?xml version="1.0" encoding="UTF-8" standalone="no"?><!DOCTYPE svg PUBLIC "-//W3C//DTD SVG 1.1//EN" "http://www.w3.org/Graphics/SVG/1.1/DTD/svg11.dtd"><!-- Generated by graphviz version 2.40.1 (20161225.0304)
 --><!-- Title: G Pages: 1 --><svg xmlns="http://www.w3.org/2000/svg" xmlns:xlink="http://www.w3.org/1999/xlink" width="835pt" height="500pt" viewBox="0.00 0.00 834.91 500.00">
<g id="graph0" class="graph" transform="scale(1 1) rotate(0) translate(4 496)">
<title>G</title>
<polygon fill="#ffffff" stroke="transparent" points="-4,4 -4,-496 830.911,-496 830.911,4 -4,4"/>
<!-- 45961583 -->
<g id="node1" class="node">
<title>45961583</title>
<text text-anchor="middle" x="331.5365" y="-479.4" font-family="Times,serif" font-size="14.00" fill="#000000">parse</text>
</g>
<!-- 17232684 -->
<g id="node2" class="node">
<title>17232684</title>
<text text-anchor="middle" x="286.5365" y="-426.6" font-family="Times,serif" font-size="14.00" fill="#000000">sql_stmt_list</text>
</g>
<!-- 45961583&#45;&gt;17232684 -->
<g id="edge1" class="edge">
<title>45961583-&gt;17232684</title>
<path fill="none" stroke="#000000" d="M324.1057,-474.8812C317.6838,-467.3462 308.2309,-456.2548 300.414,-447.083"/>
<polygon fill="#000000" stroke="#000000" points="302.9794,-444.6972 293.8291,-439.3566 297.6518,-449.2378 302.9794,-444.6972"/>
</g>
<!-- 52619064 -->
<g id="node41" class="node">
<title>52619064</title>
<text text-anchor="middle" x="376.5365" y="-426.6" font-family="Times,serif" font-size="14.00" fill="#000000">EOF:&lt;EOF&gt;</text>
</g>
<!-- 45961583&#45;&gt;52619064 -->
<g id="edge40" class="edge">
<title>45961583-&gt;52619064</title>
<path fill="none" stroke="#000000" d="M338.9673,-474.8812C345.3892,-467.3462 354.8421,-456.2548 362.659,-447.083"/>
<polygon fill="#000000" stroke="#000000" points="365.4212,-449.2378 369.2439,-439.3566 360.0936,-444.6972 365.4212,-449.2378"/>
</g>
<!-- 48204561 -->
<g id="node3" class="node">
<title>48204561</title>
<text text-anchor="middle" x="254.5365" y="-373.8" font-family="Times,serif" font-size="14.00" fill="#000000">sql_stmt</text>
</g>
<!-- 17232684&#45;&gt;48204561 -->
<g id="edge2" class="edge">
<title>17232684-&gt;48204561</title>
<path fill="none" stroke="#000000" d="M281.2524,-422.0812C276.8255,-414.7769 270.3732,-404.1306 264.9186,-395.1305"/>
<polygon fill="#000000" stroke="#000000" points="267.8986,-393.2945 259.7223,-386.5566 261.9122,-396.9227 267.8986,-393.2945"/>
</g>
<!-- 31885546 -->
<g id="node40" class="node">
<title>31885546</title>
<text text-anchor="middle" x="318.5365" y="-373.8" font-family="Times,serif" font-size="14.00" fill="#000000">SCOL:;</text>
</g>
<!-- 17232684&#45;&gt;31885546 -->
<g id="edge39" class="edge">
<title>17232684-&gt;31885546</title>
<path fill="none" stroke="#000000" d="M291.8206,-422.0812C296.2475,-414.7769 302.6998,-404.1306 308.1544,-395.1305"/>
<polygon fill="#000000" stroke="#000000" points="311.1608,-396.9227 313.3507,-386.5566 305.1744,-393.2945 311.1608,-396.9227"/>
</g>
<!-- 37780436 -->
<g id="node4" class="node">
<title>37780436</title>
<text text-anchor="middle" x="254.5365" y="-321" font-family="Times,serif" font-size="14.00" fill="#000000">update_stmt</text>
</g>
<!-- 48204561&#45;&gt;37780436 -->
<g id="edge3" class="edge">
<title>48204561-&gt;37780436</title>
<path fill="none" stroke="#000000" d="M254.5365,-369.2812C254.5365,-362.3613 254.5365,-352.442 254.5365,-343.7645"/>
<polygon fill="#000000" stroke="#000000" points="258.0366,-343.7566 254.5365,-333.7566 251.0366,-343.7566 258.0366,-343.7566"/>
</g>
<!-- 56713295 -->
<g id="node5" class="node">
<title>56713295</title>
<text text-anchor="middle" x="95.5365" y="-268.2" font-family="Times,serif" font-size="14.00" fill="#000000">UPDATE</text>
</g>
<!-- 37780436&#45;&gt;56713295 -->
<g id="edge4" class="edge">
<title>37780436-&gt;56713295</title>
<path fill="none" stroke="#000000" d="M229.3425,-316.8337C202.5939,-307.9511 160.1339,-293.8512 130.2313,-283.9213"/>
<polygon fill="#000000" stroke="#000000" points="131.2061,-280.5571 120.6127,-280.7272 129,-287.2004 131.2061,-280.5571"/>
</g>
<!-- 20903252 -->
<g id="node6" class="node">
<title>20903252</title>
<text text-anchor="middle" x="201.5365" y="-268.2" font-family="Times,serif" font-size="14.00" fill="#000000">qualified_table_name</text>
</g>
<!-- 37780436&#45;&gt;20903252 -->
<g id="edge5" class="edge">
<title>37780436-&gt;20903252</title>
<path fill="none" stroke="#000000" d="M245.7846,-316.4812C238.0668,-308.7924 226.6318,-297.4006 217.32,-288.1239"/>
<polygon fill="#000000" stroke="#000000" points="219.6802,-285.5348 210.1255,-280.9566 214.7398,-290.4939 219.6802,-285.5348"/>
</g>
<!-- 61547269 -->
<g id="node10" class="node">
<title>61547269</title>
<text text-anchor="middle" x="308.5365" y="-268.2" font-family="Times,serif" font-size="14.00" fill="#000000">set_clause</text>
</g>
<!-- 37780436&#45;&gt;61547269 -->
<g id="edge9" class="edge">
<title>37780436-&gt;61547269</title>
<path fill="none" stroke="#000000" d="M263.4535,-316.4812C271.317,-308.7924 282.9677,-297.4006 292.4552,-288.1239"/>
<polygon fill="#000000" stroke="#000000" points="295.0823,-290.4503 299.7854,-280.9566 290.1884,-285.4453 295.0823,-290.4503"/>
</g>
<!-- 4591283 -->
<g id="node29" class="node">
<title>4591283</title>
<text text-anchor="middle" x="554.5365" y="-268.2" font-family="Times,serif" font-size="14.00" fill="#000000">where_clause</text>
</g>
<!-- 37780436&#45;&gt;4591283 -->
<g id="edge28" class="edge">
<title>37780436-&gt;4591283</title>
<path fill="none" stroke="#000000" d="M288.9503,-319.1432C342.3452,-309.7457 445.3203,-291.6221 506.1692,-280.9126"/>
<polygon fill="#000000" stroke="#000000" points="507.0471,-284.312 516.289,-279.1316 505.8337,-277.418 507.0471,-284.312"/>
</g>
<!-- 33038293 -->
<g id="node7" class="node">
<title>33038293</title>
<text text-anchor="middle" x="126.5365" y="-215.4" font-family="Times,serif" font-size="14.00" fill="#000000">table_name</text>
</g>
<!-- 20903252&#45;&gt;33038293 -->
<g id="edge6" class="edge">
<title>20903252-&gt;33038293</title>
<path fill="none" stroke="#000000" d="M189.4865,-263.9168C178.0734,-255.882 160.7055,-243.655 147.1016,-234.0778"/>
<polygon fill="#000000" stroke="#000000" points="148.9976,-231.1323 138.8058,-228.2376 144.9679,-236.8561 148.9976,-231.1323"/>
</g>
<!-- 65049747 -->
<g id="node8" class="node">
<title>65049747</title>
<text text-anchor="middle" x="66.5365" y="-162.6" font-family="Times,serif" font-size="14.00" fill="#000000">any_name</text>
</g>
<!-- 33038293&#45;&gt;65049747 -->
<g id="edge7" class="edge">
<title>33038293-&gt;65049747</title>
<path fill="none" stroke="#000000" d="M116.8965,-211.1168C108.0269,-203.3116 94.6618,-191.5503 83.9286,-182.105"/>
<polygon fill="#000000" stroke="#000000" points="86.1713,-179.4164 76.3519,-175.4376 81.5469,-184.6714 86.1713,-179.4164"/>
</g>
<!-- 59247523 -->
<g id="node9" class="node">
<title>59247523</title>
<text text-anchor="middle" x="57.5365" y="-109.8" font-family="Times,serif" font-size="14.00" fill="#000000">IDENTIFIER:table1</text>
</g>
<!-- 65049747&#45;&gt;59247523 -->
<g id="edge8" class="edge">
<title>65049747-&gt;59247523</title>
<path fill="none" stroke="#000000" d="M65.0503,-158.0812C63.8708,-151.1613 62.18,-141.242 60.7009,-132.5645"/>
<polygon fill="#000000" stroke="#000000" points="64.1256,-131.8263 58.995,-122.5566 57.2252,-133.0026 64.1256,-131.8263"/>
</g>
<!-- 18903174 -->
<g id="node11" class="node">
<title>18903174</title>
<text text-anchor="middle" x="218.5365" y="-215.4" font-family="Times,serif" font-size="14.00" fill="#000000">SET</text>
</g>
<!-- 61547269&#45;&gt;18903174 -->
<g id="edge10" class="edge">
<title>61547269-&gt;18903174</title>
<path fill="none" stroke="#000000" d="M294.0764,-263.9168C279.4554,-255.3391 256.69,-241.9834 239.9707,-232.1747"/>
<polygon fill="#000000" stroke="#000000" points="241.3289,-228.9137 230.9325,-226.8723 237.7867,-234.9514 241.3289,-228.9137"/>
</g>
<!-- 29250610 -->
<g id="node12" class="node">
<title>29250610</title>
<text text-anchor="middle" x="272.5365" y="-215.4" font-family="Times,serif" font-size="14.00" fill="#000000">set_stmt</text>
</g>
<!-- 61547269&#45;&gt;29250610 -->
<g id="edge11" class="edge">
<title>61547269-&gt;29250610</title>
<path fill="none" stroke="#000000" d="M302.5918,-263.6812C297.5592,-256.3 290.1997,-245.506 284.023,-236.4469"/>
<polygon fill="#000000" stroke="#000000" points="286.8958,-234.4472 278.3706,-228.1566 281.1122,-238.3906 286.8958,-234.4472"/>
</g>
<!-- 10747604 -->
<g id="node20" class="node">
<title>10747604</title>
<text text-anchor="middle" x="344.5365" y="-215.4" font-family="Times,serif" font-size="14.00" fill="#000000">COMMA:,</text>
</g>
<!-- 61547269&#45;&gt;10747604 -->
<g id="edge19" class="edge">
<title>61547269-&gt;10747604</title>
<path fill="none" stroke="#000000" d="M314.4812,-263.6812C319.5138,-256.3 326.8733,-245.506 333.05,-236.4469"/>
<polygon fill="#000000" stroke="#000000" points="335.9608,-238.3906 338.7024,-228.1566 330.1772,-234.4472 335.9608,-238.3906"/>
</g>
<!-- 3387197 -->
<g id="node21" class="node">
<title>3387197</title>
<text text-anchor="middle" x="454.5365" y="-215.4" font-family="Times,serif" font-size="14.00" fill="#000000">set_stmt</text>
</g>
<!-- 61547269&#45;&gt;3387197 -->
<g id="edge20" class="edge">
<title>61547269-&gt;3387197</title>
<path fill="none" stroke="#000000" d="M331.6706,-264.0337C356.0187,-255.2284 394.5436,-241.296 421.9595,-231.3813"/>
<polygon fill="#000000" stroke="#000000" points="423.297,-234.6195 431.5106,-227.9272 420.9163,-228.0367 423.297,-234.6195"/>
</g>
<!-- 5026204 -->
<g id="node13" class="node">
<title>5026204</title>
<text text-anchor="middle" x="161.5365" y="-162.6" font-family="Times,serif" font-size="14.00" fill="#000000">column_name</text>
</g>
<!-- 29250610&#45;&gt;5026204 -->
<g id="edge12" class="edge">
<title>29250610-&gt;5026204</title>
<path fill="none" stroke="#000000" d="M254.7024,-211.1168C236.8206,-202.6108 209.0614,-189.4065 188.4909,-179.6216"/>
<polygon fill="#000000" stroke="#000000" points="189.8602,-176.3971 179.3263,-175.2622 186.8533,-182.7184 189.8602,-176.3971"/>
</g>
<!-- 6929442 -->
<g id="node16" class="node">
<title>6929442</title>
<text text-anchor="middle" x="250.5365" y="-162.6" font-family="Times,serif" font-size="14.00" fill="#000000">ASSIGN:=</text>
</g>
<!-- 29250610&#45;&gt;6929442 -->
<g id="edge15" class="edge">
<title>29250610-&gt;6929442</title>
<path fill="none" stroke="#000000" d="M268.9036,-210.8812C265.9563,-203.8075 261.703,-193.5996 258.0315,-184.7879"/>
<polygon fill="#000000" stroke="#000000" points="261.1787,-183.2412 254.1018,-175.3566 254.7172,-185.9336 261.1787,-183.2412"/>
</g>
<!-- 8369514 -->
<g id="node17" class="node">
<title>8369514</title>
<text text-anchor="middle" x="312.5365" y="-162.6" font-family="Times,serif" font-size="14.00" fill="#000000">expr</text>
</g>
<!-- 29250610&#45;&gt;8369514 -->
<g id="edge16" class="edge">
<title>29250610-&gt;8369514</title>
<path fill="none" stroke="#000000" d="M279.1417,-210.8812C284.7917,-203.4231 293.0813,-192.4808 299.9877,-183.3644"/>
<polygon fill="#000000" stroke="#000000" points="302.8054,-185.4411 306.0542,-175.3566 297.2258,-181.214 302.8054,-185.4411"/>
</g>
<!-- 11263791 -->
<g id="node14" class="node">
<title>11263791</title>
<text text-anchor="middle" x="161.5365" y="-109.8" font-family="Times,serif" font-size="14.00" fill="#000000">any_name</text>
</g>
<!-- 5026204&#45;&gt;11263791 -->
<g id="edge13" class="edge">
<title>5026204-&gt;11263791</title>
<path fill="none" stroke="#000000" d="M161.5365,-158.0812C161.5365,-151.1613 161.5365,-141.242 161.5365,-132.5645"/>
<polygon fill="#000000" stroke="#000000" points="165.0366,-132.5566 161.5365,-122.5566 158.0366,-132.5566 165.0366,-132.5566"/>
</g>
<!-- 39004115 -->
<g id="node15" class="node">
<title>39004115</title>
<text text-anchor="middle" x="155.5365" y="-57" font-family="Times,serif" font-size="14.00" fill="#000000">IDENTIFIER:name</text>
</g>
<!-- 11263791&#45;&gt;39004115 -->
<g id="edge14" class="edge">
<title>11263791-&gt;39004115</title>
<path fill="none" stroke="#000000" d="M160.5457,-105.2812C159.7594,-98.3613 158.6322,-88.442 157.6461,-79.7645"/>
<polygon fill="#000000" stroke="#000000" points="161.1156,-79.2974 156.5088,-69.7566 154.1604,-80.0879 161.1156,-79.2974"/>
</g>
<!-- 40625602 -->
<g id="node18" class="node">
<title>40625602</title>
<text text-anchor="middle" x="303.5365" y="-109.8" font-family="Times,serif" font-size="14.00" fill="#000000">literal_value</text>
</g>
<!-- 8369514&#45;&gt;40625602 -->
<g id="edge17" class="edge">
<title>8369514-&gt;40625602</title>
<path fill="none" stroke="#000000" d="M311.0503,-158.0812C309.8708,-151.1613 308.18,-141.242 306.7009,-132.5645"/>
<polygon fill="#000000" stroke="#000000" points="310.1256,-131.8263 304.995,-122.5566 303.2252,-133.0026 310.1256,-131.8263"/>
</g>
<!-- 51703150 -->
<g id="node19" class="node">
<title>51703150</title>
<text text-anchor="middle" x="298.5365" y="-57" font-family="Times,serif" font-size="14.00" fill="#000000">STRING_LITERAL:'X'</text>
</g>
<!-- 40625602&#45;&gt;51703150 -->
<g id="edge18" class="edge">
<title>40625602-&gt;51703150</title>
<path fill="none" stroke="#000000" d="M302.7109,-105.2812C302.0556,-98.3613 301.1162,-88.442 300.2945,-79.7645"/>
<polygon fill="#000000" stroke="#000000" points="303.774,-79.3821 299.3468,-69.7566 296.8052,-80.0421 303.774,-79.3821"/>
</g>
<!-- 32390062 -->
<g id="node22" class="node">
<title>32390062</title>
<text text-anchor="middle" x="392.5365" y="-162.6" font-family="Times,serif" font-size="14.00" fill="#000000">column_name</text>
</g>
<!-- 3387197&#45;&gt;32390062 -->
<g id="edge21" class="edge">
<title>3387197-&gt;32390062</title>
<path fill="none" stroke="#000000" d="M444.5751,-211.1168C435.4099,-203.3116 421.5993,-191.5503 410.5083,-182.105"/>
<polygon fill="#000000" stroke="#000000" points="412.5618,-179.2566 402.6791,-175.4376 408.0232,-184.5859 412.5618,-179.2566"/>
</g>
<!-- 48208966 -->
<g id="node25" class="node">
<title>48208966</title>
<text text-anchor="middle" x="481.5365" y="-162.6" font-family="Times,serif" font-size="14.00" fill="#000000">ASSIGN:=</text>
</g>
<!-- 3387197&#45;&gt;48208966 -->
<g id="edge24" class="edge">
<title>3387197-&gt;48208966</title>
<path fill="none" stroke="#000000" d="M458.995,-210.8812C462.6515,-203.7306 467.9458,-193.3773 472.4848,-184.5011"/>
<polygon fill="#000000" stroke="#000000" points="475.7242,-185.8536 477.161,-175.3566 469.4918,-182.6665 475.7242,-185.8536"/>
</g>
<!-- 38084323 -->
<g id="node26" class="node">
<title>38084323</title>
<text text-anchor="middle" x="543.5365" y="-162.6" font-family="Times,serif" font-size="14.00" fill="#000000">expr</text>
</g>
<!-- 3387197&#45;&gt;38084323 -->
<g id="edge25" class="edge">
<title>3387197-&gt;38084323</title>
<path fill="none" stroke="#000000" d="M468.8359,-211.1168C483.2124,-202.5878 505.5513,-189.335 522.0581,-179.5423"/>
<polygon fill="#000000" stroke="#000000" points="524.1841,-182.3506 530.9987,-174.2381 520.6125,-176.3303 524.1841,-182.3506"/>
</g>
<!-- 20321798 -->
<g id="node23" class="node">
<title>20321798</title>
<text text-anchor="middle" x="418.5365" y="-109.8" font-family="Times,serif" font-size="14.00" fill="#000000">any_name</text>
</g>
<!-- 32390062&#45;&gt;20321798 -->
<g id="edge22" class="edge">
<title>32390062-&gt;20321798</title>
<path fill="none" stroke="#000000" d="M396.8299,-158.0812C400.351,-150.9306 405.4492,-140.5773 409.82,-131.7011"/>
<polygon fill="#000000" stroke="#000000" points="413.0452,-133.0741 414.323,-122.5566 406.7653,-129.9817 413.0452,-133.0741"/>
</g>
<!-- 60026806 -->
<g id="node24" class="node">
<title>60026806</title>
<text text-anchor="middle" x="439.5365" y="-57" font-family="Times,serif" font-size="14.00" fill="#000000">IDENTIFIER:state</text>
</g>
<!-- 20321798&#45;&gt;60026806 -->
<g id="edge23" class="edge">
<title>20321798-&gt;60026806</title>
<path fill="none" stroke="#000000" d="M422.0042,-105.2812C424.8176,-98.2075 428.8776,-87.9996 432.3822,-79.1879"/>
<polygon fill="#000000" stroke="#000000" points="435.6898,-80.3422 436.1333,-69.7566 429.1853,-77.7551 435.6898,-80.3422"/>
</g>
<!-- 10572619 -->
<g id="node27" class="node">
<title>10572619</title>
<text text-anchor="middle" x="543.5365" y="-109.8" font-family="Times,serif" font-size="14.00" fill="#000000">literal_value</text>
</g>
<!-- 38084323&#45;&gt;10572619 -->
<g id="edge26" class="edge">
<title>38084323-&gt;10572619</title>
<path fill="none" stroke="#000000" d="M543.5365,-158.0812C543.5365,-151.1613 543.5365,-141.242 543.5365,-132.5645"/>
<polygon fill="#000000" stroke="#000000" points="547.0366,-132.5566 543.5365,-122.5566 540.0366,-132.5566 547.0366,-132.5566"/>
</g>
<!-- 58422074 -->
<g id="node28" class="node">
<title>58422074</title>
<text text-anchor="middle" x="547.5365" y="-57" font-family="Times,serif" font-size="14.00" fill="#000000">FALSE:false</text>
</g>
<!-- 10572619&#45;&gt;58422074 -->
<g id="edge27" class="edge">
<title>10572619-&gt;58422074</title>
<path fill="none" stroke="#000000" d="M544.197,-105.2812C544.7213,-98.3613 545.4727,-88.442 546.1301,-79.7645"/>
<polygon fill="#000000" stroke="#000000" points="549.6228,-79.9925 546.8883,-69.7566 542.6428,-79.4636 549.6228,-79.9925"/>
</g>
<!-- 48363089 -->
<g id="node30" class="node">
<title>48363089</title>
<text text-anchor="middle" x="554.5365" y="-215.4" font-family="Times,serif" font-size="14.00" fill="#000000">WHERE</text>
</g>
<!-- 4591283&#45;&gt;48363089 -->
<g id="edge29" class="edge">
<title>4591283-&gt;48363089</title>
<path fill="none" stroke="#000000" d="M554.5365,-263.6812C554.5365,-256.7613 554.5365,-246.842 554.5365,-238.1645"/>
<polygon fill="#000000" stroke="#000000" points="558.0366,-238.1566 554.5365,-228.1566 551.0366,-238.1566 558.0366,-238.1566"/>
</g>
<!-- 48718828 -->
<g id="node31" class="node">
<title>48718828</title>
<text text-anchor="middle" x="663.5365" y="-215.4" font-family="Times,serif" font-size="14.00" fill="#000000">expr</text>
</g>
<!-- 4591283&#45;&gt;48718828 -->
<g id="edge30" class="edge">
<title>4591283-&gt;48718828</title>
<path fill="none" stroke="#000000" d="M572.0492,-263.9168C591.0809,-254.6977 621.5063,-239.9596 641.9891,-230.0376"/>
<polygon fill="#000000" stroke="#000000" points="643.6783,-233.1085 651.1522,-225.599 640.6266,-226.8087 643.6783,-233.1085"/>
</g>
<!-- 6155982 -->
<g id="node32" class="node">
<title>6155982</title>
<text text-anchor="middle" x="632.5365" y="-162.6" font-family="Times,serif" font-size="14.00" fill="#000000">expr</text>
</g>
<!-- 48718828&#45;&gt;6155982 -->
<g id="edge31" class="edge">
<title>48718828-&gt;6155982</title>
<path fill="none" stroke="#000000" d="M658.4175,-210.8812C654.1741,-203.6537 648.0097,-193.1543 642.7614,-184.2153"/>
<polygon fill="#000000" stroke="#000000" points="645.6416,-182.2081 637.5603,-175.3566 639.6051,-185.7522 645.6416,-182.2081"/>
</g>
<!-- 17283300 -->
<g id="node36" class="node">
<title>17283300</title>
<text text-anchor="middle" x="694.5365" y="-162.6" font-family="Times,serif" font-size="14.00" fill="#000000">ASSIGN:=</text>
</g>
<!-- 48718828&#45;&gt;17283300 -->
<g id="edge35" class="edge">
<title>48718828-&gt;17283300</title>
<path fill="none" stroke="#000000" d="M668.6555,-210.8812C672.8989,-203.6537 679.0633,-193.1543 684.3116,-184.2153"/>
<polygon fill="#000000" stroke="#000000" points="687.4679,-185.7522 689.5127,-175.3566 681.4314,-182.2081 687.4679,-185.7522"/>
</g>
<!-- 51697020 -->
<g id="node37" class="node">
<title>51697020</title>
<text text-anchor="middle" x="756.5365" y="-162.6" font-family="Times,serif" font-size="14.00" fill="#000000">expr</text>
</g>
<!-- 48718828&#45;&gt;51697020 -->
<g id="edge36" class="edge">
<title>48718828-&gt;51697020</title>
<path fill="none" stroke="#000000" d="M676.0789,-212.4792C691.1939,-203.8978 716.8341,-189.3407 735.1067,-178.9666"/>
<polygon fill="#000000" stroke="#000000" points="736.9276,-181.9576 743.8958,-173.9767 733.4715,-175.8702 736.9276,-181.9576"/>
</g>
<!-- 22109621 -->
<g id="node33" class="node">
<title>22109621</title>
<text text-anchor="middle" x="636.5365" y="-109.8" font-family="Times,serif" font-size="14.00" fill="#000000">column_name</text>
</g>
<!-- 6155982&#45;&gt;22109621 -->
<g id="edge32" class="edge">
<title>6155982-&gt;22109621</title>
<path fill="none" stroke="#000000" d="M633.197,-158.0812C633.7213,-151.1613 634.4727,-141.242 635.1301,-132.5645"/>
<polygon fill="#000000" stroke="#000000" points="638.6228,-132.7925 635.8883,-122.5566 631.6428,-132.2636 638.6228,-132.7925"/>
</g>
<!-- 49168872 -->
<g id="node34" class="node">
<title>49168872</title>
<text text-anchor="middle" x="636.5365" y="-57" font-family="Times,serif" font-size="14.00" fill="#000000">any_name</text>
</g>
<!-- 22109621&#45;&gt;49168872 -->
<g id="edge33" class="edge">
<title>22109621-&gt;49168872</title>
<path fill="none" stroke="#000000" d="M636.5365,-105.2812C636.5365,-98.3613 636.5365,-88.442 636.5365,-79.7645"/>
<polygon fill="#000000" stroke="#000000" points="640.0366,-79.7566 636.5365,-69.7566 633.0366,-79.7566 640.0366,-79.7566"/>
</g>
<!-- 37208987 -->
<g id="node35" class="node">
<title>37208987</title>
<text text-anchor="middle" x="636.5365" y="-4.2" font-family="Times,serif" font-size="14.00" fill="#000000">IDENTIFIER:id</text>
</g>
<!-- 49168872&#45;&gt;37208987 -->
<g id="edge34" class="edge">
<title>49168872-&gt;37208987</title>
<path fill="none" stroke="#000000" d="M636.5365,-52.4812C636.5365,-45.5613 636.5365,-35.642 636.5365,-26.9645"/>
<polygon fill="#000000" stroke="#000000" points="640.0366,-26.9566 636.5365,-16.9566 633.0366,-26.9566 640.0366,-26.9566"/>
</g>
<!-- 10324632 -->
<g id="node38" class="node">
<title>10324632</title>
<text text-anchor="middle" x="756.5365" y="-109.8" font-family="Times,serif" font-size="14.00" fill="#000000">literal_value</text>
</g>
<!-- 51697020&#45;&gt;10324632 -->
<g id="edge37" class="edge">
<title>51697020-&gt;10324632</title>
<path fill="none" stroke="#000000" d="M756.5365,-158.0812C756.5365,-151.1613 756.5365,-141.242 756.5365,-132.5645"/>
<polygon fill="#000000" stroke="#000000" points="760.0366,-132.5566 756.5365,-122.5566 753.0366,-132.5566 760.0366,-132.5566"/>
</g>
<!-- 41310983 -->
<g id="node39" class="node">
<title>41310983</title>
<text text-anchor="middle" x="756.5365" y="-57" font-family="Times,serif" font-size="14.00" fill="#000000">NUMERIC_LITERAL:1</text>
</g>
<!-- 10324632&#45;&gt;41310983 -->
<g id="edge38" class="edge">
<title>10324632-&gt;41310983</title>
<path fill="none" stroke="#000000" d="M756.5365,-105.2812C756.5365,-98.3613 756.5365,-88.442 756.5365,-79.7645"/>
<polygon fill="#000000" stroke="#000000" points="760.0366,-79.7566 756.5365,-69.7566 753.0366,-79.7566 760.0366,-79.7566"/>
</g>
</g>
</svg>